{
.appVersion = "939";
copyright = "Copyright 2011 Google Inc. All Rights Reserved.";
customParameters = (
{
name = license;
value = "Licensed under the Apache License, Version 2.0";
},
{
name = licenseURL;
value = "http://www.apache.org/licenses/LICENSE-2.0";
},
{
name = vendorID;
value = GOOG;
},
{
name = panose;
value = (
2,
0,
0,
0,
0,
0,
0,
0,
0,
0
);
},
{
name = unicodeRanges;
value = (
0,
1,
2,
3,
4,
5,
6,
7,
9,
29,
30,
31,
32,
33,
34,
35,
36,
37,
38,
40,
45,
60,
62,
64,
69
);
},
{
name = codePageRanges;
value = (
1252,
1250,
1251,
1253,
1254,
1257,
1258
);
},
{
name = glyphOrder;
value = (
.notdef,
uni0000,
uni0002,
uni0009,
uni000D,
space,
exclam,
quotedbl,
numbersign,
dollar,
percent,
ampersand,
quotesingle,
parenleft,
parenright,
asterisk,
plus,
comma,
hyphen,
period,
slash,
zero,
one,
two,
three,
four,
five,
six,
seven,
eight,
nine,
colon,
semicolon,
less,
equal,
greater,
question,
at,
A,
B,
C,
D,
E,
F,
G,
H,
I,
J,
K,
L,
M,
N,
O,
P,
Q,
R,
S,
T,
U,
V,
W,
X,
Y,
Z,
bracketleft,
backslash,
bracketright,
asciicircum,
underscore,
grave,
a,
b,
c,
d,
e,
f,
g,
h,
i,
j,
k,
l,
m,
n,
o,
p,
q,
r,
s,
t,
u,
v,
w,
x,
y,
z,
braceleft,
bar,
braceright,
asciitilde,
exclamdown,
cent,
sterling,
currency,
yen,
brokenbar,
section,
dieresis,
copyright,
ordfeminine,
guillemotleft,
logicalnot,
registered,
macron,
degree,
plusminus,
twosuperior,
threesuperior,
acute,
mu,
paragraph,
periodcentered,
cedilla,
onesuperior,
ordmasculine,
guillemotright,
onequarter,
onehalf,
threequarters,
questiondown,
AE,
multiply,
Oslash,
Thorn,
germandbls,
ae,
eth,
divide,
oslash,
thorn,
dcroat,
Hbar,
dotlessi,
kgreenlandic,
Lslash,
lslash,
Eng,
eng,
OE,
oe,
longs,
uni0180,
uni0181,
uni0182,
uni0183,
uni0184,
uni0185,
uni0186,
uni0187,
uni0188,
uni0189,
uni018A,
uni018B,
uni018C,
uni018D,
uni018E,
uni018F,
uni0190,
uni0191,
florin,
uni0193,
uni0194,
uni0195,
uni0197,
uni0198,
uni0199,
uni019A,
uni019B,
uni019C,
uni019D,
Ohorn,
ohorn,
uni01A2,
uni01A3,
uni01A4,
uni01A5,
uni01A6,
uni01A7,
uni01A8,

glyphs = (
{
glyphname = .notdef;
lastChange = "2017-05-19 14:54:14 +0000";
layers = (
{
layerId = "173B8943-1C9C-4036-959A-12BE1501493B";
paths = (
{
closed = 1;
nodes = (
"808 1456 LINE",
"100 1456 LINE",
"100 0 LINE",
"808 0 LINE"
);
},
{
closed = 1;
nodes = (
"452 796 LINE",
"194 1402 LINE",
"709 1402 LINE"
);
},
{
closed = 1;
nodes = (
"754 84 LINE",
"480 728 LINE",
"754 1372 LINE"
);
},
{
closed = 1;
nodes = (
"154 96 LINE",
"154 1360 LINE",
"422 728 LINE"
);
},
{
closed = 1;
nodes = (
"709 54 LINE",
"194 54 LINE",
"452 660 LINE"
);
}
);
width = 918;
}
);
note = .notdef;
},
{
glyphname = exclam;
lastChange = "2017-05-19 14:54:14 +0000";
layers = (
{
layerId = "173B8943-1C9C-4036-959A-12BE1501493B";
paths = (
{
closed = 1;
nodes = (
"140 429 LINE",
"343 429 LINE",
"545 1456 LINE",
"293 1456 LINE"
);
},
{
closed = 1;
nodes = (
"56 36 OFFCURVE",
"115 -18 OFFCURVE",
"190 -15 CURVE SMOOTH",
"267 -14 OFFCURVE",
"323 43 OFFCURVE",
"323 120 CURVE SMOOTH",
"323 197 OFFCURVE",
"264 249 OFFCURVE",
"189 248 CURVE SMOOTH",
"112 247 OFFCURVE",
"55 189 OFFCURVE",
"56 112 CURVE SMOOTH"
);
}
);
width = 533;
}
);
note = exclam;
unicode = 0021;
},
{
glyphname = quotedbl;
lastChange = "2017-05-19 14:54:14 +0000";
layers = (
{
layerId = "173B8943-1C9C-4036-959A-12BE1501493B";
paths = (
{
closed = 1;
nodes = (
"244 1536 LINE",
"161 1013 LINE",
"299 1013 LINE",
"392 1387 LINE",
"415 1536 LINE"
);
},
{
closed = 1;
nodes = (
"536 1536 LINE",
"453 1013 LINE",
"591 1013 LINE",
"684 1387 LINE",
"707 1536 LINE"
);
}
);
width = 644;
}
);
leftKerningGroup = quotedbl;
note = quotedbl;
rightKerningGroup = quotedbl;
unicode = 0022;
},
{
glyphname = numbersign;
lastChange = "2017-05-19 14:54:14 +0000";
layers = (
{
layerId = "173B8943-1C9C-4036-959A-12BE1501493B";
paths = (
{
closed = 1;
nodes = (
"832 410 LINE",
"1072 410 LINE",
"1100 568 LINE",
"888 568 LINE",
"999 881 LINE",
"1226 881 LINE",
"1254 1040 LINE",
"1055 1040 LINE",
"1203 1456 LINE",
"1033 1456 LINE",
"885 1040 LINE",
"674 1040 LINE",
"823 1456 LINE",
"654 1456 LINE",
"506 1040 LINE",
"244 1040 LINE",
"216 881 LINE",
"450 881 LINE",
"338 568 LINE",
"88 568 LINE",
"60 410 LINE",
"283 410 LINE",
"137 0 LINE",
"306 0 LINE",
"452 410 LINE",
"663 410 LINE",
"517 0 LINE",
"686 0 LINE"
);
},
{
closed = 1;
nodes = (
"829 881 LINE",
"718 568 LINE",
"507 568 LINE",
"619 881 LINE"
);
}
);
width = 1213;
}
);
note = numbersign;
unicode = 0023;
},
{
glyphname = dollar;
lastChange = "2017-05-19 14:54:14 +0000";
layers = (
{
layerId = "173B8943-1C9C-4036-959A-12BE1501493B";
paths = (
{
closed = 1;
nodes = (
"1011 627 OFFCURVE",
"854 745 OFFCURVE",
"647 834 CURVE SMOOTH",
"539 881 OFFCURVE",
"446 939 OFFCURVE",
"461 1068 CURVE SMOOTH",
"476 1193 OFFCURVE",
"563 1281 OFFCURVE",
"691 1277 CURVE SMOOTH",
"839 1273 OFFCURVE",
"860 1122 OFFCURVE",
"853 1005 CURVE",
"1089 1005 LINE",
"1101 1217 OFFCURVE",
"1029 1422 OFFCURVE",
"800 1469 CURVE",
"841 1692 LINE",
"685 1692 LINE",
"645 1473 LINE",
"417 1446 OFFCURVE",
"242 1305 OFFCURVE",
"226 1066 CURVE SMOOTH",
"209 825 OFFCURVE",
"374 707 OFFCURVE",
"578 623 CURVE SMOOTH",
"683 579 OFFCURVE",
"776 517 OFFCURVE",
"760 388 CURVE SMOOTH",
"744 253 OFFCURVE",
"632 176 OFFCURVE",
"501 179 CURVE SMOOTH",
"345 183 OFFCURVE",
"299 307 OFFCURVE",
"307 444 CURVE",
"70 445 LINE",
"59 210 OFFCURVE",
"162 22 OFFCURVE",
"405 -15 CURVE",
"368 -212 LINE",
"524 -212 LINE",
"560 -17 LINE",
"793 10 OFFCURVE",
"978 142 OFFCURVE",
"995 390 CURVE SMOOTH"
);
}
);
width = 1129;
}
);
note = dollar;
unicode = 0024;
},
{
glyphname = percent;
lastChange = "2017-05-19 14:54:14 +0000";
layers = (
{
layerId = "173B8943-1C9C-4036-959A-12BE1501493B";
paths = (
{
closed = 1;
nodes = (
"176 931 OFFCURVE",
"284 804 OFFCURVE",
"455 800 CURVE SMOOTH",
"635 796 OFFCURVE",
"767 923 OFFCURVE",
"786 1099 CURVE SMOOTH",
"792 1176 LINE SMOOTH",
"803 1345 OFFCURVE",
"695 1473 OFFCURVE",
"523 1477 CURVE SMOOTH",
"342 1481 OFFCURVE",
"207 1353 OFFCURVE",
"190 1174 CURVE SMOOTH",
"185 1099 LINE SMOOTH"
);
},
{
closed = 1;
nodes = (
"372 1259 OFFCURVE",
"430 1335 OFFCURVE",
"519 1332 CURVE SMOOTH",
"607 1329 OFFCURVE",
"633 1252 OFFCURVE",
"626 1177 CURVE SMOOTH",
"617 1099 LINE SMOOTH",
"605 1018 OFFCURVE",
"550 942 OFFCURVE",
"459 945 CURVE SMOOTH",
"374 948 OFFCURVE",
"344 1021 OFFCURVE",
"351 1097 CURVE SMOOTH",
"360 1176 LINE SMOOTH"
);
},
{
closed = 1;
nodes = (
"249 191 LINE",
"369 111 LINE",
"1248 1238 LINE",
"1128 1318 LINE"
);
},
{
closed = 1;
nodes = (
"713 111 OFFCURVE",
"821 -18 OFFCURVE",
"992 -22 CURVE SMOOTH",
"1173 -26 OFFCURVE",
"1305 103 OFFCURVE",
"1322 279 CURVE SMOOTH",
"1329 357 LINE SMOOTH",
"1340 526 OFFCURVE",
"1233 654 OFFCURVE",
"1060 658 CURVE SMOOTH",
"880 662 OFFCURVE",
"745 533 OFFCURVE",
"729 357 CURVE SMOOTH",
"722 279 LINE"
);
},
{
closed = 1;
nodes = (
"909 440 OFFCURVE",
"967 515 OFFCURVE",
"1056 512 CURVE SMOOTH",
"1143 511 OFFCURVE",
"1171 434 OFFCURVE",
"1164 358 CURVE SMOOTH",
"1155 279 LINE SMOOTH",
"1143 195 OFFCURVE",
"1089 121 OFFCURVE",
"996 124 CURVE SMOOTH",
"912 127 OFFCURVE",
"881 202 OFFCURVE",
"888 277 CURVE SMOOTH",
"897 357 LINE SMOOTH"
);
}
);
width = 1459;
}
);
note = percent;
unicode = 0025;
},
{
glyphname = ampersand;
lastChange = "2017-05-19 14:54:14 +0000";
layers = (
{
layerId = "173B8943-1C9C-4036-959A-12BE1501493B";
paths = (
{
closed = 1;
nodes = (
"996 251 LINE",
"1103 368 OFFCURVE",
"1165 515 OFFCURVE",
"1181 694 CURVE",
"977 694 LINE",
"964 598 OFFCURVE",
"929 509 OFFCURVE",
"873 426 CURVE",
"660 751 LINE",
"784 833 LINE SMOOTH",
"900 912 OFFCURVE",
"1001 1012 OFFCURVE",
"1009 1160 CURVE SMOOTH",
"1020 1347 OFFCURVE",
"870 1472 OFFCURVE",
"690 1476 CURVE SMOOTH",
"462 1481 OFFCURVE",
"295 1326 OFFCURVE",
"279 1099 CURVE SMOOTH",
"271 984 OFFCURVE",
"324 883 OFFCURVE",
"376 783 CURVE",
"300 736 OFFCURVE",
"229 683 OFFCURVE",
"162 622 CURVE SMOOTH",
"28 501 OFFCURVE",
"-3 234 OFFCURVE",
"162 91 CURVE SMOOTH",
"327 -52 OFFCURVE",
"603 -63 OFFCURVE",
"838 96 CURVE",
"899 0 LINE",
"1157 0 LINE"
);
},
{
closed = 1;
nodes = (
"509 1198 OFFCURVE",
"576 1283 OFFCURVE",
"676 1282 CURVE SMOOTH",
"752 1282 OFFCURVE",
"806 1228 OFFCURVE",
"798 1152 CURVE SMOOTH",
"789 1061 OFFCURVE",
"725 1007 OFFCURVE",
"653 962 CURVE SMOOTH",
"558 903 LINE",
"523 964 OFFCURVE",
"488 1032 OFFCURVE",
"497 1105 CURVE SMOOTH"
);
},
{
closed = 1;
nodes = (
"303 471 OFFCURVE",
"355 542 OFFCURVE",
"447 609 CURVE",
"482 632 LINE",
"721 258 LINE",
"630 201 OFFCURVE",
"549 174 OFFCURVE",
"479 175 CURVE SMOOTH",
"352 178 OFFCURVE",
"276 267 OFFCURVE",
"292 394 CURVE SMOOTH"
);
}
);
width = 1270;
}
);
note = ampersand;
unicode = 0026;
},
{
glyphname = quotesingle;
lastChange = "2017-05-19 14:54:14 +0000";
layers = (
{
layerId = "173B8943-1C9C-4036-959A-12BE1501493B";
paths = (
{
closed = 1;
nodes = (
"226 1536 LINE",
"145 1020 LINE",
"302 1020 LINE",
"385 1399 LINE",
"406 1536 LINE"
);
}
);
width = 336;
}
);
leftKerningGroup = quotedbl;
note = quotesingle;
rightKerningGroup = quotedbl;
unicode = 0027;
},
{
glyphname = parenleft;
lastChange = "2017-05-19 14:54:14 +0000";
layers = (
{
layerId = "173B8943-1C9C-4036-959A-12BE1501493B";
paths = (
{
closed = 1;
nodes = (
"106 457 OFFCURVE",
"104 333 OFFCURVE",
"115 198 CURVE SMOOTH",
"138 -71 OFFCURVE",
"235 -327 OFFCURVE",
"454 -463 CURVE",
"510 -330 LINE",
"433 -261 OFFCURVE",
"380 -174 OFFCURVE",
"353 -67 CURVE SMOOTH",
"297 146 OFFCURVE",
"298 482 OFFCURVE",
"386 810 CURVE SMOOTH",
"474 1138 OFFCURVE",
"593 1332 OFFCURVE",
"796 1488 CURVE",
"760 1632 LINE",
"631 1575 OFFCURVE",
"523 1488 OFFCURVE",
"436 1373 CURVE SMOOTH",
"261 1142 OFFCURVE",
"161 848 OFFCURVE",
"124 588 CURVE SMOOTH",
"121 571 LINE"
);
}
);
width = 694;
}
);
note = parenleft;
unicode = 0028;
},
{
glyphname = parenright;
lastChange = "2017-05-19 14:54:14 +0000";
layers = (
{
layerId = "173B8943-1C9C-4036-959A-12BE1501493B";
paths = (
{
closed = 1;
nodes = (
"156 -364 OFFCURVE",
"318 -167 OFFCURVE",
"433 93 CURVE SMOOTH",
"548 353 OFFCURVE",
"609 644 OFFCURVE",
"580 971 CURVE SMOOTH",
"555 1240 OFFCURVE",
"455 1496 OFFCURVE",
"235 1631 CURVE",
"178 1498 LINE",
"255 1429 OFFCURVE",
"307 1342 OFFCURVE",
"335 1235 CURVE SMOOTH",
"391 1021 OFFCURVE",
"390 672 OFFCURVE",
"300 344 CURVE SMOOTH",
"210 16 OFFCURVE",
"92 -172 OFFCURVE",
"-108 -327 CURVE",
"-71 -465 LINE"
);
}
);
width = 701;
}
);
note = parenright;
unicode = 0029;
},
{
glyphname = asterisk;
lastChange = "2017-05-19 14:54:14 +0000";
layers = (
{
layerId = "173B8943-1C9C-4036-959A-12BE1501493B";
paths = (
{
closed = 1;
nodes = (
"492 877 LINE",
"618 588 LINE",
"766 685 LINE",
"616 957 LINE",
"934 1045 LINE",
"910 1224 LINE",
"608 1112 LINE",
"683 1457 LINE",
"508 1457 LINE",
"461 1107 LINE",
"183 1227 LINE",
"104 1065 LINE",
"383 977 LINE",
"139 710 LINE",
"273 600 LINE"
);
}
);
width = 879;
}
);
note = asterisk;
unicode = 002A;
},
{
glyphname = plus;
lastChange = "2017-05-19 14:54:14 +0000";
layers = (
{
layerId = "173B8943-1C9C-4036-959A-12BE1501493B";
paths = (
{
closed = 1;
nodes = (
"700 801 LINE",
"771 1206 LINE",
"541 1206 LINE",
"471 801 LINE",
"101 801 LINE",
"62 580 LINE",
"433 580 LINE",
"357 146 LINE",
"587 146 LINE",
"662 580 LINE",
"1031 580 LINE",
"1070 801 LINE"
);
}
);
width = 1108;
}
);
note = plus;
unicode = 002B;
},
{
glyphname = comma;
lastChange = "2017-05-19 14:54:14 +0000";
layers = (
{
layerId = "173B8943-1C9C-4036-959A-12BE1501493B";
paths = (
{
closed = 1;
nodes = (
"32 55 LINE SMOOTH",
"12 -58 OFFCURVE",
"-47 -150 OFFCURVE",
"-118 -249 CURVE",
"12 -329 LINE",
"145 -223 OFFCURVE",
"225 -88 OFFCURVE",
"251 75 CURVE SMOOTH",
"276 235 LINE",
"64 235 LINE"
);
}
);
width = 437;
}
);
leftKerningGroup = comma;
note = comma;
rightKerningGroup = comma;
unicode = 002C;
},
{
glyphname = hyphen;
lastChange = "2017-05-19 14:54:14 +0000";
layers = (
{
layerId = "173B8943-1C9C-4036-959A-12BE1501493B";
paths = (
{
closed = 1;
nodes = (
"54 522 LINE",
"565 522 LINE",
"600 717 LINE",
"89 717 LINE"
);
}
);
width = 653;
}
);
leftKerningGroup = hyphen;
note = hyphen;
unicode = 002D;
},
{
glyphname = period;
lastChange = "2017-05-19 14:54:14 +0000";
layers = (
{
layerId = "173B8943-1C9C-4036-959A-12BE1501493B";
paths = (
{
closed = 1;
nodes = (
"48 39 OFFCURVE",
"107 -16 OFFCURVE",
"186 -13 CURVE SMOOTH",
"265 -12 OFFCURVE",
"324 47 OFFCURVE",
"323 126 CURVE",
"323 205 OFFCURVE",
"262 261 OFFCURVE",
"185 258 CURVE SMOOTH",
"105 257 OFFCURVE",
"48 198 OFFCURVE",
"48 118 CURVE SMOOTH"
);
}
);
width = 555;
}
);
leftKerningGroup = comma;
note = period;
rightKerningGroup = comma;
unicode = 002E;
},
{
glyphname = slash;
lastChange = "2017-05-19 14:54:14 +0000";
layers = (
{
layerId = "173B8943-1C9C-4036-959A-12BE1501493B";
paths = (
{
closed = 1;
nodes = (
"-130 -125 LINE",
"67 -125 LINE",
"898 1456 LINE",
"701 1456 LINE"
);
}
);
width = 787;
}
);
note = slash;
unicode = 002F;
},
{
glyphname = zero;
lastChange = "2017-05-19 14:54:14 +0000";
layers = (
{
layerId = "173B8943-1C9C-4036-959A-12BE1501493B";
paths = (
{
closed = 1;
nodes = (
"1091 1046 OFFCURVE",
"1074 1250 OFFCURVE",
"960 1377 CURVE SMOOTH",
"846 1504 OFFCURVE",
"550 1511 OFFCURVE",
"398 1390 CURVE SMOOTH",
"246 1269 OFFCURVE",
"172 1061 OFFCURVE",
"141 849 CURVE SMOOTH",
"106 614 LINE SMOOTH",
"82 418 OFFCURVE",
"100 210 OFFCURVE",
"213 81 CURVE SMOOTH",
"326 -48 OFFCURVE",
"624 -56 OFFCURVE",
"776 68 CURVE SMOOTH",
"927 192 OFFCURVE",
"999 403 OFFCURVE",
"1031 615 CURVE SMOOTH",
"1066 849 LINE SMOOTH"
);
},
{
closed = 1;
nodes = (
"846 988 OFFCURVE",
"842 934 OFFCURVE",
"836 888 CURVE SMOOTH",
"794 605 LINE SMOOTH",
"759 369 OFFCURVE",
"707 265 OFFCURVE",
"632 211 CURVE SMOOTH",
"557 157 OFFCURVE",
"402 154 OFFCURVE",
"358 251 CURVE SMOOTH",
"313 347 OFFCURVE",
"325 494 OFFCURVE",
"340 591 CURVE SMOOTH",
"384 889 LINE SMOOTH",
"391 944 OFFCURVE",
"405 1003 OFFCURVE",
"424 1066 CURVE SMOOTH",
"463 1191 OFFCURVE",
"538 1289 OFFCURVE",
"683 1282 CURVE SMOOTH",
"815 1277 OFFCURVE",
"850 1170 OFFCURVE",
"847 1049 CURVE SMOOTH"
);
}
);
width = 1129;
}
);
note = zero;
unicode = 0030;
},
{
glyphname = one;
lastChange = "2017-05-19 14:54:14 +0000";
layers = (
{
layerId = "173B8943-1C9C-4036-959A-12BE1501493B";
paths = (
{
closed = 1;
nodes = (
"276 1258 LINE",
"238 1043 LINE",
"606 1165 LINE",
"404 0 LINE",
"641 0 LINE",
"888 1461 LINE",
"852 1461 LINE"
);
}
);
width = 1129;
}
);
note = one;
unicode = 0031;
},
{
glyphname = two;
lastChange = "2017-05-19 14:54:14 +0000";
layers = (
{
layerId = "173B8943-1C9C-4036-959A-12BE1501493B";
paths = (
{
closed = 1;
nodes = (
"713 540 LINE SMOOTH",
"869 687 OFFCURVE",
"1056 862 OFFCURVE",
"1075 1083 CURVE SMOOTH",
"1095 1332 OFFCURVE",
"913 1472 OFFCURVE",
"677 1476 CURVE SMOOTH",
"400 1481 OFFCURVE",
"170 1293 OFFCURVE",
"149 1012 CURVE",
"384 1014 LINE",
"404 1165 OFFCURVE",
"499 1287 OFFCURVE",
"663 1283 CURVE SMOOTH",
"791 1279 OFFCURVE",
"846 1176 OFFCURVE",
"831 1059 CURVE SMOOTH",
"811 908 OFFCURVE",
"672 785 OFFCURVE",
"569 685 CURVE SMOOTH",
"39 178 LINE",
"11 0 LINE",
"963 0 LINE",
"994 195 LINE",
"346 195 LINE"
);
}
);
width = 1129;
}
);
note = two;
unicode = 0032;
},
{
glyphname = three;
lastChange = "2017-05-19 14:54:14 +0000";
layers = (
{
layerId = "173B8943-1C9C-4036-959A-12BE1501493B";
paths = (
{
closed = 1;
nodes = (
"682 642 OFFCURVE",
"765 564 OFFCURVE",
"749 416 CURVE SMOOTH",
"733 269 OFFCURVE",
"624 171 OFFCURVE",
"476 175 CURVE SMOOTH",
"345 179 OFFCURVE",
"274 264 OFFCURVE",
"278 391 CURVE",
"42 392 LINE",
"34 139 OFFCURVE",
"214 -16 OFFCURVE",
"461 -20 CURVE SMOOTH",
"726 -25 OFFCURVE",
"965 136 OFFCURVE",
"984 416 CURVE SMOOTH",
"993 559 OFFCURVE",
"932 683 OFFCURVE",
"799 743 CURVE",
"934 806 OFFCURVE",
"1056 912 OFFCURVE",
"1067 1069 CURVE SMOOTH",
"1086 1326 OFFCURVE",
"905 1473 OFFCURVE",
"660 1476 CURVE SMOOTH",
"419 1480 OFFCURVE",
"190 1331 OFFCURVE",
"171 1076 CURVE",
"406 1078 LINE",
"426 1203 OFFCURVE",
"525 1286 OFFCURVE",
"653 1283 CURVE SMOOTH",
"782 1280 OFFCURVE",
"842 1194 OFFCURVE",
"829 1070 CURVE SMOOTH",
"812 917 OFFCURVE",
"689 839 OFFCURVE",
"544 838 CURVE SMOOTH",
"416 839 LINE",
"386 647 LINE",
"538 646 LINE SMOOTH"
);
}
);
width = 1129;
}
);
note = three;
unicode = 0033;
},
{
glyphname = four;
lastChange = "2017-05-19 14:54:14 +0000";
layers = (
{
layerId = "173B8943-1C9C-4036-959A-12BE1501493B";
paths = (
{
closed = 1;
nodes = (
"618 325 LINE",
"562 0 LINE",
"799 0 LINE",
"856 325 LINE",
"1032 325 LINE",
"1066 520 LINE",
"889 520 LINE",
"1052 1456 LINE",
"800 1456 LINE",
"30 484 LINE",
"9 325 LINE"
);
},
{
closed = 1;
nodes = (
"765 1128 LINE",
"652 520 LINE",
"291 520 LINE",
"742 1096 LINE"
);
}
);
width = 1129;
}
);
note = four;
unicode = 0034;
},
{
glyphname = five;
lastChange = "2017-05-19 14:54:14 +0000";
layers = (
{
layerId = "173B8943-1C9C-4036-959A-12BE1501493B";
paths = (
{
closed = 1;
nodes = (
"445 729 OFFCURVE",
"510 762 OFFCURVE",
"595 759 CURVE SMOOTH",
"754 756 OFFCURVE",
"809 622 OFFCURVE",
"794 481 CURVE SMOOTH",
"778 328 OFFCURVE",
"690 172 OFFCURVE",
"518 176 CURVE SMOOTH",
"385 179 OFFCURVE",
"327 272 OFFCURVE",
"319 395 CURVE",
"90 395 LINE",
"93 274 OFFCURVE",
"133 175 OFFCURVE",
"208 98 CURVE SMOOTH",
"359 -56 OFFCURVE",
"678 -73 OFFCURVE",
"869 116 CURVE SMOOTH",
"1060 305 OFFCURVE",
"1075 610 OFFCURVE",
"958 806 CURVE SMOOTH",
"841 1002 OFFCURVE",
"575 975 OFFCURVE",
"444 898 CURVE",
"545 1247 LINE",
"1106 1247 LINE",
"1139 1456 LINE",
"376 1456 LINE",
"189 725 LINE",
"381 676 LINE"
);
}
);
width = 1129;
}
);
note = five;
unicode = 0035;
},
{
glyphname = six;
lastChange = "2017-05-19 14:54:14 +0000";
layers = (
{
layerId = "173B8943-1C9C-4036-959A-12BE1501493B";
paths = (
{
closed = 1;
nodes = (
"1040 639 OFFCURVE",
"1001 794 OFFCURVE",
"895 890 CURVE SMOOTH",
"789 985 OFFCURVE",
"555 1009 OFFCURVE",
"383 842 CURVE",
"478 1097 OFFCURVE",
"650 1267 OFFCURVE",
"935 1264 CURVE",
"948 1263 LINE",
"968 1464 LINE",
"931 1464 LINE SMOOTH",
"769 1463 OFFCURVE",
"631 1425 OFFCURVE",
"518 1350 CURVE SMOOTH",
"290 1201 OFFCURVE",
"156 936 OFFCURVE",
"117 631 CURVE SMOOTH",
"107 551 LINE SMOOTH",
"97 460 OFFCURVE",
"105 372 OFFCURVE",
"130 285 CURVE SMOOTH",
"180 112 OFFCURVE",
"302 -16 OFFCURVE",
"509 -21 CURVE SMOOTH",
"801 -26 OFFCURVE",
"1002 204 OFFCURVE",
"1027 484 CURVE SMOOTH"
);
},
{
closed = 1;
nodes = (
"380 653 OFFCURVE",
"417 692 OFFCURVE",
"462 724 CURVE SMOOTH",
"553 788 OFFCURVE",
"719 799 OFFCURVE",
"767 670 CURVE SMOOTH",
"814 541 OFFCURVE",
"803 401 OFFCURVE",
"712 270 CURVE SMOOTH",
"620 138 OFFCURVE",
"443 159 OFFCURVE",
"391 240 CURVE SMOOTH",
"338 321 OFFCURVE",
"333 442 OFFCURVE",
"342 529 CURVE SMOOTH",
"352 606 LINE"
);
}
);
width = 1129;
}
);
note = six;
unicode = 0036;
},
{
glyphname = seven;
lastChange = "2017-05-19 14:54:14 +0000";
layers = (
{
layerId = "173B8943-1C9C-4036-959A-12BE1501493B";
paths = (
{
closed = 1;
nodes = (
"169 1261 LINE",
"895 1261 LINE",
"133 0 LINE",
"393 0 LINE",
"1158 1310 LINE",
"1180 1456 LINE",
"200 1456 LINE"
);
}
);
width = 1129;
}
);
note = seven;
unicode = 0037;
},
{
glyphname = eight;
lastChange = "2017-05-19 14:54:14 +0000";
layers = (
{
layerId = "173B8943-1C9C-4036-959A-12BE1501493B";
paths = (
{
closed = 1;
nodes = (
"1001 554 OFFCURVE",
"945 667 OFFCURVE",
"823 745 CURVE",
"892 780 OFFCURVE",
"950 824 OFFCURVE",
"998 879 CURVE SMOOTH",
"1093 988 OFFCURVE",
"1129 1227 OFFCURVE",
"982 1368 CURVE SMOOTH",
"834 1508 OFFCURVE",
"555 1517 OFFCURVE",
"369 1370 CURVE SMOOTH",
"183 1222 OFFCURVE",
"151 908 OFFCURVE",
"355 757 CURVE",
"199 685 OFFCURVE",
"79 568 OFFCURVE",
"66 388 CURVE SMOOTH",
"47 133 OFFCURVE",
"235 -16 OFFCURVE",
"476 -20 CURVE SMOOTH",
"739 -25 OFFCURVE",
"971 130 OFFCURVE",
"990 405 CURVE SMOOTH"
);
},
{
closed = 1;
nodes = (
"826 949 OFFCURVE",
"739 842 OFFCURVE",
"608 845 CURVE SMOOTH",
"488 846 OFFCURVE",
"438 946 OFFCURVE",
"449 1055 CURVE SMOOTH",
"462 1179 OFFCURVE",
"550 1285 OFFCURVE",
"681 1282 CURVE SMOOTH",
"800 1279 OFFCURVE",
"850 1181 OFFCURVE",
"839 1073 CURVE SMOOTH"
);
},
{
closed = 1;
nodes = (
"741 275 OFFCURVE",
"636 171 OFFCURVE",
"489 174 CURVE SMOOTH",
"354 177 OFFCURVE",
"291 274 OFFCURVE",
"306 402 CURVE SMOOTH",
"322 542 OFFCURVE",
"427 656 OFFCURVE",
"574 652 CURVE SMOOTH",
"706 649 OFFCURVE",
"770 543 OFFCURVE",
"757 418 CURVE SMOOTH"
);
}
);
width = 1129;
}
);
note = eight;
unicode = 0038;
},
{
glyphname = nine;
lastChange = "2017-05-19 14:54:14 +0000";
layers = (
{
layerId = "173B8943-1C9C-4036-959A-12BE1501493B";
paths = (
{
closed = 1;
nodes = (
"395 -8 OFFCURVE",
"536 28 OFFCURVE",
"651 101 CURVE SMOOTH",
"879 246 OFFCURVE",
"1007 508 OFFCURVE",
"1047 820 CURVE SMOOTH",
"1055 884 LINE SMOOTH",
"1076 1067 OFFCURVE",
"1037 1261 OFFCURVE",
"917 1382 CURVE SMOOTH",
"796 1503 OFFCURVE",
"556 1503 OFFCURVE",
"407 1408 CURVE SMOOTH",
"258 1313 OFFCURVE",
"165 1146 OFFCURVE",
"149 961 CURVE SMOOTH",
"134 805 OFFCURVE",
"177 649 OFFCURVE",
"284 554 CURVE SMOOTH",
"391 459 OFFCURVE",
"605 435 OFFCURVE",
"785 610 CURVE",
"700 341 OFFCURVE",
"535 191 OFFCURVE",
"240 194 CURVE",
"226 195 LINE",
"207 -8 LINE",
"227 -8 LINE SMOOTH"
);
},
{
closed = 1;
nodes = (
"391 1039 OFFCURVE",
"417 1110 OFFCURVE",
"462 1180 CURVE SMOOTH",
"550 1320 OFFCURVE",
"727 1299 OFFCURVE",
"778 1216 CURVE SMOOTH",
"829 1132 OFFCURVE",
"832 1009 OFFCURVE",
"823 925 CURVE SMOOTH",
"810 828 LINE",
"782 785 OFFCURVE",
"746 747 OFFCURVE",
"703 716 CURVE SMOOTH",
"616 652 OFFCURVE",
"492 657 OFFCURVE",
"440 721 CURVE SMOOTH",
"387 785 OFFCURVE",
"375 885 OFFCURVE",
"384 968 CURVE SMOOTH"
);
}
);
width = 1129;
}
);
note = nine;
unicode = 0039;
},
{
glyphname = colon;
lastChange = "2017-05-19 14:54:14 +0000";
layers = (
{
layerId = "173B8943-1C9C-4036-959A-12BE1501493B";
paths = (
{
closed = 1;
nodes = (
"42 39 OFFCURVE",
"101 -16 OFFCURVE",
"180 -13 CURVE SMOOTH",
"259 -12 OFFCURVE",
"318 47 OFFCURVE",
"317 126 CURVE",
"317 205 OFFCURVE",
"256 261 OFFCURVE",
"179 258 CURVE SMOOTH",
"99 257 OFFCURVE",
"42 198 OFFCURVE",
"42 118 CURVE SMOOTH"
);
},
{
closed = 1;
nodes = (
"189 888 OFFCURVE",
"248 833 OFFCURVE",
"327 836 CURVE SMOOTH",
"406 837 OFFCURVE",
"465 896 OFFCURVE",
"464 975 CURVE",
"464 1054 OFFCURVE",
"403 1110 OFFCURVE",
"326 1107 CURVE SMOOTH",
"246 1106 OFFCURVE",
"189 1047 OFFCURVE",
"189 967 CURVE SMOOTH"
);
}
);
width = 537;
}
);
note = colon;
unicode = 003A;
},
{
glyphname = semicolon;
lastChange = "2017-05-19 14:54:14 +0000";
layers = (
{
layerId = "173B8943-1C9C-4036-959A-12BE1501493B";
paths = (
{
closed = 1;
nodes = (
"170 888 OFFCURVE",
"229 833 OFFCURVE",
"308 836 CURVE SMOOTH",
"387 837 OFFCURVE",
"446 896 OFFCURVE",
"445 975 CURVE",
"445 1054 OFFCURVE",
"384 1110 OFFCURVE",
"307 1107 CURVE SMOOTH",
"227 1106 OFFCURVE",
"170 1047 OFFCURVE",
"170 967 CURVE SMOOTH"
);
},
{
closed = 1;
nodes = (
"49 55 LINE SMOOTH",
"29 -58 OFFCURVE",
"-30 -150 OFFCURVE",
"-101 -249 CURVE",
"29 -329 LINE",
"162 -223 OFFCURVE",
"242 -88 OFFCURVE",
"268 75 CURVE SMOOTH",
"293 235 LINE",
"81 235 LINE"
);
}
);
width = 482;
}
);
note = semicolon;
unicode = 003B;
},
{
glyphname = less;
lastChange = "2017-05-19 14:54:14 +0000";
layers = (
{
layerId = "173B8943-1C9C-4036-959A-12BE1501493B";
paths = (
{
closed = 1;
nodes = (
"306 626 LINE",
"919 855 LINE",
"964 1108 LINE",
"84 736 LINE",
"50 543 LINE",
"800 171 LINE",
"841 402 LINE"
);
}
);
width = 1010;
}
);
note = less;
unicode = 003C;
},
{
glyphname = equal;
lastChange = "2017-05-19 14:54:14 +0000";
layers = (
{
layerId = "173B8943-1C9C-4036-959A-12BE1501493B";
paths = (
{
closed = 1;
nodes = (
"170 781 LINE",
"1009 781 LINE",
"1044 982 LINE",
"206 982 LINE"
);
},
{
closed = 1;
nodes = (
"97 356 LINE",
"935 356 LINE",
"971 558 LINE",
"132 558 LINE"
);
}
);
width = 1112;
}
);
note = equal;
unicode = 003D;
},
{
glyphname = greater;
lastChange = "2017-05-19 14:54:14 +0000";
layers = (
{
layerId = "173B8943-1C9C-4036-959A-12BE1501493B";
paths = (
{
closed = 1;
nodes = (
"731 641 LINE",
"91 409 LINE",
"47 159 LINE",
"950 531 LINE",
"984 725 LINE",
"210 1097 LINE",
"170 869 LINE"
);
}
);
width = 1034;
}
);
note = greater;
unicode = 003E;
},
{
glyphname = question;
lastChange = "2017-05-19 14:54:14 +0000";
layers = (
{
layerId = "173B8943-1C9C-4036-959A-12BE1501493B";
paths = (
{
closed = 1;
nodes = (
"552 530 OFFCURVE",
"596 611 OFFCURVE",
"669 671 CURVE SMOOTH",
"814 791 OFFCURVE",
"961 908 OFFCURVE",
"976 1099 CURVE SMOOTH",
"995 1334 OFFCURVE",
"839 1472 OFFCURVE",
"612 1476 CURVE SMOOTH",
"369 1481 OFFCURVE",
"171 1341 OFFCURVE",
"148 1093 CURVE",
"384 1094 LINE",
"407 1202 OFFCURVE",
"481 1280 OFFCURVE",
"597 1277 CURVE SMOOTH",
"706 1274 OFFCURVE",
"746 1192 OFFCURVE",
"733 1091 CURVE SMOOTH",
"717 974 OFFCURVE",
"645 918 OFFCURVE",
"519 809 CURVE SMOOTH",
"393 700 OFFCURVE",
"334 593 OFFCURVE",
"318 428 CURVE",
"536 429 LINE"
);
},
{
closed = 1;
nodes = (
"239 37 OFFCURVE",
"298 -16 OFFCURVE",
"373 -13 CURVE SMOOTH",
"450 -12 OFFCURVE",
"507 45 OFFCURVE",
"507 122 CURVE",
"506 199 OFFCURVE",
"447 251 OFFCURVE",
"372 250 CURVE SMOOTH",
"295 249 OFFCURVE",
"238 191 OFFCURVE",
"238 114 CURVE SMOOTH"
);
}
);
width = 967;
}
);
note = question;
unicode = 003F;
},
{
glyphname = at;
lastChange = "2017-05-19 14:54:14 +0000";
layers = (
{
layerId = "173B8943-1C9C-4036-959A-12BE1501493B";
paths = (
{
closed = 1;
nodes = (
"926 -277 OFFCURVE",
"813 -301 OFFCURVE",
"699 -300 CURVE SMOOTH",
"404 -297 OFFCURVE",
"267 -126 OFFCURVE",
"235 107 CURVE SMOOTH",
"200 360 OFFCURVE",
"261 641 OFFCURVE",
"406 881 CURVE SMOOTH",
"551 1120 OFFCURVE",
"772 1280 OFFCURVE",
"1061 1275 CURVE SMOOTH",
"1360 1271 OFFCURVE",
"1498 1109 OFFCURVE",
"1531 881 CURVE SMOOTH",
"1554 717 OFFCURVE",
"1537 534 OFFCURVE",
"1486 378 CURVE SMOOTH",
"1434 222 OFFCURVE",
"1354 115 OFFCURVE",
"1225 120 CURVE SMOOTH",
"1121 125 OFFCURVE",
"1139 245 OFFCURVE",
"1152 317 CURVE",
"1285 885 LINE",
"1196 948 OFFCURVE",
"1112 990 OFFCURVE",
"1000 991 CURVE SMOOTH",
"896 993 OFFCURVE",
"805 957 OFFCURVE",
"727 884 CURVE SMOOTH",
"570 736 OFFCURVE",
"461 464 OFFCURVE",
"480 229 CURVE SMOOTH",
"489 94 OFFCURVE",
"551 -17 OFFCURVE",
"703 -21 CURVE SMOOTH",
"818 -24 OFFCURVE",
"905 50 OFFCURVE",
"974 133 CURVE",
"998 30 OFFCURVE",
"1087 -20 OFFCURVE",
"1188 -21 CURVE SMOOTH",
"1287 -24 OFFCURVE",
"1371 3 OFFCURVE",
"1438 58 CURVE SMOOTH",
"1573 169 OFFCURVE",
"1649 352 OFFCURVE",
"1678 523 CURVE SMOOTH",
"1729 828 OFFCURVE",
"1667 1119 OFFCURVE",
"1470 1292 CURVE SMOOTH",
"1273 1465 OFFCURVE",
"864 1475 OFFCURVE",
"588 1291 CURVE SMOOTH",
"311 1107 OFFCURVE",
"129 793 OFFCURVE",
"72 466 CURVE SMOOTH",
"17 151 OFFCURVE",
"79 -144 OFFCURVE",
"281 -319 CURVE SMOOTH",
"483 -494 OFFCURVE",
"877 -484 OFFCURVE",
"1066 -367 CURVE",
"1037 -228 LINE"
);
},
{
closed = 1;
nodes = (
"677 396 OFFCURVE",
"695 481 OFFCURVE",
"724 566 CURVE SMOOTH",
"783 734 OFFCURVE",
"871 843 OFFCURVE",
"1018 838 CURVE SMOOTH",
"1045 837 OFFCURVE",
"1073 831 OFFCURVE",
"1102 820 CURVE",
"972 321 LINE",
"944 246 OFFCURVE",
"861 139 OFFCURVE",
"769 143 CURVE SMOOTH",
"682 146 OFFCURVE",
"663 225 OFFCURVE",
"670 309 CURVE SMOOTH"
);
}
);
width = 1778;
}
);
note = at;
unicode = 0040;
},
{
glyphname = A;
lastChange = "2017-05-19 14:54:14 +0000";
layers = (
{
layerId = "173B8943-1C9C-4036-959A-12BE1501493B";
paths = (
{
closed = 1;
nodes = (
"348 340 LINE",
"894 340 LINE",
"950 0 LINE",
"1198 0 LINE",
"915 1456 LINE",
"693 1456 LINE",
"-93 0 LINE",
"174 0 LINE"
);
},
{
closed = 1;
nodes = (
"860 543 LINE",
"452 543 LINE",
"761 1147 LINE"
);
}
);
width = 1322;
}
);
leftKerningGroup = A;
note = A;
rightKerningGroup = A;
unicode = 0041;
},
{
glyphname = B;
lastChange = "2017-05-19 14:54:14 +0000";
layers = (
{
layerId = "173B8943-1C9C-4036-959A-12BE1501493B";
paths = (
{
closed = 1;
nodes = (
"1128 568 OFFCURVE",
"1075 704 OFFCURVE",
"940 753 CURVE",
"1077 814 OFFCURVE",
"1186 912 OFFCURVE",
"1198 1071 CURVE SMOOTH",
"1219 1346 OFFCURVE",
"1008 1448 OFFCURVE",
"764 1455 CURVE SMOOTH",
"291 1456 LINE",
"39 0 LINE",
"576 0 LINE SMOOTH",
"852 -1 OFFCURVE",
"1098 135 OFFCURVE",
"1119 432 CURVE SMOOTH"
);
},
{
closed = 1;
nodes = (
"884 1249 OFFCURVE",
"968 1197 OFFCURVE",
"949 1057 CURVE SMOOTH",
"928 908 OFFCURVE",
"799 843 OFFCURVE",
"660 842 CURVE SMOOTH",
"431 844 LINE",
"502 1253 LINE",
"756 1252 LINE SMOOTH"
);
},
{
closed = 1;
nodes = (
"854 281 OFFCURVE",
"727 201 OFFCURVE",
"580 201 CURVE SMOOTH",
"320 202 LINE",
"399 657 LINE",
"695 656 LINE SMOOTH",
"834 651 OFFCURVE",
"894 577 OFFCURVE",
"875 434 CURVE SMOOTH"
);
}
);
width = 1254;
}
);
note = B;
rightKerningGroup = B;
unicode = 0042;
},
{
glyphname = C;
lastChange = "2017-05-19 14:54:14 +0000";
layers = (
{
layerId = "173B8943-1C9C-4036-959A-12BE1501493B";
paths = (
{
closed = 1;
nodes = (
"900 289 OFFCURVE",
"789 176 OFFCURVE",
"590 183 CURVE SMOOTH",
"419 190 OFFCURVE",
"360 312 OFFCURVE",
"353 461 CURVE SMOOTH",
"351 502 OFFCURVE",
"351 539 OFFCURVE",
"353 574 CURVE SMOOTH",
"356 642 OFFCURVE",
"377 860 OFFCURVE",
"442 1015 CURVE SMOOTH",
"506 1170 OFFCURVE",
"620 1278 OFFCURVE",
"801 1273 CURVE SMOOTH",
"988 1266 OFFCURVE",
"1041 1143 OFFCURVE",
"1046 974 CURVE",
"1291 974 LINE",
"1285 1121 OFFCURVE",
"1242 1240 OFFCURVE",
"1163 1333 CURVE SMOOTH",
"1003 1518 OFFCURVE",
"662 1513 OFFCURVE",
"471 1383 CURVE SMOOTH",
"279 1253 OFFCURVE",
"164 1028 OFFCURVE",
"128 787 CURVE SMOOTH",
"111 669 LINE SMOOTH",
"97 558 OFFCURVE",
"103 450 OFFCURVE",
"129 346 CURVE SMOOTH",
"180 137 OFFCURVE",
"322 -15 OFFCURVE",
"578 -20 CURVE SMOOTH",
"889 -27 OFFCURVE",
"1142 164 OFFCURVE",
"1187 476 CURVE",
"947 473 LINE"
);
}
);
width = 1297;
}
);
leftKerningGroup = C;
note = C;
rightKerningGroup = C;
unicode = 0043;
},
{
glyphname = D;
lastChange = "2017-05-19 14:54:14 +0000";
layers = (
{
layerId = "173B8943-1C9C-4036-959A-12BE1501493B";
paths = (
{
closed = 1;
nodes = (
"861 0 OFFCURVE",
"1164 285 OFFCURVE",
"1215 709 CURVE SMOOTH",
"1222 767 LINE SMOOTH",
"1235 888 OFFCURVE",
"1225 1001 OFFCURVE",
"1190 1104 CURVE SMOOTH",
"1121 1311 OFFCURVE",
"956 1450 OFFCURVE",
"693 1455 CURVE SMOOTH",
"291 1456 LINE",
"39 0 LINE",
"465 0 LINE SMOOTH"
);
},
{
closed = 1;
nodes = (
"779 1249 OFFCURVE",
"847 1224 OFFCURVE",
"892 1175 CURVE SMOOTH",
"981 1078 OFFCURVE",
"997 920 OFFCURVE",
"977 767 CURVE SMOOTH",
"966 691 LINE SMOOTH",
"926 418 OFFCURVE",
"760 200 OFFCURVE",
"467 201 CURVE SMOOTH",
"320 202 LINE",
"502 1253 LINE",
"687 1252 LINE SMOOTH"
);
}
);
width = 1298;
}
);
note = D;
rightKerningGroup = D;
unicode = 0044;
},
{
glyphname = E;
lastChange = "2017-05-19 14:54:14 +0000";
layers = (
{
layerId = "173B8943-1C9C-4036-959A-12BE1501493B";
paths = (
{
closed = 1;
nodes = (
"999 202 LINE",
"320 202 LINE",
"398 651 LINE",
"978 651 LINE",
"1013 850 LINE",
"432 850 LINE",
"502 1253 LINE",
"1174 1253 LINE",
"1210 1456 LINE",
"291 1456 LINE",
"39 0 LINE",
"964 0 LINE"
);
}
);
width = 1123;
}
);
note = E;
rightKerningGroup = E;
unicode = 0045;
},
{
glyphname = F;
lastChange = "2017-05-19 14:54:14 +0000";
layers = (
{
layerId = "173B8943-1C9C-4036-959A-12BE1501493B";
paths = (
{
closed = 1;
nodes = (
"392 617 LINE",
"960 617 LINE",
"996 819 LINE",
"427 819 LINE",
"502 1253 LINE",
"1154 1253 LINE",
"1190 1456 LINE",
"291 1456 LINE",
"39 0 LINE",
"285 0 LINE"
);
}
);
width = 1092;
}
);
note = F;
unicode = 0046;
},
{
glyphname = G;
lastChange = "2017-05-19 14:54:14 +0000";
layers = (
{
layerId = "173B8943-1C9C-4036-959A-12BE1501493B";
paths = (
{
closed = 1;
nodes = (
"683 556 LINE",
"974 556 LINE",
"920 270 LINE",
"846 209 OFFCURVE",
"750 180 OFFCURVE",
"633 183 CURVE SMOOTH",
"454 187 OFFCURVE",
"381 309 OFFCURVE",
"366 461 CURVE SMOOTH",
"351 598 OFFCURVE",
"368 811 OFFCURVE",
"436 988 CURVE SMOOTH",
"504 1164 OFFCURVE",
"621 1280 OFFCURVE",
"812 1273 CURVE SMOOTH",
"977 1268 OFFCURVE",
"1050 1166 OFFCURVE",
"1062 1010 CURVE",
"1302 1009 LINE",
"1291 1154 OFFCURVE",
"1245 1267 OFFCURVE",
"1164 1349 CURVE SMOOTH",
"1000 1513 OFFCURVE",
"661 1513 OFFCURVE",
"470 1382 CURVE SMOOTH",
"278 1251 OFFCURVE",
"167 1023 OFFCURVE",
"131 775 CURVE SMOOTH",
"118 680 LINE SMOOTH",
"103 563 OFFCURVE",
"111 451 OFFCURVE",
"140 345 CURVE SMOOTH",
"199 133 OFFCURVE",
"352 -16 OFFCURVE",
"615 -20 CURVE SMOOTH",
"808 -23 OFFCURVE",
"1042 27 OFFCURVE",
"1166 190 CURVE",
"1251 747 LINE",
"717 747 LINE"
);
}
);
width = 1353;
}
);
leftKerningGroup = C;
note = G;
unicode = 0047;
},
{
glyphname = H;
lastChange = "2017-05-19 14:54:14 +0000";
layers = (
{
layerId = "173B8943-1C9C-4036-959A-12BE1501493B";
paths = (
{
closed = 1;
nodes = (
"1414 1456 LINE",
"1167 1456 LINE",
"1062 850 LINE",
"432 850 LINE",
"538 1456 LINE",
"292 1456 LINE",
"39 0 LINE",
"285 0 LINE",
"398 648 LINE",
"1027 648 LINE",
"915 0 LINE",
"1162 0 LINE"
);
}
);
width = 1412;
}
);
note = H;
rightKerningGroup = H;
unicode = 0048;
},
{
glyphname = I;
lastChange = "2017-05-19 14:54:14 +0000";
layers = (
{
layerId = "173B8943-1C9C-4036-959A-12BE1501493B";
paths = (
{
closed = 1;
nodes = (
"54 0 LINE",
"300 0 LINE",
"553 1456 LINE",
"307 1456 LINE"
);
}
);
width = 561;
}
);
note = I;
rightKerningGroup = H;
unicode = 0049;
},
{
glyphname = J;
lastChange = "2017-05-19 14:54:14 +0000";
layers = (
{
layerId = "173B8943-1C9C-4036-959A-12BE1501493B";
paths = (
{
closed = 1;
nodes = (
"673 294 OFFCURVE",
"583 177 OFFCURVE",
"432 182 CURVE SMOOTH",
"289 186 OFFCURVE",
"247 287 OFFCURVE",
"255 416 CURVE",
"8 417 LINE",
"-5 149 OFFCURVE",
"149 -16 OFFCURVE",
"417 -21 CURVE SMOOTH",
"701 -26 OFFCURVE",
"904 160 OFFCURVE",
"943 436 CURVE SMOOTH",
"1117 1456 LINE",
"871 1456 LINE",
"697 435 LINE SMOOTH"
);
}
);
width = 1103;
}
);
leftKerningGroup = J;
note = J;
rightKerningGroup = J;
unicode = 004A;
},
{
glyphname = K;
lastChange = "2017-05-19 14:54:14 +0000";
layers = (
{
layerId = "173B8943-1C9C-4036-959A-12BE1501493B";
paths = (
{
closed = 1;
nodes = (
"745 801 LINE",
"1393 1456 LINE",
"1077 1456 LINE",
"572 942 LINE",
"421 786 LINE",
"538 1456 LINE",
"292 1456 LINE",
"39 0 LINE",
"285 0 LINE",
"362 444 LINE",
"563 628 LINE",
"877 0 LINE",
"1153 0 LINE"
);
}
);
width = 1252;
}
);
note = K;
rightKerningGroup = K;
unicode = 004B;
},
{
glyphname = L;
lastChange = "2017-05-19 14:54:14 +0000";
layers = (
{
layerId = "173B8943-1C9C-4036-959A-12BE1501493B";
paths = (
{
closed = 1;
nodes = (
"538 1456 LINE",
"292 1456 LINE",
"39 0 LINE",
"927 0 LINE",
"963 202 LINE",
"320 202 LINE"
);
}
);
width = 1076;
}
);
note = L;
rightKerningGroup = L;
unicode = 004C;
},
{
glyphname = M;
lastChange = "2017-05-19 14:54:14 +0000";
layers = (
{
layerId = "173B8943-1C9C-4036-959A-12BE1501493B";
paths = (
{
closed = 1;
nodes = (
"291 1456 LINE",
"39 0 LINE",
"285 0 LINE",
"366 467 LINE",
"457 1134 LINE",
"680 0 LINE",
"857 0 LINE",
"1457 1098 LINE",
"1329 493 LINE",
"1244 0 LINE",
"1490 0 LINE",
"1742 1456 LINE",
"1417 1456 LINE",
"818 342 LINE",
"605 1456 LINE"
);
}
);
width = 1739;
}
);
note = M;
rightKerningGroup = H;
unicode = 004D;
},
{
glyphname = N;
lastChange = "2017-05-19 14:54:14 +0000";
layers = (
{
layerId = "173B8943-1C9C-4036-959A-12BE1501493B";
paths = (
{
closed = 1;
nodes = (
"987 410 LINE",
"530 1456 LINE",
"291 1456 LINE",
"39 0 LINE",
"285 0 LINE",
"466 1043 LINE",
"922 0 LINE",
"1161 0 LINE",
"1414 1456 LINE",
"1168 1456 LINE"
);
}
);
width = 1411;
}
);
note = N;
rightKerningGroup = H;
unicode = 004E;
},
{
glyphname = O;
lastChange = "2017-05-19 14:54:14 +0000";
layers = (
{
layerId = "173B8943-1C9C-4036-959A-12BE1501493B";
paths = (
{
closed = 1;
nodes = (
"1327 993 OFFCURVE",
"1280 1225 OFFCURVE",
"1130 1366 CURVE SMOOTH",
"980 1507 OFFCURVE",
"668 1514 OFFCURVE",
"473 1379 CURVE SMOOTH",
"278 1243 OFFCURVE",
"160 1008 OFFCURVE",
"125 765 CURVE SMOOTH",
"116 691 LINE SMOOTH",
"88 463 OFFCURVE",
"138 233 OFFCURVE",
"288 91 CURVE SMOOTH",
"438 -51 OFFCURVE",
"751 -58 OFFCURVE",
"946 78 CURVE SMOOTH",
"1141 213 OFFCURVE",
"1257 447 OFFCURVE",
"1290 692 CURVE SMOOTH",
"1300 764 LINE SMOOTH"
);
},
{
closed = 1;
nodes = (
"1068 828 OFFCURVE",
"1046 623 OFFCURVE",
"979 460 CURVE SMOOTH",
"912 297 OFFCURVE",
"796 180 OFFCURVE",
"609 187 CURVE SMOOTH",
"436 194 OFFCURVE",
"370 321 OFFCURVE",
"359 476 CURVE SMOOTH",
"347 631 OFFCURVE",
"370 834 OFFCURVE",
"438 996 CURVE SMOOTH",
"505 1158 OFFCURVE",
"623 1275 OFFCURVE",
"807 1268 CURVE SMOOTH",
"983 1261 OFFCURVE",
"1048 1136 OFFCURVE",
"1059 983 CURVE SMOOTH"
);
}
);
width = 1372;
}
);
leftKerningGroup = C;
note = O;
rightKerningGroup = D;
unicode = 004F;
},
{
glyphname = P;
lastChange = "2017-05-19 14:54:14 +0000";
layers = (
{
layerId = "173B8943-1C9C-4036-959A-12BE1501493B";
paths = (
{
closed = 1;
nodes = (
"983 540 OFFCURVE",
"1239 688 OFFCURVE",
"1266 1001 CURVE SMOOTH",
"1290 1284 OFFCURVE",
"1086 1450 OFFCURVE",
"818 1455 CURVE SMOOTH",
"291 1456 LINE",
"39 0 LINE",
"285 0 LINE",
"379 541 LINE",
"688 540 LINE SMOOTH"
);
},
{
closed = 1;
nodes = (
"960 1247 OFFCURVE",
"1038 1147 OFFCURVE",
"1019 1000 CURVE SMOOTH",
"996 827 OFFCURVE",
"863 742 OFFCURVE",
"698 742 CURVE SMOOTH",
"414 744 LINE",
"502 1253 LINE",
"811 1252 LINE SMOOTH"
);
}
);
width = 1271;
}
);
note = P;
rightKerningGroup = P;
unicode = 0050;
},
{
glyphname = Q;
lastChange = "2017-05-19 14:54:14 +0000";
layers = (
{
layerId = "173B8943-1C9C-4036-959A-12BE1501493B";
paths = (
{
closed = 1;
nodes = (
"1147 224 OFFCURVE",
"1251 453 OFFCURVE",
"1284 698 CURVE SMOOTH",
"1293 764 LINE SMOOTH",
"1321 993 OFFCURVE",
"1273 1225 OFFCURVE",
"1123 1366 CURVE SMOOTH",
"973 1507 OFFCURVE",
"660 1514 OFFCURVE",
"465 1378 CURVE SMOOTH",
"269 1241 OFFCURVE",
"152 1007 OFFCURVE",
"119 764 CURVE SMOOTH",
"109 691 LINE SMOOTH",
"96 578 OFFCURVE",
"102 468 OFFCURVE",
"129 360 CURVE SMOOTH",
"181 143 OFFCURVE",
"327 -15 OFFCURVE",
"588 -19 CURVE SMOOTH",
"626 -20 OFFCURVE",
"668 -16 OFFCURVE",
"715 -8 CURVE",
"970 -252 LINE",
"1144 -115 LINE",
"935 87 LINE"
);
},
{
closed = 1;
nodes = (
"1055 943 OFFCURVE",
"1056 904 OFFCURVE",
"1055 866 CURVE SMOOTH",
"1053 790 OFFCURVE",
"1035 612 OFFCURVE",
"971 455 CURVE SMOOTH",
"906 298 OFFCURVE",
"790 180 OFFCURVE",
"603 187 CURVE SMOOTH",
"428 194 OFFCURVE",
"364 321 OFFCURVE",
"353 476 CURVE SMOOTH",
"340 662 OFFCURVE",
"366 834 OFFCURVE",
"430 991 CURVE SMOOTH",
"498 1158 OFFCURVE",
"616 1275 OFFCURVE",
"801 1268 CURVE SMOOTH",
"976 1261 OFFCURVE",
"1041 1136 OFFCURVE",
"1052 983 CURVE SMOOTH"
);
}
);
width = 1372;
}
);
leftKerningGroup = C;
note = Q;
unicode = 0051;
},
{
glyphname = R;
lastChange = "2017-05-19 14:54:14 +0000";
layers = (
{
layerId = "173B8943-1C9C-4036-959A-12BE1501493B";
paths = (
{
closed = 1;
nodes = (
"1110 15 LINE",
"895 617 LINE",
"1079 689 OFFCURVE",
"1205 822 OFFCURVE",
"1222 1025 CURVE SMOOTH",
"1246 1313 OFFCURVE",
"1042 1450 OFFCURVE",
"774 1455 CURVE SMOOTH",
"291 1456 LINE",
"39 0 LINE",
"285 0 LINE",
"383 561 LINE",
"662 561 LINE",
"847 0 LINE",
"1109 0 LINE"
);
},
{
closed = 1;
nodes = (
"916 1247 OFFCURVE",
"994 1163 OFFCURVE",
"974 1014 CURVE SMOOTH",
"953 849 OFFCURVE",
"815 763 OFFCURVE",
"656 762 CURVE SMOOTH",
"417 764 LINE",
"502 1253 LINE",
"768 1252 LINE SMOOTH"
);
}
);
width = 1241;
}
);
note = R;
unicode = 0052;
},
{
glyphname = S;
lastChange = "2017-05-19 14:54:14 +0000";
layers = (
{
layerId = "173B8943-1C9C-4036-959A-12BE1501493B";
paths = (
{
closed = 1;
nodes = (
"819 236 OFFCURVE",
"681 177 OFFCURVE",
"545 180 CURVE SMOOTH",
"378 183 OFFCURVE",
"275 269 OFFCURVE",
"286 440 CURVE",
"39 441 LINE",
"30 150 OFFCURVE",
"259 -16 OFFCURVE",
"534 -20 CURVE SMOOTH",
"706 -24 OFFCURVE",
"881 31 OFFCURVE",
"993 152 CURVE SMOOTH",
"1105 272 OFFCURVE",
"1115 480 OFFCURVE",
"1046 595 CURVE SMOOTH",
"977 710 OFFCURVE",
"847 784 OFFCURVE",
"683 841 CURVE SMOOTH",
"600 870 OFFCURVE",
"544 895 OFFCURVE",
"514 917 CURVE SMOOTH",
"454 961 OFFCURVE",
"435 1005 OFFCURVE",
"444 1066 CURVE SMOOTH",
"454 1139 OFFCURVE",
"488 1192 OFFCURVE",
"547 1226 CURVE SMOOTH",
"663 1294 OFFCURVE",
"978 1350 OFFCURVE",
"959 1031 CURVE",
"1205 1030 LINE",
"1214 1303 OFFCURVE",
"1015 1471 OFFCURVE",
"750 1476 CURVE SMOOTH",
"582 1479 OFFCURVE",
"405 1420 OFFCURVE",
"293 1297 CURVE SMOOTH",
"180 1174 OFFCURVE",
"170 971 OFFCURVE",
"247 860 CURVE SMOOTH",
"324 748 OFFCURVE",
"460 678 OFFCURVE",
"597 630 CURVE SMOOTH",
"733 581 OFFCURVE",
"865 536 OFFCURVE",
"842 383 CURVE SMOOTH"
);
}
);
width = 1200;
}
);
leftKerningGroup = S;
note = S;
unicode = 0053;
},
{
glyphname = T;
lastChange = "2017-05-19 14:54:14 +0000";
layers = (
{
layerId = "173B8943-1C9C-4036-959A-12BE1501493B";
paths = (
{
closed = 1;
nodes = (
"374 0 LINE",
"621 0 LINE",
"838 1253 LINE",
"1277 1253 LINE",
"1313 1456 LINE",
"191 1456 LINE",
"155 1253 LINE",
"592 1253 LINE"
);
}
);
width = 1207;
}
);
leftKerningGroup = T;
note = T;
rightKerningGroup = T;
unicode = 0054;
},
{
glyphname = U;
lastChange = "2017-05-19 14:54:14 +0000";
layers = (
{
layerId = "173B8943-1C9C-4036-959A-12BE1501493B";
paths = (
{
closed = 1;
nodes = (
"883 297 OFFCURVE",
"762 175 OFFCURVE",
"573 182 CURVE SMOOTH",
"392 187 OFFCURVE",
"328 314 OFFCURVE",
"349 482 CURVE",
"514 1456 LINE",
"269 1456 LINE",
"104 483 LINE",
"69 182 OFFCURVE",
"262 -17 OFFCURVE",
"559 -22 CURVE SMOOTH",
"875 -27 OFFCURVE",
"1117 171 OFFCURVE",
"1161 484 CURVE SMOOTH",
"1326 1456 LINE",
"1079 1456 LINE",
"912 477 LINE SMOOTH"
);
}
);
width = 1296;
}
);
leftKerningGroup = U;
note = U;
rightKerningGroup = J;
unicode = 0055;
},
{
glyphname = V;
lastChange = "2017-05-19 14:54:14 +0000";
layers = (
{
layerId = "173B8943-1C9C-4036-959A-12BE1501493B";
paths = (
{
closed = 1;
nodes = (
"593 320 LINE",
"416 1456 LINE",
"154 1456 LINE",
"433 0 LINE",
"672 0 LINE",
"1408 1456 LINE",
"1128 1456 LINE"
);
}
);
width = 1286;
}
);
leftKerningGroup = V;
note = V;
rightKerningGroup = V;
unicode = 0056;
},
{
glyphname = W;
lastChange = "2017-05-19 14:54:14 +0000";
layers = (
{
layerId = "173B8943-1C9C-4036-959A-12BE1501493B";
paths = (
{
closed = 1;
nodes = (
"1211 363 LINE",
"1116 1456 LINE",
"909 1456 LINE",
"470 372 LINE",
"422 1456 LINE",
"183 1456 LINE",
"281 0 LINE",
"518 0 LINE",
"958 1059 LINE",
"1059 0 LINE",
"1296 0 LINE",
"1849 1456 LINE",
"1598 1456 LINE"
);
}
);
width = 1749;
}
);
leftKerningGroup = W;
note = W;
rightKerningGroup = W;
unicode = 0057;
},
{
glyphname = X;
lastChange = "2017-05-19 14:54:14 +0000";
layers = (
{
layerId = "173B8943-1C9C-4036-959A-12BE1501493B";
paths = (
{
closed = 1;
nodes = (
"499 746 LINE",
"-62 0 LINE",
"238 0 LINE",
"626 534 LINE",
"846 0 LINE",
"1120 0 LINE",
"801 723 LINE",
"1350 1456 LINE",
"1052 1456 LINE",
"675 931 LINE",
"461 1456 LINE",
"189 1456 LINE"
);
}
);
width = 1257;
}
);
leftKerningGroup = X;
note = X;
rightKerningGroup = X;
unicode = 0058;
},
{
glyphname = Y;
lastChange = "2017-05-19 14:54:14 +0000";
layers = (
{
layerId = "173B8943-1C9C-4036-959A-12BE1501493B";
paths = (
{
closed = 1;
nodes = (
"472 549 LINE",
"376 0 LINE",
"624 0 LINE",
"715 523 LINE",
"1357 1456 LINE",
"1071 1456 LINE",
"627 769 LINE",
"423 1456 LINE",
"162 1456 LINE"
);
}
);
width = 1211;
}
);
leftKerningGroup = Y;
note = Y;
rightKerningGroup = Y;
unicode = 0059;
},
{
glyphname = Z;
lastChange = "2017-05-19 14:54:14 +0000";
layers = (
{
layerId = "173B8943-1C9C-4036-959A-12BE1501493B";
paths = (
{
closed = 1;
nodes = (
"3 176 LINE",
"-28 0 LINE",
"1025 0 LINE",
"1061 202 LINE",
"314 202 LINE",
"1224 1284 LINE",
"1254 1456 LINE",
"230 1456 LINE",
"195 1253 LINE",
"913 1253 LINE"
);
}
);
width = 1197;
}
);
leftKerningGroup = Z;
note = Z;
rightKerningGroup = Z;
unicode = 005A;
},
{
glyphname = bracketleft;
lastChange = "2017-05-19 14:54:14 +0000";
layers = (
{
layerId = "173B8943-1C9C-4036-959A-12BE1501493B";
paths = (
{
closed = 1;
nodes = (
"-18 -325 LINE",
"380 -325 LINE",
"410 -135 LINE",
"249 -135 LINE",
"503 1489 LINE",
"663 1489 LINE",
"694 1679 LINE",
"295 1679 LINE"
);
}
);
width = 545;
}
);
note = bracketleft;
unicode = 005B;
},
{
glyphname = backslash;
lastChange = "2017-05-19 14:54:14 +0000";
layers = (
{
layerId = "173B8943-1C9C-4036-959A-12BE1501493B";
paths = (
{
closed = 1;
nodes = (
"396 1456 LINE",
"172 1456 LINE",
"488 -125 LINE",
"712 -125 LINE"
);
}
);
width = 830;
}
);
note = backslash;
unicode = 005C;
},
{
glyphname = bracketright;
lastChange = "2017-05-19 14:54:14 +0000";
layers = (
{
layerId = "173B8943-1C9C-4036-959A-12BE1501493B";
paths = (
{
closed = 1;
nodes = (
"58 -135 LINE",
"-103 -135 LINE",
"-133 -325 LINE",
"266 -325 LINE",
"579 1679 LINE",
"181 1679 LINE",
"151 1489 LINE",
"312 1489 LINE"
);
}
);
width = 545;
}
);
note = bracketright;
unicode = 005D;
},
{
glyphname = asciicircum;
lastChange = "2017-05-19 14:54:14 +0000";
layers = (
{
layerId = "173B8943-1C9C-4036-959A-12BE1501493B";
paths = (
{
closed = 1;
nodes = (
"532 1190 LINE",
"623 729 LINE",
"814 729 LINE",
"651 1456 LINE",
"483 1456 LINE",
"67 729 LINE",
"279 729 LINE"
);
}
);
width = 850;
}
);
note = asciicircum;
unicode = 005E;
},
{
glyphname = underscore;
lastChange = "2017-05-19 14:54:14 +0000";
layers = (
{
layerId = "173B8943-1C9C-4036-959A-12BE1501493B";
paths = (
{
closed = 1;
nodes = (
"-136 -192 LINE",
"756 -192 LINE",
"790 0 LINE",
"-102 0 LINE"
);
}
);
width = 896;
}
);
note = underscore;
unicode = 005F;
},
{
glyphname = grave;
lastChange = "2017-05-19 14:54:14 +0000";
layers = (
{
layerId = "173B8943-1C9C-4036-959A-12BE1501493B";
paths = (
{
closed = 1;
nodes = (
"417 1234 LINE",
"598 1234 LINE",
"455 1536 LINE",
"201 1536 LINE"
);
}
);
width = 640;
}
);
note = grave;
unicode = 0060;
},
{
glyphname = a;
lastChange = "2017-05-19 14:54:14 +0000";
layers = (
{
layerId = "173B8943-1C9C-4036-959A-12BE1501493B";
paths = (
{
closed = 1;
nodes = (
"892 18 LINE",
"880 55 OFFCURVE",
"875 94 OFFCURVE",
"877 134 CURVE",
"884 216 LINE",
"968 730 LINE",
"979 846 OFFCURVE",
"950 937 OFFCURVE",
"881 1002 CURVE SMOOTH",
"741 1132 OFFCURVE",
"543 1116 OFFCURVE",
"404 1069 CURVE SMOOTH",
"264 1021 OFFCURVE",
"154 921 OFFCURVE",
"145 769 CURVE",
"381 771 LINE",
"401 868 OFFCURVE",
"489 920 OFFCURVE",
"586 919 CURVE SMOOTH",
"698 916 OFFCURVE",
"745 839 OFFCURVE",
"730 734 CURVE SMOOTH",
"717 661 LINE",
"561 662 LINE SMOOTH",
"401 662 OFFCURVE",
"232 622 OFFCURVE",
"125 515 CURVE SMOOTH",
"17 408 OFFCURVE",
"-2 184 OFFCURVE",
"126 69 CURVE SMOOTH",
"253 -47 OFFCURVE",
"470 -63 OFFCURVE",
"647 102 CURVE",
"647 51 LINE",
"648 34 OFFCURVE",
"650 17 OFFCURVE",
"655 0 CURVE",
"891 0 LINE"
);
},
{
closed = 1;
nodes = (
"324 175 OFFCURVE",
"267 231 OFFCURVE",
"278 320 CURVE SMOOTH",
"298 471 OFFCURVE",
"456 509 OFFCURVE",
"584 510 CURVE SMOOTH",
"697 509 LINE",
"660 304 LINE",
"600 227 OFFCURVE",
"512 171 OFFCURVE",
"412 174 CURVE SMOOTH"
);
}
);
width = 1076;
}
);
leftKerningGroup = a;
note = a;
rightKerningGroup = a;
unicode = 0061;
},
{
glyphname = b;
lastChange = "2017-05-19 14:54:14 +0000";
layers = (
{
layerId = "173B8943-1C9C-4036-959A-12BE1501493B";
paths = (
{
closed = 1;
nodes = (
"649 -23 OFFCURVE",
"737 5 OFFCURVE",
"807 64 CURVE SMOOTH",
"927 165 OFFCURVE",
"1002 322 OFFCURVE",
"1031 537 CURVE SMOOTH",
"1033 553 LINE SMOOTH",
"1050 716 OFFCURVE",
"1027 897 OFFCURVE",
"925 1012 CURVE SMOOTH",
"823 1127 OFFCURVE",
"572 1148 OFFCURVE",
"411 976 CURVE",
"519 1536 LINE",
"282 1536 LINE",
"16 0 LINE",
"233 0 LINE",
"271 119 LINE",
"334 26 OFFCURVE",
"433 -18 OFFCURVE",
"544 -21 CURVE SMOOTH"
);
},
{
closed = 1;
nodes = (
"689 903 OFFCURVE",
"733 883 OFFCURVE",
"758 844 CURVE SMOOTH",
"809 766 OFFCURVE",
"807 645 OFFCURVE",
"796 553 CURVE SMOOTH",
"773 392 OFFCURVE",
"731 291 OFFCURVE",
"651 225 CURVE SMOOTH",
"571 159 OFFCURVE",
"369 138 OFFCURVE",
"308 319 CURVE",
"385 765 LINE",
"450 861 OFFCURVE",
"531 908 OFFCURVE",
"627 905 CURVE SMOOTH"
);
}
);
width = 1118;
}
);
note = b;
rightKerningGroup = b;
unicode = 0062;
},
{
glyphname = c;
lastChange = "2017-05-19 14:54:14 +0000";
layers = (
{
layerId = "173B8943-1C9C-4036-959A-12BE1501493B";
paths = (
{
closed = 1;
nodes = (
"359 177 OFFCURVE",
"310 262 OFFCURVE",
"301 369 CURVE SMOOTH",
"281 605 OFFCURVE",
"354 916 OFFCURVE",
"602 908 CURVE SMOOTH",
"725 903 OFFCURVE",
"779 807 OFFCURVE",
"780 694 CURVE",
"1001 694 LINE",
"1002 929 OFFCURVE",
"856 1097 OFFCURVE",
"616 1102 CURVE SMOOTH",
"324 1110 OFFCURVE",
"109 890 OFFCURVE",
"70 547 CURVE SMOOTH",
"67 521 LINE SMOOTH",
"58 428 OFFCURVE",
"67 340 OFFCURVE",
"93 259 CURVE SMOOTH",
"145 95 OFFCURVE",
"269 -17 OFFCURVE",
"476 -20 CURVE SMOOTH",
"699 -25 OFFCURVE",
"917 127 OFFCURVE",
"941 358 CURVE",
"718 357 LINE",
"691 248 OFFCURVE",
"600 171 OFFCURVE",
"484 174 CURVE SMOOTH"
);
}
);
width = 1041;
}
);
leftKerningGroup = c;
note = c;
rightKerningGroup = c;
unicode = 0063;
},
{
glyphname = d;
lastChange = "2017-05-19 14:54:14 +0000";
layers = (
{
layerId = "173B8943-1C9C-4036-959A-12BE1501493B";
paths = (
{
closed = 1;
nodes = (
"1160 1536 LINE",
"922 1536 LINE",
"818 981 LINE",
"693 1137 OFFCURVE",
"439 1134 OFFCURVE",
"302 1023 CURVE SMOOTH",
"165 911 OFFCURVE",
"90 725 OFFCURVE",
"67 548 CURVE",
"65 526 LINE SMOOTH",
"49 370 OFFCURVE",
"77 187 OFFCURVE",
"180 71 CURVE SMOOTH",
"283 -46 OFFCURVE",
"529 -70 OFFCURVE",
"697 113 CURVE",
"680 0 LINE",
"893 0 LINE"
);
},
{
closed = 1;
nodes = (
"319 659 OFFCURVE",
"362 780 OFFCURVE",
"447 854 CURVE SMOOTH",
"531 928 OFFCURVE",
"727 943 OFFCURVE",
"791 776 CURVE",
"709 312 LINE",
"643 220 OFFCURVE",
"564 176 OFFCURVE",
"473 179 CURVE SMOOTH",
"412 181 OFFCURVE",
"369 202 OFFCURVE",
"344 241 CURVE SMOOTH",
"292 319 OFFCURVE",
"291 436 OFFCURVE",
"302 527 CURVE SMOOTH",
"304 548 LINE"
);
}
);
width = 1122;
}
);
leftKerningGroup = c;
note = d;
unicode = 0064;
},
{
glyphname = e;
lastChange = "2017-05-19 14:54:14 +0000";
layers = (
{
layerId = "173B8943-1C9C-4036-959A-12BE1501493B";
paths = (
{
closed = 1;
nodes = (
"720 217 OFFCURVE",
"626 173 OFFCURVE",
"523 176 CURVE SMOOTH",
"360 180 OFFCURVE",
"291 316 OFFCURVE",
"302 465 CURVE",
"984 465 LINE",
"998 568 LINE SMOOTH",
"1018 749 OFFCURVE",
"976 921 OFFCURVE",
"857 1023 CURVE SMOOTH",
"738 1125 OFFCURVE",
"498 1133 OFFCURVE",
"342 1026 CURVE SMOOTH",
"186 919 OFFCURVE",
"91 735 OFFCURVE",
"71 542 CURVE SMOOTH",
"68 500 LINE SMOOTH",
"45 219 OFFCURVE",
"205 -16 OFFCURVE",
"502 -20 CURVE SMOOTH",
"666 -23 OFFCURVE",
"829 45 OFFCURVE",
"924 182 CURVE",
"804 308 LINE"
);
},
{
closed = 1;
nodes = (
"741 904 OFFCURVE",
"793 787 OFFCURVE",
"774 663 CURVE",
"770 642 LINE",
"323 643 LINE",
"367 772 OFFCURVE",
"447 913 OFFCURVE",
"604 908 CURVE SMOOTH"
);
}
);
width = 1066;
}
);
leftKerningGroup = c;
note = e;
rightKerningGroup = e;
unicode = 0065;
},
{
glyphname = f;
lastChange = "2017-05-19 14:54:14 +0000";
layers = (
{
layerId = "173B8943-1C9C-4036-959A-12BE1501493B";
paths = (
{
closed = 1;
nodes = (
"525 1082 LINE",
"541 1185 LINE SMOOTH",
"562 1302 OFFCURVE",
"630 1361 OFFCURVE",
"747 1360 CURVE SMOOTH",
"772 1360 OFFCURVE",
"802 1357 OFFCURVE",
"837 1350 CURVE",
"863 1540 LINE",
"810 1552 OFFCURVE",
"762 1559 OFFCURVE",
"721 1560 CURVE SMOOTH",
"484 1564 OFFCURVE",
"330 1416 OFFCURVE",
"301 1185 CURVE SMOOTH",
"287 1082 LINE",
"127 1082 LINE",
"95 903 LINE",
"256 903 LINE",
"99 0 LINE",
"337 0 LINE",
"494 903 LINE",
"706 903 LINE",
"738 1082 LINE"
);
}
);
width = 704;
}
);
note = f;
unicode = 0066;
},
{
glyphname = g;
lastChange = "2017-05-19 14:54:14 +0000";
layers = (
{
layerId = "173B8943-1C9C-4036-959A-12BE1501493B";
paths = (
{
closed = 1;
nodes = (
"874 1083 LINE",
"838 973 LINE",
"719 1140 OFFCURVE",
"450 1134 OFFCURVE",
"310 1024 CURVE SMOOTH",
"170 914 OFFCURVE",
"93 728 OFFCURVE",
"70 548 CURVE",
"68 526 LINE SMOOTH",
"52 367 OFFCURVE",
"82 186 OFFCURVE",
"187 71 CURVE SMOOTH",
"291 -45 OFFCURVE",
"529 -63 OFFCURVE",
"694 98 CURVE",
"675 13 LINE SMOOTH",
"656 -64 OFFCURVE",
"620 -125 OFFCURVE",
"567 -170 CURVE SMOOTH",
"460 -262 OFFCURVE",
"247 -276 OFFCURVE",
"116 -101 CURVE",
"-9 -243 LINE",
"78 -360 OFFCURVE",
"225 -422 OFFCURVE",
"370 -426 CURVE SMOOTH",
"658 -434 OFFCURVE",
"871 -254 OFFCURVE",
"911 30 CURVE SMOOTH",
"1091 1082 LINE"
);
},
{
closed = 1;
nodes = (
"323 659 OFFCURVE",
"369 781 OFFCURVE",
"455 854 CURVE SMOOTH",
"541 926 OFFCURVE",
"734 941 OFFCURVE",
"801 782 CURVE",
"718 306 LINE",
"652 218 OFFCURVE",
"573 176 OFFCURVE",
"482 179 CURVE SMOOTH",
"421 181 OFFCURVE",
"378 201 OFFCURVE",
"352 240 CURVE SMOOTH",
"299 317 OFFCURVE",
"295 435 OFFCURVE",
"306 527 CURVE SMOOTH",
"308 548 LINE"
);
}
);
width = 1126;
}
);
leftKerningGroup = c;
note = g;
unicode = 0067;
},
{
glyphname = h;
lastChange = "2017-05-19 14:54:14 +0000";
layers = (
{
layerId = "173B8943-1C9C-4036-959A-12BE1501493B";
paths = (
{
closed = 1;
nodes = (
"749 901 OFFCURVE",
"776 813 OFFCURVE",
"763 700 CURVE",
"645 0 LINE",
"882 0 LINE",
"999 697 LINE",
"1020 909 OFFCURVE",
"949 1098 OFFCURVE",
"713 1101 CURVE SMOOTH",
"599 1104 OFFCURVE",
"497 1057 OFFCURVE",
"406 962 CURVE",
"516 1536 LINE",
"279 1536 LINE",
"13 0 LINE",
"249 0 LINE",
"384 774 LINE",
"453 864 OFFCURVE",
"533 908 OFFCURVE",
"622 905 CURVE SMOOTH"
);
}
);
width = 1103;
}
);
note = h;
rightKerningGroup = h;
unicode = 0068;
},
{
glyphname = i;
lastChange = "2017-05-19 14:54:14 +0000";
layers = (
{
layerId = "173B8943-1C9C-4036-959A-12BE1501493B";
paths = (
{
closed = 1;
nodes = (
"254 1283 OFFCURVE",
"313 1233 OFFCURVE",
"389 1234 CURVE SMOOTH",
"465 1235 OFFCURVE",
"522 1291 OFFCURVE",
"522 1368 CURVE SMOOTH",
"522 1445 OFFCURVE",
"462 1495 OFFCURVE",
"387 1494 CURVE SMOOTH",
"310 1493 OFFCURVE",
"253 1437 OFFCURVE",
"254 1360 CURVE SMOOTH"
);
},
{
closed = 1;
nodes = (
"31 0 LINE",
"268 0 LINE",
"456 1082 LINE",
"219 1082 LINE"
);
}
);
width = 508;
}
);
note = i;
unicode = 0069;
},
{
glyphname = j;
lastChange = "2017-05-19 14:54:14 +0000";
layers = (
{
layerId = "173B8943-1C9C-4036-959A-12BE1501493B";
paths = (
{
closed = 1;
nodes = (
"243 1283 OFFCURVE",
"303 1233 OFFCURVE",
"378 1234 CURVE SMOOTH",
"454 1235 OFFCURVE",
"512 1291 OFFCURVE",
"511 1368 CURVE",
"511 1445 OFFCURVE",
"452 1495 OFFCURVE",
"376 1494 CURVE SMOOTH",
"300 1493 OFFCURVE",
"243 1437 OFFCURVE",
"243 1360 CURVE SMOOTH"
);
},
{
closed = 1;
nodes = (
"-4 -192 OFFCURVE",
"-55 -241 OFFCURVE",
"-139 -240 CURVE SMOOTH",
"-162 -240 OFFCURVE",
"-190 -237 OFFCURVE",
"-225 -230 CURVE",
"-245 -421 LINE",
"-191 -434 OFFCURVE",
"-146 -440 OFFCURVE",
"-109 -440 CURVE SMOOTH",
"108 -443 OFFCURVE",
"227 -300 OFFCURVE",
"252 -95 CURVE",
"451 1082 LINE",
"214 1082 LINE",
"13 -91 LINE SMOOTH"
);
}
);
width = 498;
}
);
note = j;
unicode = 006A;
},
{
glyphname = k;
lastChange = "2017-05-19 14:54:14 +0000";
layers = (
{
layerId = "173B8943-1C9C-4036-959A-12BE1501493B";
paths = (
{
closed = 1;
nodes = (
"617 620 LINE",
"1098 1081 LINE",
"794 1082 LINE",
"450 749 LINE",
"367 664 LINE",
"519 1536 LINE",
"282 1536 LINE",
"16 0 LINE",
"253 0 LINE",
"312 344 LINE",
"448 464 LINE",
"677 0 LINE",
"934 0 LINE"
);
}
);
width = 1037;
}
);
note = k;
unicode = 006B;
},
{
glyphname = l;
lastChange = "2017-05-19 14:54:14 +0000";
layers = (
{
layerId = "173B8943-1C9C-4036-959A-12BE1501493B";
paths = (
{
closed = 1;
nodes = (
"31 0 LINE",
"268 0 LINE",
"535 1536 LINE",
"298 1536 LINE"
);
}
);
width = 508;
}
);
note = l;
unicode = 006C;
},
{
glyphname = m;
lastChange = "2017-05-19 14:54:14 +0000";
layers = (
{
layerId = "173B8943-1C9C-4036-959A-12BE1501493B";
paths = (
{
closed = 1;
nodes = (
"739 902 OFFCURVE",
"771 816 OFFCURVE",
"758 701 CURVE",
"640 0 LINE",
"878 0 LINE",
"1002 721 LINE",
"1005 743 LINE",
"1060 854 OFFCURVE",
"1137 908 OFFCURVE",
"1237 905 CURVE SMOOTH",
"1366 904 OFFCURVE",
"1398 822 OFFCURVE",
"1385 703 CURVE",
"1267 0 LINE",
"1504 0 LINE",
"1621 701 LINE",
"1632 808 OFFCURVE",
"1616 902 OFFCURVE",
"1573 981 CURVE SMOOTH",
"1485 1139 OFFCURVE",
"1183 1162 OFFCURVE",
"984 937 CURVE",
"945 1052 OFFCURVE",
"839 1099 OFFCURVE",
"724 1102 CURVE SMOOTH",
"599 1105 OFFCURVE",
"492 1060 OFFCURVE",
"403 968 CURVE",
"424 1083 LINE",
"203 1082 LINE",
"16 0 LINE",
"252 0 LINE",
"389 786 LINE",
"450 867 OFFCURVE",
"524 906 OFFCURVE",
"612 905 CURVE SMOOTH"
);
}
);
width = 1730;
}
);
leftKerningGroup = m;
note = m;
rightKerningGroup = h;
unicode = 006D;
},
{
glyphname = n;
lastChange = "2017-05-19 14:54:14 +0000";
layers = (
{
layerId = "173B8943-1C9C-4036-959A-12BE1501493B";
paths = (
{
closed = 1;
nodes = (
"748 902 OFFCURVE",
"776 818 OFFCURVE",
"763 703 CURVE",
"645 0 LINE",
"882 0 LINE",
"999 700 LINE",
"1010 805 OFFCURVE",
"995 897 OFFCURVE",
"955 978 CURVE SMOOTH",
"875 1139 OFFCURVE",
"579 1153 OFFCURVE",
"400 957 CURVE",
"423 1083 LINE",
"200 1082 LINE",
"13 0 LINE",
"250 0 LINE",
"385 773 LINE",
"455 864 OFFCURVE",
"534 908 OFFCURVE",
"621 905 CURVE SMOOTH"
);
}
);
width = 1105;
}
);
leftKerningGroup = m;
note = n;
rightKerningGroup = h;
unicode = 006E;
},
{
glyphname = o;
lastChange = "2017-05-19 14:54:14 +0000";
layers = (
{
layerId = "173B8943-1C9C-4036-959A-12BE1501493B";
paths = (
{
closed = 1;
nodes = (
"58 430 OFFCURVE",
"68 342 OFFCURVE",
"96 260 CURVE SMOOTH",
"152 96 OFFCURVE",
"282 -16 OFFCURVE",
"486 -20 CURVE SMOOTH",
"785 -28 OFFCURVE",
"1012 209 OFFCURVE",
"1045 553 CURVE SMOOTH",
"1062 741 OFFCURVE",
"1007 916 OFFCURVE",
"877 1021 CURVE SMOOTH",
"747 1125 OFFCURVE",
"504 1132 OFFCURVE",
"345 1029 CURVE SMOOTH",
"186 925 OFFCURVE",
"90 744 OFFCURVE",
"69 545 CURVE",
"66 524 LINE"
);
},
{
closed = 1;
nodes = (
"318 656 OFFCURVE",
"364 779 OFFCURVE",
"450 855 CURVE SMOOTH",
"536 930 OFFCURVE",
"691 924 OFFCURVE",
"750 847 CURVE SMOOTH",
"809 770 OFFCURVE",
"818 650 OFFCURVE",
"807 553 CURVE SMOOTH",
"805 532 LINE SMOOTH",
"792 421 OFFCURVE",
"746 299 OFFCURVE",
"661 226 CURVE SMOOTH",
"576 153 OFFCURVE",
"420 158 OFFCURVE",
"361 233 CURVE SMOOTH",
"302 308 OFFCURVE",
"292 426 OFFCURVE",
"303 523 CURVE SMOOTH",
"305 545 LINE SMOOTH"
);
}
);
width = 1131;
}
);
leftKerningGroup = o;
note = o;
rightKerningGroup = o;
unicode = 006F;
},
{
glyphname = p;
lastChange = "2017-05-19 14:54:14 +0000";
layers = (
{
layerId = "173B8943-1C9C-4036-959A-12BE1501493B";
paths = (
{
closed = 1;
nodes = (
"640 -23 OFFCURVE",
"721 1 OFFCURVE",
"788 51 CURVE SMOOTH",
"921 150 OFFCURVE",
"1002 318 OFFCURVE",
"1033 554 CURVE SMOOTH",
"1049 715 OFFCURVE",
"1026 897 OFFCURVE",
"924 1012 CURVE SMOOTH",
"822 1127 OFFCURVE",
"569 1149 OFFCURVE",
"402 972 CURVE",
"420 1083 LINE",
"204 1082 LINE",
"-56 -416 LINE",
"181 -416 LINE",
"278 99 LINE",
"343 22 OFFCURVE",
"432 -18 OFFCURVE",
"544 -21 CURVE SMOOTH"
);
},
{
closed = 1;
nodes = (
"682 903 OFFCURVE",
"726 882 OFFCURVE",
"752 843 CURVE SMOOTH",
"804 764 OFFCURVE",
"804 644 OFFCURVE",
"795 553 CURVE",
"777 426 OFFCURVE",
"742 331 OFFCURVE",
"689 267 CURVE SMOOTH",
"584 138 OFFCURVE",
"369 137 OFFCURVE",
"305 300 CURVE",
"389 780 LINE",
"454 866 OFFCURVE",
"532 908 OFFCURVE",
"621 905 CURVE SMOOTH"
);
}
);
width = 1118;
}
);
leftKerningGroup = m;
note = p;
rightKerningGroup = b;
unicode = 0070;
},
{
glyphname = q;
lastChange = "2017-05-19 14:54:14 +0000";
layers = (
{
layerId = "173B8943-1C9C-4036-959A-12BE1501493B";
paths = (
{
closed = 1;
nodes = (
"828 974 LINE",
"704 1139 OFFCURVE",
"441 1133 OFFCURVE",
"303 1024 CURVE SMOOTH",
"165 915 OFFCURVE",
"90 730 OFFCURVE",
"67 549 CURVE",
"65 527 LINE SMOOTH",
"49 368 OFFCURVE",
"76 186 OFFCURVE",
"180 70 CURVE SMOOTH",
"283 -46 OFFCURVE",
"521 -62 OFFCURVE",
"681 94 CURVE",
"583 -416 LINE",
"820 -416 LINE",
"1080 1082 LINE",
"865 1083 LINE"
);
},
{
closed = 1;
nodes = (
"320 658 OFFCURVE",
"364 782 OFFCURVE",
"449 856 CURVE SMOOTH",
"533 930 OFFCURVE",
"724 943 OFFCURVE",
"792 790 CURVE",
"706 297 LINE",
"639 212 OFFCURVE",
"562 172 OFFCURVE",
"474 175 CURVE SMOOTH",
"413 177 OFFCURVE",
"370 198 OFFCURVE",
"345 238 CURVE SMOOTH",
"293 317 OFFCURVE",
"291 437 OFFCURVE",
"302 528 CURVE SMOOTH",
"304 549 LINE"
);
}
);
width = 1128;
}
);
leftKerningGroup = c;
note = q;
unicode = 0071;
},
{
glyphname = r;
lastChange = "2017-05-19 14:54:14 +0000";
layers = (
{
layerId = "173B8943-1C9C-4036-959A-12BE1501493B";
paths = (
{
closed = 1;
nodes = (
"654 870 OFFCURVE",
"684 867 OFFCURVE",
"723 860 CURVE",
"747 1092 LINE",
"709 1101 OFFCURVE",
"679 1105 OFFCURVE",
"657 1105 CURVE SMOOTH",
"558 1106 OFFCURVE",
"473 1058 OFFCURVE",
"404 960 CURVE",
"428 1083 LINE",
"203 1082 LINE",
"16 0 LINE",
"252 0 LINE",
"382 741 LINE",
"442 828 OFFCURVE",
"525 871 OFFCURVE",
"631 870 CURVE SMOOTH"
);
}
);
width = 698;
}
);
note = r;
rightKerningGroup = r;
unicode = 0072;
},
{
glyphname = s;
lastChange = "2017-05-19 14:54:14 +0000";
layers = (
{
layerId = "173B8943-1C9C-4036-959A-12BE1501493B";
paths = (
{
closed = 1;
nodes = (
"646 199 OFFCURVE",
"537 163 OFFCURVE",
"446 163 CURVE SMOOTH",
"322 164 OFFCURVE",
"259 224 OFFCURVE",
"258 342 CURVE",
"29 343 LINE",
"28 112 OFFCURVE",
"221 -16 OFFCURVE",
"437 -20 CURVE SMOOTH",
"574 -23 OFFCURVE",
"723 23 OFFCURVE",
"818 123 CURVE SMOOTH",
"913 223 OFFCURVE",
"911 387 OFFCURVE",
"858 467 CURVE SMOOTH",
"805 547 OFFCURVE",
"702 599 OFFCURVE",
"536 642 CURVE SMOOTH",
"453 663 OFFCURVE",
"402 683 OFFCURVE",
"385 702 CURVE SMOOTH",
"368 720 OFFCURVE",
"361 745 OFFCURVE",
"366 778 CURVE SMOOTH",
"381 874 OFFCURVE",
"475 920 OFFCURVE",
"566 919 CURVE SMOOTH",
"666 918 OFFCURVE",
"727 857 OFFCURVE",
"726 758 CURVE",
"961 757 LINE",
"962 869 OFFCURVE",
"924 954 OFFCURVE",
"847 1013 CURVE SMOOTH",
"692 1129 OFFCURVE",
"506 1117 OFFCURVE",
"374 1067 CURVE SMOOTH",
"242 1017 OFFCURVE",
"143 916 OFFCURVE",
"136 767 CURVE SMOOTH",
"129 612 OFFCURVE",
"238 515 OFFCURVE",
"475 454 CURVE SMOOTH",
"552 434 OFFCURVE",
"681 408 OFFCURVE",
"662 300 CURVE SMOOTH"
);
}
);
width = 1026;
}
);
leftKerningGroup = s;
note = s;
unicode = 0073;
},
{
glyphname = t;
lastChange = "2017-05-19 14:54:14 +0000";
layers = (
{
layerId = "173B8943-1C9C-4036-959A-12BE1501493B";
paths = (
{
closed = 1;
nodes = (
"499 187 OFFCURVE",
"470 184 OFFCURVE",
"446 184 CURVE",
"374 187 OFFCURVE",
"360 229 OFFCURVE",
"367 296 CURVE",
"470 903 LINE",
"655 903 LINE",
"686 1082 LINE",
"501 1082 LINE",
"547 1345 LINE",
"310 1345 LINE",
"264 1082 LINE",
"91 1082 LINE",
"59 903 LINE",
"233 903 LINE",
"132 284 LINE",
"125 201 OFFCURVE",
"139 131 OFFCURVE",
"176 72 CURVE SMOOTH",
"249 -46 OFFCURVE",
"422 -28 OFFCURVE",
"514 3 CURVE",
"532 193 LINE"
);
}
);
width = 662;
}
);
note = t;
unicode = 0074;
},
{
glyphname = u;
lastChange = "2017-05-19 14:54:14 +0000";
layers = (
{
layerId = "173B8943-1C9C-4036-959A-12BE1501493B";
paths = (
{
closed = 1;
nodes = (
"1069 1082 LINE",
"832 1082 LINE",
"696 303 LINE",
"632 217 OFFCURVE",
"548 176 OFFCURVE",
"443 179 CURVE SMOOTH",
"327 184 OFFCURVE",
"307 280 OFFCURVE",
"318 380 CURVE",
"436 1082 LINE",
"199 1082 LINE",
"82 383 LINE",
"71 277 OFFCURVE",
"88 184 OFFCURVE",
"132 104 CURVE SMOOTH",
"220 -57 OFFCURVE",
"518 -68 OFFCURVE",
"681 107 CURVE",
"660 0 LINE",
"882 0 LINE"
);
}
);
width = 1104;
}
);
leftKerningGroup = u;
note = u;
unicode = 0075;
},
{
glyphname = v;
lastChange = "2017-05-19 14:54:14 +0000";
layers = (
{
layerId = "173B8943-1C9C-4036-959A-12BE1501493B";
paths = (
{
closed = 1;
nodes = (
"443 312 LINE",
"338 1082 LINE",
"101 1082 LINE",
"299 0 LINE",
"505 0 LINE",
"1038 1082 LINE",
"785 1082 LINE"
);
}
);
width = 984;
}
);
leftKerningGroup = v;
note = v;
rightKerningGroup = v;
unicode = 0076;
},
{
glyphname = w;
lastChange = "2017-05-19 14:54:14 +0000";
layers = (
{
layerId = "173B8943-1C9C-4036-959A-12BE1501493B";
paths = (
{
closed = 1;
nodes = (
"992 335 LINE",
"905 1082 LINE",
"725 1082 LINE",
"384 349 LINE",
"343 1082 LINE",
"119 1082 LINE",
"218 0 LINE",
"413 0 LINE",
"763 740 LINE",
"858 0 LINE",
"1053 0 LINE",
"1528 1082 LINE",
"1289 1082 LINE"
);
}
);
width = 1476;
}
);
note = w;
unicode = 0077;
},
{
glyphname = x;
lastChange = "2017-05-19 14:54:14 +0000";
layers = (
{
layerId = "173B8943-1C9C-4036-959A-12BE1501493B";
paths = (
{
closed = 1;
nodes = (
"355 561 LINE",
"-72 0 LINE",
"204 0 LINE",
"470 369 LINE",
"621 0 LINE",
"870 0 LINE",
"629 539 LINE",
"1042 1082 LINE",
"766 1082 LINE",
"511 728 LINE",
"371 1082 LINE",
"122 1082 LINE"
);
}
);
width = 1000;
}
);
leftKerningGroup = x;
note = x;
rightKerningGroup = x;
unicode = 0078;
},
{
glyphname = y;
lastChange = "2017-05-19 14:54:14 +0000";
layers = (
{
layerId = "173B8943-1C9C-4036-959A-12BE1501493B";
paths = (
{
closed = 1;
nodes = (
"780 1082 LINE",
"439 349 LINE",
"346 1082 LINE",
"99 1082 LINE",
"279 19 LINE",
"220 -93 LINE SMOOTH",
"168 -190 OFFCURVE",
"101 -241 OFFCURVE",
"-14 -237 CURVE",
"-55 -233 LINE",
"-75 -421 LINE",
"-25 -432 OFFCURVE",
"16 -439 OFFCURVE",
"48 -440 CURVE SMOOTH",
"228 -441 OFFCURVE",
"339 -316 OFFCURVE",
"410 -165 CURVE SMOOTH",
"1042 1082 LINE"
);
}
);
width = 967;
}
);
leftKerningGroup = v;
note = y;
rightKerningGroup = v;
unicode = 0079;
},
{
glyphname = z;
lastChange = "2017-05-19 14:54:14 +0000";
layers = (
{
layerId = "173B8943-1C9C-4036-959A-12BE1501493B";
paths = (
{
closed = 1;
nodes = (
"4 171 LINE",
"-26 0 LINE",
"827 0 LINE",
"861 195 LINE",
"312 195 LINE",
"966 917 LINE",
"995 1082 LINE",
"173 1082 LINE",
"138 886 LINE",
"653 886 LINE"
);
}
);
width = 1000;
}
);
leftKerningGroup = z;
note = z;
rightKerningGroup = z;
unicode = 007A;
},
{
glyphname = braceleft;
lastChange = "2017-05-19 14:54:14 +0000";
layers = (
{
layerId = "173B8943-1C9C-4036-959A-12BE1501493B";
paths = (
{
closed = 1;
nodes = (
"142 -117 OFFCURVE",
"239 -287 OFFCURVE",
"454 -358 CURVE",
"510 -220 LINE",
"375 -161 OFFCURVE",
"372 -24 OFFCURVE",
"388 105 CURVE SMOOTH",
"415 309 LINE SMOOTH",
"427 426 OFFCURVE",
"396 542 OFFCURVE",
"299 614 CURVE",
"426 681 OFFCURVE",
"499 786 OFFCURVE",
"518 929 CURVE SMOOTH",
"545 1132 LINE SMOOTH",
"568 1277 OFFCURVE",
"628 1405 OFFCURVE",
"773 1457 CURVE",
"738 1600 LINE",
"501 1531 OFFCURVE",
"364 1384 OFFCURVE",
"326 1160 CURVE SMOOTH",
"295 938 LINE SMOOTH",
"274 789 OFFCURVE",
"197 711 OFFCURVE",
"64 706 CURVE",
"47 528 LINE",
"178 519 OFFCURVE",
"207 431 OFFCURVE",
"194 310 CURVE SMOOTH",
"166 106 LINE SMOOTH"
);
}
);
width = 666;
}
);
note = braceleft;
unicode = 007B;
},
{
glyphname = bar;
lastChange = "2017-05-19 14:54:14 +0000";
layers = (
{
layerId = "173B8943-1C9C-4036-959A-12BE1501493B";
paths = (
{
closed = 1;
nodes = (
"32 -270 LINE",
"197 -270 LINE",
"467 1456 LINE",
"302 1456 LINE"
);
}
);
width = 499;
}
);
note = bar;
unicode = 007C;
},
{
glyphname = braceright;
lastChange = "2017-05-19 14:54:14 +0000";
layers = (
{
layerId = "173B8943-1C9C-4036-959A-12BE1501493B";
paths = (
{
closed = 1;
nodes = (
"528 1355 OFFCURVE",
"431 1524 OFFCURVE",
"215 1595 CURVE",
"160 1458 LINE",
"293 1399 OFFCURVE",
"297 1262 OFFCURVE",
"281 1133 CURVE SMOOTH",
"254 929 LINE SMOOTH",
"242 809 OFFCURVE",
"276 693 OFFCURVE",
"380 624 CURVE",
"246 559 OFFCURVE",
"170 454 OFFCURVE",
"151 309 CURVE SMOOTH",
"123 107 LINE SMOOTH",
"103 -36 OFFCURVE",
"44 -167 OFFCURVE",
"-103 -219 CURVE",
"-68 -363 LINE",
"169 -294 OFFCURVE",
"306 -146 OFFCURVE",
"344 79 CURVE SMOOTH",
"374 296 LINE SMOOTH",
"395 448 OFFCURVE",
"472 527 OFFCURVE",
"605 532 CURVE",
"623 710 LINE",
"492 719 OFFCURVE",
"463 807 OFFCURVE",
"476 928 CURVE SMOOTH",
"504 1132 LINE SMOOTH"
);
}
);
width = 666;
}
);
note = braceright;
unicode = 007D;
},
{
glyphname = asciitilde;
lastChange = "2017-05-19 14:54:14 +0000";
layers = (
{
layerId = "173B8943-1C9C-4036-959A-12BE1501493B";
paths = (
{
closed = 1;
nodes = (
"1034 693 OFFCURVE",
"982 588 OFFCURVE",
"873 589 CURVE SMOOTH",
"809 590 OFFCURVE",
"761 637 OFFCURVE",
"720 681 CURVE",
"631 770 OFFCURVE",
"542 815 OFFCURVE",
"451 817 CURVE SMOOTH",
"228 822 OFFCURVE",
"108 624 OFFCURVE",
"91 425 CURVE",
"279 426 LINE",
"294 517 OFFCURVE",
"340 617 OFFCURVE",
"448 614 CURVE SMOOTH",
"499 614 OFFCURVE",
"529 598 OFFCURVE",
"604 522 CURVE SMOOTH",
"641 484 OFFCURVE",
"682 452 OFFCURVE",
"725 427 CURVE SMOOTH",
"811 375 OFFCURVE",
"956 365 OFFCURVE",
"1059 444 CURVE SMOOTH",
"1162 523 OFFCURVE",
"1217 657 OFFCURVE",
"1226 789 CURVE",
"1050 785 LINE"
);
}
);
width = 1320;
}
);
note = asciitilde;
unicode = 007E;
},
{
glyphname = exclamdown;
lastChange = "2017-05-19 14:54:14 +0000";
layers = (
{
layerId = "173B8943-1C9C-4036-959A-12BE1501493B";
paths = (
{
closed = 1;
nodes = (
"462 1052 OFFCURVE",
"403 1103 OFFCURVE",
"328 1102 CURVE SMOOTH",
"251 1101 OFFCURVE",
"194 1044 OFFCURVE",
"194 967 CURVE SMOOTH",
"194 890 OFFCURVE",
"253 838 OFFCURVE",
"329 839 CURVE SMOOTH",
"406 840 OFFCURVE",
"463 898 OFFCURVE",
"463 975 CURVE"
);
},
{
closed = 1;
nodes = (
"379 662 LINE",
"175 662 LINE",
"-26 -365 LINE",
"224 -365 LINE"
);
}
);
width = 527;
}
);
note = exclamdown;
unicode = 00A1;
},
{
glyphname = cent;
lastChange = "2017-05-19 14:54:14 +0000";
layers = (
{
layerId = "173B8943-1C9C-4036-959A-12BE1501493B";
paths = (
{
closed = 1;
nodes = (
"708 246 OFFCURVE",
"613 171 OFFCURVE",
"497 174 CURVE SMOOTH",
"372 177 OFFCURVE",
"326 263 OFFCURVE",
"319 370 CURVE SMOOTH",
"312 475 OFFCURVE",
"326 613 OFFCURVE",
"370 722 CURVE SMOOTH",
"414 831 OFFCURVE",
"495 912 OFFCURVE",
"627 907 CURVE SMOOTH",
"750 903 OFFCURVE",
"803 807 OFFCURVE",
"802 694 CURVE",
"1025 694 LINE",
"1026 882 OFFCURVE",
"939 1045 OFFCURVE",
"747 1092 CURVE",
"793 1318 LINE",
"598 1318 LINE",
"552 1093 LINE",
"283 1046 OFFCURVE",
"129 833 OFFCURVE",
"93 572 CURVE SMOOTH",
"86 520 LINE SMOOTH",
"63 295 OFFCURVE",
"130 53 OFFCURVE",
"374 -8 CURVE",
"326 -245 LINE",
"522 -245 LINE",
"569 -11 LINE",
"762 25 OFFCURVE",
"934 151 OFFCURVE",
"957 358 CURVE",
"733 357 LINE"
);
}
);
width = 1115;
}
);
note = cent;
unicode = 00A2;
},
{
glyphname = sterling;
lastChange = "2017-05-19 14:54:14 +0000";
layers = (
{
layerId = "173B8943-1C9C-4036-959A-12BE1501493B";
paths = (
{
closed = 1;
nodes = (
"1046 202 LINE",
"367 199 LINE",
"426 262 OFFCURVE",
"461 336 OFFCURVE",
"473 422 CURVE SMOOTH",
"496 599 LINE",
"790 599 LINE",
"825 798 LINE",
"523 798 LINE",
"552 1037 LINE SMOOTH",
"567 1157 OFFCURVE",
"647 1278 OFFCURVE",
"782 1274 CURVE SMOOTH",
"905 1271 OFFCURVE",
"950 1186 OFFCURVE",
"943 1073 CURVE",
"1182 1072 LINE",
"1191 1313 OFFCURVE",
"1051 1471 OFFCURVE",
"807 1476 CURVE SMOOTH",
"540 1483 OFFCURVE",
"338 1302 OFFCURVE",
"307 1039 CURVE SMOOTH",
"277 798 LINE",
"126 798 LINE",
"91 599 LINE",
"249 599 LINE",
"224 414 LINE SMOOTH",
"211 330 OFFCURVE",
"184 232 OFFCURVE",
"99 199 CURVE",
"20 202 LINE",
"-2 0 LINE",
"1010 0 LINE"
);
}
);
width = 1170;
}
);
note = sterling;
unicode = 00A3;
},
{
glyphname = currency;
lastChange = "2017-05-19 14:54:14 +0000";
layers = (
{
layerId = "173B8943-1C9C-4036-959A-12BE1501493B";
paths = (
{
closed = 1;
nodes = (
"1299 467 OFFCURVE",
"1322 724 OFFCURVE",
"1239 968 CURVE",
"1407 1109 LINE",
"1286 1265 LINE",
"1117 1117 LINE",
"1028 1193 OFFCURVE",
"921 1232 OFFCURVE",
"796 1233 CURVE SMOOTH",
"677 1236 OFFCURVE",
"559 1198 OFFCURVE",
"442 1121 CURVE",
"332 1264 LINE",
"181 1131 LINE",
"296 976 LINE",
"227 898 OFFCURVE",
"179 812 OFFCURVE",
"150 717 CURVE SMOOTH",
"93 527 OFFCURVE",
"127 369 OFFCURVE",
"163 257 CURVE",
"8 129 LINE",
"128 -26 LINE",
"281 106 LINE",
"462 -58 OFFCURVE",
"740 -65 OFFCURVE",
"981 106 CURVE",
"1082 -27 LINE",
"1234 107 LINE",
"1123 256 LINE"
);
},
{
closed = 1;
nodes = (
"328 755 OFFCURVE",
"423 904 OFFCURVE",
"561 990 CURVE SMOOTH",
"699 1076 OFFCURVE",
"878 1069 OFFCURVE",
"978 982 CURVE SMOOTH",
"1077 895 OFFCURVE",
"1119 755 OFFCURVE",
"1100 616 CURVE SMOOTH",
"1079 461 OFFCURVE",
"984 312 OFFCURVE",
"847 226 CURVE SMOOTH",
"710 140 OFFCURVE",
"529 146 OFFCURVE",
"430 233 CURVE SMOOTH",
"330 320 OFFCURVE",
"287 460 OFFCURVE",
"307 599 CURVE SMOOTH"
);
}
);
width = 1395;
}
);
note = currency;
unicode = 00A4;
},
{
glyphname = yen;
lastChange = "2017-05-19 14:54:14 +0000";
layers = (
{
layerId = "173B8943-1C9C-4036-959A-12BE1501493B";
paths = (
{
closed = 1;
nodes = (
"622 452 LINE",
"647 590 LINE",
"940 590 LINE",
"967 742 LINE",
"745 742 LINE",
"1200 1456 LINE",
"925 1456 LINE",
"567 850 LINE",
"419 1456 LINE",
"166 1456 LINE",
"374 742 LINE",
"128 742 LINE",
"101 590 LINE",
"401 590 LINE",
"376 452 LINE",
"78 452 LINE",
"51 301 LINE",
"350 301 LINE",
"298 0 LINE",
"544 0 LINE",
"597 301 LINE",
"890 301 LINE",
"917 452 LINE"
);
}
);
width = 1056;
}
);
note = yen;
unicode = 00A5;
},
{
glyphname = brokenbar;
lastChange = "2017-05-19 14:54:14 +0000";
layers = (
{
layerId = "173B8943-1C9C-4036-959A-12BE1501493B";
paths = (
{
closed = 1;
nodes = (
"149 698 LINE",
"373 698 LINE",
"505 1456 LINE",
"281 1456 LINE"
);
},
{
closed = 1;
nodes = (
"120 525 LINE",
"-19 -270 LINE",
"205 -270 LINE",
"343 525 LINE"
);
}
);
width = 494;
}
);
note = brokenbar;
unicode = 00A6;
},
{
glyphname = section;
lastChange = "2017-05-19 14:54:14 +0000";
layers = (
{
layerId = "173B8943-1C9C-4036-959A-12BE1501493B";
paths = (
{
closed = 1;
nodes = (
"983 15 OFFCURVE",
"955 107 OFFCURVE",
"891 178 CURVE",
"1156 314 OFFCURVE",
"1133 563 OFFCURVE",
"1058 669 CURVE SMOOTH",
"983 775 OFFCURVE",
"852 834 OFFCURVE",
"697 882 CURVE SMOOTH",
"667 891 OFFCURVE",
"630 904 OFFCURVE",
"586 919 CURVE SMOOTH",
"498 949 OFFCURVE",
"433 998 OFFCURVE",
"449 1097 CURVE SMOOTH",
"470 1236 OFFCURVE",
"616 1284 OFFCURVE",
"740 1281 CURVE SMOOTH",
"883 1278 OFFCURVE",
"961 1188 OFFCURVE",
"954 1048 CURVE",
"1190 1047 LINE",
"1202 1326 OFFCURVE",
"1019 1473 OFFCURVE",
"750 1477 CURVE SMOOTH",
"587 1480 OFFCURVE",
"416 1431 OFFCURVE",
"305 1317 CURVE SMOOTH",
"193 1203 OFFCURVE",
"168 966 OFFCURVE",
"293 821 CURVE",
"235 790 OFFCURVE",
"187 752 OFFCURVE",
"148 707 CURVE SMOOTH",
"70 615 OFFCURVE",
"52 434 OFFCURVE",
"129 328 CURVE SMOOTH",
"205 222 OFFCURVE",
"345 160 OFFCURVE",
"484 116 CURVE SMOOTH",
"513 107 OFFCURVE",
"550 94 OFFCURVE",
"594 79 CURVE SMOOTH",
"681 47 OFFCURVE",
"751 -4 OFFCURVE",
"736 -99 CURVE SMOOTH",
"713 -234 OFFCURVE",
"567 -280 OFFCURVE",
"447 -279 CURVE SMOOTH",
"299 -276 OFFCURVE",
"199 -204 OFFCURVE",
"207 -49 CURVE",
"-34 -49 LINE",
"-38 -194 OFFCURVE",
"6 -300 OFFCURVE",
"98 -369 CURVE SMOOTH",
"281 -506 OFFCURVE",
"519 -489 OFFCURVE",
"679 -440 CURVE SMOOTH",
"839 -391 OFFCURVE",
"961 -281 OFFCURVE",
"974 -96 CURVE SMOOTH"
);
},
{
closed = 1;
nodes = (
"366 397 OFFCURVE",
"306 449 OFFCURVE",
"322 550 CURVE SMOOTH",
"335 629 OFFCURVE",
"382 687 OFFCURVE",
"462 724 CURVE",
"718 634 LINE SMOOTH",
"814 598 OFFCURVE",
"880 544 OFFCURVE",
"864 448 CURVE SMOOTH",
"851 372 OFFCURVE",
"802 314 OFFCURVE",
"718 275 CURVE",
"463 361 LINE SMOOTH"
);
}
);
width = 1235;
}
);
note = section;
unicode = 00A7;
},
{
glyphname = dieresis;
lastChange = "2017-05-19 14:54:14 +0000";
layers = (
{
layerId = "173B8943-1C9C-4036-959A-12BE1501493B";
paths = (
{
closed = 1;
nodes = (
"210 1294 OFFCURVE",
"266 1247 OFFCURVE",
"334 1248 CURVE SMOOTH",
"402 1249 OFFCURVE",
"457 1300 OFFCURVE",
"457 1369 CURVE SMOOTH",
"457 1438 OFFCURVE",
"401 1487 OFFCURVE",
"333 1486 CURVE SMOOTH",
"264 1485 OFFCURVE",
"211 1432 OFFCURVE",
"210 1363 CURVE SMOOTH"
);
},
{
closed = 1;
nodes = (
"653 1293 OFFCURVE",
"709 1246 OFFCURVE",
"777 1247 CURVE SMOOTH",
"845 1248 OFFCURVE",
"900 1299 OFFCURVE",
"900 1368 CURVE SMOOTH",
"901 1437 OFFCURVE",
"844 1486 OFFCURVE",
"776 1485 CURVE SMOOTH",
"707 1484 OFFCURVE",
"654 1431 OFFCURVE",
"654 1362 CURVE SMOOTH"
);
}
);
width = 874;
}
);
note = dieresis;
unicode = 00A8;
},
{
glyphname = copyright;
lastChange = "2017-05-19 14:54:14 +0000";
layers = (
{
layerId = "173B8943-1C9C-4036-959A-12BE1501493B";
paths = (
{
closed = 1;
nodes = (
"77 475 OFFCURVE",
"169 234 OFFCURVE",
"354 90 CURVE SMOOTH",
"538 -54 OFFCURVE",
"842 -61 OFFCURVE",
"1071 82 CURVE SMOOTH",
"1299 225 OFFCURVE",
"1454 471 OFFCURVE",
"1482 735 CURVE SMOOTH",
"1510 983 OFFCURVE",
"1417 1222 OFFCURVE",
"1233 1366 CURVE SMOOTH",
"1048 1509 OFFCURVE",
"745 1516 OFFCURVE",
"517 1374 CURVE SMOOTH",
"288 1232 OFFCURVE",
"133 987 OFFCURVE",
"104 722 CURVE SMOOTH"
);
},
{
closed = 1;
nodes = (
"255 942 OFFCURVE",
"388 1147 OFFCURVE",
"581 1266 CURVE SMOOTH",
"774 1385 OFFCURVE",
"1029 1378 OFFCURVE",
"1176 1258 CURVE SMOOTH",
"1323 1137 OFFCURVE",
"1389 939 OFFCURVE",
"1361 736 CURVE SMOOTH",
"1332 516 OFFCURVE",
"1198 309 OFFCURVE",
"1005 190 CURVE SMOOTH",
"812 70 OFFCURVE",
"557 77 OFFCURVE",
"410 198 CURVE SMOOTH",
"263 319 OFFCURVE",
"197 519 OFFCURVE",
"224 722 CURVE SMOOTH"
);
},
{
closed = 1;
nodes = (
"908 472 OFFCURVE",
"842 412 OFFCURVE",
"731 417 CURVE SMOOTH",
"596 422 OFFCURVE",
"575 559 OFFCURVE",
"586 668 CURVE SMOOTH",
"600 790 LINE SMOOTH",
"616 914 OFFCURVE",
"684 1043 OFFCURVE",
"828 1042 CURVE SMOOTH",
"934 1039 OFFCURVE",
"983 979 OFFCURVE",
"976 862 CURVE",
"1128 861 LINE",
"1133 1053 OFFCURVE",
"1024 1172 OFFCURVE",
"829 1176 CURVE SMOOTH",
"602 1180 OFFCURVE",
"469 997 OFFCURVE",
"446 788 CURVE SMOOTH",
"434 669 LINE SMOOTH",
"418 472 OFFCURVE",
"514 287 OFFCURVE",
"730 282 CURVE SMOOTH",
"934 277 OFFCURVE",
"1064 396 OFFCURVE",
"1080 596 CURVE",
"929 595 LINE"
);
}
);
width = 1557;
}
);
note = copyright;
unicode = 00A9;
},
{
glyphname = ordfeminine;
lastChange = "2017-05-19 14:54:14 +0000";
layers = (
{
layerId = "173B8943-1C9C-4036-959A-12BE1501493B";
paths = (
{
closed = 1;
nodes = (
"781 735 OFFCURVE",
"779 765 OFFCURVE",
"780 795 CURVE",
"785 866 LINE",
"837 1201 LINE",
"850 1366 OFFCURVE",
"750 1475 OFFCURVE",
"585 1478 CURVE SMOOTH",
"433 1482 OFFCURVE",
"281 1408 OFFCURVE",
"268 1244 CURVE",
"439 1230 LINE",
"476 1367 OFFCURVE",
"689 1365 OFFCURVE",
"666 1204 CURVE",
"654 1151 LINE",
"550 1152 LINE SMOOTH",
"497 1152 OFFCURVE",
"443 1146 OFFCURVE",
"389 1133 CURVE SMOOTH",
"280 1107 OFFCURVE",
"196 1041 OFFCURVE",
"193 912 CURVE SMOOTH",
"189 776 OFFCURVE",
"283 692 OFFCURVE",
"416 692 CURVE SMOOTH",
"491 692 OFFCURVE",
"558 719 OFFCURVE",
"618 774 CURVE",
"621 704 LINE",
"787 704 LINE"
);
},
{
closed = 1;
nodes = (
"389 836 OFFCURVE",
"359 863 OFFCURVE",
"367 916 CURVE SMOOTH",
"380 1004 OFFCURVE",
"477 1031 OFFCURVE",
"556 1034 CURVE",
"642 1034 LINE",
"615 897 LINE",
"556 855 OFFCURVE",
"503 834 OFFCURVE",
"457 834 CURVE SMOOTH"
);
}
);
width = 887;
}
);
note = ordfeminine;
unicode = 00AA;
},
{
glyphname = guillemotleft;
lastChange = "2017-05-19 14:54:14 +0000";
layers = (
{
layerId = "173B8943-1C9C-4036-959A-12BE1501493B";
paths = (
{
closed = 1;
nodes = (
"273 526 LINE",
"593 938 LINE",
"412 938 LINE",
"72 547 LINE",
"71 526 LINE",
"294 138 LINE",
"438 139 LINE"
);
},
{
closed = 1;
nodes = (
"622 526 LINE",
"942 938 LINE",
"761 938 LINE",
"421 547 LINE",
"420 526 LINE",
"643 138 LINE",
"787 139 LINE"
);
}
);
width = 974;
}
);
note = guillemotleft;
unicode = 00AB;
},
{
glyphname = logicalnot;
lastChange = "2017-05-19 14:54:14 +0000";
layers = (
{
layerId = "173B8943-1C9C-4036-959A-12BE1501493B";
paths = (
{
closed = 1;
nodes = (
"745 634 LINE",
"699 374 LINE",
"895 374 LINE",
"970 805 LINE",
"159 805 LINE",
"128 634 LINE"
);
}
);
width = 1100;
}
);
note = logicalnot;
unicode = 00AC;
},
{
glyphname = registered;
lastChange = "2017-05-19 14:54:14 +0000";
layers = (
{
layerId = "173B8943-1C9C-4036-959A-12BE1501493B";
paths = (
{
closed = 1;
nodes = (
"77 475 OFFCURVE",
"169 234 OFFCURVE",
"354 90 CURVE SMOOTH",
"538 -54 OFFCURVE",
"842 -61 OFFCURVE",
"1071 82 CURVE SMOOTH",
"1299 225 OFFCURVE",
"1454 471 OFFCURVE",
"1482 735 CURVE SMOOTH",
"1510 983 OFFCURVE",
"1417 1222 OFFCURVE",
"1233 1366 CURVE SMOOTH",
"1048 1509 OFFCURVE",
"745 1514 OFFCURVE",
"517 1373 CURVE SMOOTH",
"288 1232 OFFCURVE",
"133 987 OFFCURVE",
"104 722 CURVE SMOOTH"
);
},
{
closed = 1;
nodes = (
"255 942 OFFCURVE",
"388 1147 OFFCURVE",
"581 1266 CURVE SMOOTH",
"774 1385 OFFCURVE",
"1029 1378 OFFCURVE",
"1176 1258 CURVE SMOOTH",
"1323 1137 OFFCURVE",
"1389 939 OFFCURVE",
"1361 736 CURVE SMOOTH",
"1332 516 OFFCURVE",
"1198 309 OFFCURVE",
"1005 190 CURVE SMOOTH",
"812 70 OFFCURVE",
"557 77 OFFCURVE",
"410 198 CURVE SMOOTH",
"263 319 OFFCURVE",
"197 519 OFFCURVE",
"224 722 CURVE SMOOTH"
);
},
{
closed = 1;
nodes = (
"895 647 OFFCURVE",
"919 600 OFFCURVE",
"911 516 CURVE SMOOTH",
"898 388 LINE",
"897 364 OFFCURVE",
"898 340 OFFCURVE",
"901 315 CURVE",
"1050 315 LINE",
"1051 333 LINE",
"1047 396 LINE SMOOTH",
"1046 414 OFFCURVE",
"1049 454 OFFCURVE",
"1056 515 CURVE SMOOTH",
"1064 614 OFFCURVE",
"1038 682 OFFCURVE",
"978 721 CURVE",
"1054 765 OFFCURVE",
"1116 821 OFFCURVE",
"1121 914 CURVE SMOOTH",
"1130 1089 OFFCURVE",
"990 1161 OFFCURVE",
"835 1165 CURVE SMOOTH",
"575 1166 LINE",
"442 316 LINE",
"590 316 LINE",
"643 653 LINE",
"807 651 LINE SMOOTH"
);
},
{
closed = 1;
nodes = (
"925 1031 OFFCURVE",
"996 1009 OFFCURVE",
"977 909 CURVE SMOOTH",
"961 822 OFFCURVE",
"872 789 OFFCURVE",
"793 786 CURVE",
"663 787 LINE",
"702 1033 LINE",
"841 1032 LINE SMOOTH"
);
}
);
width = 1557;
}
);
note = registered;
unicode = 00AE;
},
{
glyphname = macron;
lastChange = "2017-05-19 14:54:14 +0000";
layers = (
{
layerId = "173B8943-1C9C-4036-959A-12BE1501493B";
paths = (
{
closed = 1;
nodes = (
"258 1292 LINE",
"926 1292 LINE",
"951 1450 LINE",
"284 1450 LINE"
);
}
);
width = 958;
}
);
note = macron;
unicode = 00AF;
},
{
glyphname = degree;
lastChange = "2017-05-19 14:54:14 +0000";
layers = (
{
layerId = "173B8943-1C9C-4036-959A-12BE1501493B";
paths = (
{
closed = 1;
nodes = (
"225 1064 OFFCURVE",
"326 943 OFFCURVE",
"465 942 CURVE SMOOTH",
"614 939 OFFCURVE",
"733 1072 OFFCURVE",
"737 1217 CURVE SMOOTH",
"741 1350 OFFCURVE",
"645 1475 OFFCURVE",
"506 1478 CURVE SMOOTH",
"355 1481 OFFCURVE",
"232 1346 OFFCURVE",
"228 1199 CURVE SMOOTH"
);
},
{
closed = 1;
nodes = (
"372 1272 OFFCURVE",
"436 1337 OFFCURVE",
"509 1337 CURVE SMOOTH",
"574 1336 OFFCURVE",
"610 1275 OFFCURVE",
"602 1215 CURVE SMOOTH",
"593 1146 OFFCURVE",
"534 1084 OFFCURVE",
"462 1084 CURVE SMOOTH",
"398 1083 OFFCURVE",
"356 1140 OFFCURVE",
"364 1201 CURVE SMOOTH"
);
}
);
width = 756;
}
);
note = degree;
unicode = 00B0;
},
{
glyphname = plusminus;
lastChange = "2017-05-19 14:54:14 +0000";
layers = (
{
layerId = "173B8943-1C9C-4036-959A-12BE1501493B";
paths = (
{
closed = 1;
nodes = (
"695 899 LINE",
"754 1276 LINE",
"544 1276 LINE",
"484 899 LINE",
"138 899 LINE",
"106 700 LINE",
"454 700 LINE",
"393 312 LINE",
"603 312 LINE",
"664 700 LINE",
"996 700 LINE",
"1028 899 LINE"
);
},
{
closed = 1;
nodes = (
"27 1 LINE",
"851 1 LINE",
"882 197 LINE",
"58 197 LINE"
);
}
);
width = 1066;
}
);
note = plusminus;
unicode = 00B1;
},
{
glyphname = twosuperior;
lastChange = "2017-05-19 14:54:14 +0000";
layers = (
{
layerId = "173B8943-1C9C-4036-959A-12BE1501493B";
paths = (
{
closed = 1;
nodes = (
"514 928 LINE SMOOTH",
"615 1003 OFFCURVE",
"743 1095 OFFCURVE",
"750 1232 CURVE SMOOTH",
"757 1392 OFFCURVE",
"625 1466 OFFCURVE",
"480 1469 CURVE SMOOTH",
"315 1470 OFFCURVE",
"178 1368 OFFCURVE",
"165 1199 CURVE",
"349 1200 LINE",
"365 1269 OFFCURVE",
"409 1322 OFFCURVE",
"485 1322 CURVE SMOOTH",
"606 1321 OFFCURVE",
"564 1208 OFFCURVE",
"532 1164 CURVE SMOOTH",
"515 1142 OFFCURVE",
"479 1107 OFFCURVE",
"422 1059 CURVE SMOOTH",
"110 803 LINE",
"86 667 LINE",
"681 667 LINE",
"708 816 LINE",
"357 818 LINE"
);
}
);
width = 745;
}
);
note = twosuperior;
unicode = 00B2;
},
{
glyphname = threesuperior;
lastChange = "2017-05-19 14:54:14 +0000";
layers = (
{
layerId = "173B8943-1C9C-4036-959A-12BE1501493B";
paths = (
{
closed = 1;
nodes = (
"459 1003 OFFCURVE",
"486 996 OFFCURVE",
"509 984 CURVE SMOOTH",
"554 959 OFFCURVE",
"541 866 OFFCURVE",
"482 832 CURVE SMOOTH",
"423 798 OFFCURVE",
"285 778 OFFCURVE",
"280 897 CURVE",
"103 898 LINE",
"103 817 OFFCURVE",
"131 757 OFFCURVE",
"186 718 CURVE SMOOTH",
"296 638 OFFCURVE",
"457 635 OFFCURVE",
"600 710 CURVE SMOOTH",
"743 785 OFFCURVE",
"753 1011 OFFCURVE",
"598 1067 CURVE",
"678 1103 OFFCURVE",
"752 1154 OFFCURVE",
"756 1250 CURVE SMOOTH",
"763 1407 OFFCURVE",
"612 1466 OFFCURVE",
"477 1469 CURVE SMOOTH",
"332 1470 OFFCURVE",
"192 1401 OFFCURVE",
"177 1244 CURVE",
"364 1245 LINE",
"383 1295 OFFCURVE",
"423 1320 OFFCURVE",
"484 1319 CURVE SMOOTH",
"535 1319 OFFCURVE",
"581 1294 OFFCURVE",
"572 1237 CURVE SMOOTH",
"560 1164 OFFCURVE",
"490 1136 OFFCURVE",
"423 1133 CURVE",
"352 1133 LINE",
"329 1005 LINE",
"428 1004 LINE SMOOTH"
);
}
);
width = 745;
}
);
note = threesuperior;
unicode = 00B3;
},
{
glyphname = acute;
lastChange = "2017-05-19 14:54:14 +0000";
layers = (
{
layerId = "173B8943-1C9C-4036-959A-12BE1501493B";
paths = (
{
closed = 1;
nodes = (
"722 1536 LINE",
"437 1536 LINE",
"200 1234 LINE",
"406 1234 LINE"
);
}
);
width = 648;
}
);
note = acute;
unicode = 00B4;
},
{
glyphname = mu;
lastChange = "2017-05-19 14:54:14 +0000";
layers = (
{
layerId = "173B8943-1C9C-4036-959A-12BE1501493B";
paths = (
{
closed = 1;
nodes = (
"570 -23 OFFCURVE",
"652 13 OFFCURVE",
"722 87 CURVE",
"708 0 LINE",
"920 0 LINE",
"1107 1082 LINE",
"871 1082 LINE",
"734 296 LINE",
"673 212 OFFCURVE",
"591 172 OFFCURVE",
"490 175 CURVE SMOOTH",
"438 176 OFFCURVE",
"402 193 OFFCURVE",
"383 224 CURVE SMOOTH",
"344 287 OFFCURVE",
"350 382 OFFCURVE",
"359 461 CURVE",
"461 1082 LINE",
"225 1082 LINE",
"-35 -416 LINE",
"201 -416 LINE",
"287 36 LINE",
"339 -2 OFFCURVE",
"402 -21 OFFCURVE",
"476 -22 CURVE SMOOTH"
);
}
);
width = 1175;
}
);
note = mu;
unicode = 00B5;
},
{
glyphname = paragraph;
lastChange = "2017-05-19 14:54:14 +0000";
layers = (
{
layerId = "173B8943-1C9C-4036-959A-12BE1501493B";
paths = (
{
closed = 1;
nodes = (
"679 1457 LINE SMOOTH",
"390 1457 OFFCURVE",
"164 1275 OFFCURVE",
"136 980 CURVE SMOOTH",
"109 711 OFFCURVE",
"277 528 OFFCURVE",
"546 521 CURVE SMOOTH",
"611 520 LINE",
"521 0 LINE",
"725 0 LINE",
"978 1456 LINE"
);
}
);
width = 976;
}
);
note = paragraph;
unicode = 00B6;
},
{
glyphname = periodcentered;
lastChange = "2017-05-19 14:54:14 +0000";
layers = (
{
layerId = "173B8943-1C9C-4036-959A-12BE1501493B";
paths = (
{
closed = 1;
nodes = (
"158 632 OFFCURVE",
"219 578 OFFCURVE",
"296 581 CURVE SMOOTH",
"375 582 OFFCURVE",
"434 640 OFFCURVE",
"434 719 CURVE SMOOTH",
"434 798 OFFCURVE",
"374 852 OFFCURVE",
"295 851 CURVE SMOOTH",
"216 850 OFFCURVE",
"157 791 OFFCURVE",
"158 711 CURVE SMOOTH"
);
}
);
width = 561;
}
);
note = periodcentered;
unicode = 00B7;
},
{
glyphname = cedilla;
lastChange = "2017-05-19 14:54:14 +0000";
layers = (
{
layerId = "173B8943-1C9C-4036-959A-12BE1501493B";
paths = (
{
closed = 1;
nodes = (
"31 -141 OFFCURVE",
"122 -141 OFFCURVE",
"110 -214 CURVE SMOOTH",
"98 -289 OFFCURVE",
"22 -307 OFFCURVE",
"-42 -310 CURVE",
"-49 -450 LINE",
"52 -447 OFFCURVE",
"170 -426 OFFCURVE",
"244 -360 CURVE SMOOTH",
"318 -294 OFFCURVE",
"344 -93 OFFCURVE",
"179 -54 CURVE",
"200 4 LINE",
"26 3 LINE",
"-18 -136 LINE"
);
}
);
width = 513;
}
);
note = cedilla;
unicode = 00B8;
},
{
glyphname = onesuperior;
lastChange = "2017-05-19 14:54:14 +0000";
layers = (
{
layerId = "173B8943-1C9C-4036-959A-12BE1501493B";
paths = (
{
closed = 1;
nodes = (
"253 1340 LINE",
"225 1186 LINE",
"428 1234 LINE",
"330 667 LINE",
"512 667 LINE",
"642 1455 LINE",
"618 1455 LINE"
);
}
);
width = 745;
}
);
note = onesuperior;
unicode = 00B9;
},
{
glyphname = ordmasculine;
lastChange = "2017-05-19 14:54:14 +0000";
layers = (
{
layerId = "173B8943-1C9C-4036-959A-12BE1501493B";
paths = (
{
closed = 1;
nodes = (
"181 853 OFFCURVE",
"290 695 OFFCURVE",
"491 691 CURVE SMOOTH",
"703 684 OFFCURVE",
"845 842 OFFCURVE",
"868 1045 CURVE SMOOTH",
"875 1122 LINE SMOOTH",
"890 1314 OFFCURVE",
"782 1473 OFFCURVE",
"579 1478 CURVE SMOOTH",
"367 1482 OFFCURVE",
"222 1324 OFFCURVE",
"201 1121 CURVE SMOOTH",
"194 1045 LINE SMOOTH"
);
},
{
closed = 1;
nodes = (
"388 1229 OFFCURVE",
"453 1334 OFFCURVE",
"573 1330 CURVE SMOOTH",
"689 1327 OFFCURVE",
"713 1219 OFFCURVE",
"704 1123 CURVE SMOOTH",
"695 1045 LINE SMOOTH",
"680 938 OFFCURVE",
"618 832 OFFCURVE",
"497 835 CURVE SMOOTH",
"381 839 OFFCURVE",
"358 946 OFFCURVE",
"367 1042 CURVE SMOOTH",
"375 1122 LINE SMOOTH"
);
}
);
width = 907;
}
);
note = ordmasculine;
unicode = 00BA;
},
{
glyphname = guillemotright;
lastChange = "2017-05-19 14:54:14 +0000";
layers = (
{
layerId = "173B8943-1C9C-4036-959A-12BE1501493B";
paths = (
{
closed = 1;
nodes = (
"322 550 LINE",
"2 138 LINE",
"182 138 LINE",
"522 529 LINE",
"523 550 LINE",
"300 938 LINE",
"156 937 LINE"
);
},
{
closed = 1;
nodes = (
"684 550 LINE",
"364 138 LINE",
"544 138 LINE",
"884 529 LINE",
"885 550 LINE",
"662 938 LINE",
"518 937 LINE"
);
}
);
width = 974;
}
);
note = guillemotright;
unicode = 00BB;
},
{
glyphname = onequarter;
lastChange = "2017-05-19 14:54:14 +0000";
layers = (
{
layerId = "173B8943-1C9C-4036-959A-12BE1501493B";
paths = (
{
closed = 1;
nodes = (
"212 1337 LINE",
"185 1183 LINE",
"388 1231 LINE",
"289 664 LINE",
"471 664 LINE",
"601 1452 LINE",
"578 1452 LINE"
);
},
{
closed = 1;
nodes = (
"245 199 LINE",
"365 119 LINE",
"1245 1246 LINE",
"1124 1326 LINE"
);
},
{
closed = 1;
nodes = (
"1020 164 LINE",
"990 0 LINE",
"1173 0 LINE",
"1202 164 LINE",
"1294 164 LINE",
"1321 315 LINE",
"1228 315 LINE",
"1310 789 LINE",
"1118 789 LINE",
"685 296 LINE",
"673 164 LINE"
);
},
{
closed = 1;
nodes = (
"1096 560 LINE",
"1045 315 LINE",
"875 315 LINE",
"1078 535 LINE"
);
}
);
width = 1453;
}
);
note = onequarter;
unicode = 00BC;
},
{
glyphname = onehalf;
lastChange = "2017-05-19 14:54:14 +0000";
layers = (
{
layerId = "173B8943-1C9C-4036-959A-12BE1501493B";
paths = (
{
closed = 1;
nodes = (
"203 199 LINE",
"323 119 LINE",
"1203 1246 LINE",
"1082 1326 LINE"
);
},
{
closed = 1;
nodes = (
"204 1340 LINE",
"177 1186 LINE",
"380 1234 LINE",
"281 667 LINE",
"463 667 LINE",
"593 1455 LINE",
"570 1455 LINE"
);
},
{
closed = 1;
nodes = (
"1168 261 LINE SMOOTH",
"1269 336 OFFCURVE",
"1398 428 OFFCURVE",
"1403 565 CURVE SMOOTH",
"1410 725 OFFCURVE",
"1279 799 OFFCURVE",
"1134 802 CURVE SMOOTH",
"967 803 OFFCURVE",
"832 701 OFFCURVE",
"819 532 CURVE",
"1003 533 LINE",
"1018 602 OFFCURVE",
"1062 655 OFFCURVE",
"1139 655 CURVE SMOOTH",
"1260 654 OFFCURVE",
"1218 541 OFFCURVE",
"1186 497 CURVE SMOOTH",
"1169 475 OFFCURVE",
"1133 440 OFFCURVE",
"1076 392 CURVE SMOOTH",
"764 136 LINE",
"740 0 LINE",
"1335 0 LINE",
"1362 149 LINE",
"1011 151 LINE"
);
}
);
width = 1542;
}
);
note = onehalf;
unicode = 00BD;
},
{
glyphname = threequarters;
lastChange = "2017-05-19 14:54:14 +0000";
layers = (
{
layerId = "173B8943-1C9C-4036-959A-12BE1501493B";
paths = (
{
closed = 1;
nodes = (
"383 199 LINE",
"503 119 LINE",
"1383 1246 LINE",
"1262 1326 LINE"
);
},
{
closed = 1;
nodes = (
"1138 164 LINE",
"1108 0 LINE",
"1291 0 LINE",
"1320 164 LINE",
"1412 164 LINE",
"1439 315 LINE",
"1346 315 LINE",
"1428 789 LINE",
"1236 789 LINE",
"803 296 LINE",
"791 164 LINE"
);
},
{
closed = 1;
nodes = (
"1214 560 LINE",
"1163 315 LINE",
"993 315 LINE",
"1196 535 LINE"
);
},
{
closed = 1;
nodes = (
"507 1003 OFFCURVE",
"534 996 OFFCURVE",
"557 984 CURVE SMOOTH",
"602 959 OFFCURVE",
"589 866 OFFCURVE",
"530 832 CURVE SMOOTH",
"471 798 OFFCURVE",
"333 778 OFFCURVE",
"328 897 CURVE",
"150 898 LINE",
"151 817 OFFCURVE",
"178 757 OFFCURVE",
"233 718 CURVE SMOOTH",
"342 638 OFFCURVE",
"505 635 OFFCURVE",
"648 710 CURVE SMOOTH",
"791 785 OFFCURVE",
"801 1011 OFFCURVE",
"646 1067 CURVE",
"726 1103 OFFCURVE",
"799 1154 OFFCURVE",
"803 1250 CURVE SMOOTH",
"811 1407 OFFCURVE",
"658 1466 OFFCURVE",
"525 1469 CURVE SMOOTH",
"380 1470 OFFCURVE",
"240 1401 OFFCURVE",
"225 1244 CURVE",
"412 1245 LINE",
"431 1295 OFFCURVE",
"470 1320 OFFCURVE",
"531 1319 CURVE SMOOTH",
"583 1319 OFFCURVE",
"629 1294 OFFCURVE",
"620 1237 CURVE SMOOTH",
"608 1164 OFFCURVE",
"538 1136 OFFCURVE",
"471 1133 CURVE",
"399 1133 LINE",
"377 1005 LINE",
"476 1004 LINE SMOOTH"
);
}
);
width = 1584;
}
);
note = threequarters;
unicode = 00BE;
},
{
glyphname = questiondown;
lastChange = "2017-05-19 14:54:14 +0000";
layers = (
{
layerId = "173B8943-1C9C-4036-959A-12BE1501493B";
paths = (
{
closed = 1;
nodes = (
"695 1053 OFFCURVE",
"636 1104 OFFCURVE",
"560 1103 CURVE SMOOTH",
"484 1102 OFFCURVE",
"427 1045 OFFCURVE",
"427 968 CURVE SMOOTH",
"427 891 OFFCURVE",
"486 837 OFFCURVE",
"562 840 CURVE SMOOTH",
"639 841 OFFCURVE",
"696 899 OFFCURVE",
"695 976 CURVE"
);
},
{
closed = 1;
nodes = (
"368 639 OFFCURVE",
"349 601 OFFCURVE",
"338 548 CURVE SMOOTH",
"326 495 OFFCURVE",
"300 451 OFFCURVE",
"260 418 CURVE SMOOTH",
"129 309 OFFCURVE",
"-23 183 OFFCURVE",
"-39 -8 CURVE SMOOTH",
"-58 -248 OFFCURVE",
"101 -382 OFFCURVE",
"332 -387 CURVE SMOOTH",
"575 -391 OFFCURVE",
"772 -248 OFFCURVE",
"796 0 CURVE",
"559 0 LINE",
"538 -111 OFFCURVE",
"461 -190 OFFCURVE",
"344 -187 CURVE SMOOTH",
"233 -184 OFFCURVE",
"189 -109 OFFCURVE",
"204 -5 CURVE SMOOTH",
"220 118 OFFCURVE",
"315 195 OFFCURVE",
"410 279 CURVE SMOOTH",
"537 391 OFFCURVE",
"597 498 OFFCURVE",
"612 663 CURVE",
"394 662 LINE"
);
}
);
width = 967;
}
);
note = questiondown;
unicode = 00BF;
},
{
glyphname = AE;
lastChange = "2017-05-19 14:54:14 +0000";
layers = (
{
layerId = "173B8943-1C9C-4036-959A-12BE1501493B";
paths = (
{
closed = 1;
nodes = (
"1170 655 LINE",
"1694 655 LINE",
"1729 851 LINE",
"1195 851 LINE",
"1250 1260 LINE",
"1878 1260 LINE",
"1912 1456 LINE",
"940 1456 LINE",
"-122 0 LINE",
"174 0 LINE",
"413 341 LINE",
"893 341 LINE",
"847 0 LINE",
"1718 0 LINE",
"1753 196 LINE",
"1109 196 LINE"
);
},
{
closed = 1;
nodes = (
"921 555 LINE",
"562 555 LINE",
"1006 1191 LINE"
);
}
);
width = 1867;
}
);
note = AE;
unicode = 00C6;
},
{
glyphname = multiply;
lastChange = "2017-05-19 14:54:14 +0000";
layers = (
{
layerId = "173B8943-1C9C-4036-959A-12BE1501493B";
paths = (
{
closed = 1;
nodes = (
"1043 998 LINE",
"916 1158 LINE",
"555 838 LINE",
"304 1158 LINE",
"146 1020 LINE",
"397 697 LINE",
"34 375 LINE",
"161 215 LINE",
"522 535 LINE",
"773 215 LINE",
"931 353 LINE",
"680 676 LINE"
);
}
);
width = 1060;
}
);
note = multiply;
unicode = 00D7;
},
{
glyphname = Oslash;
lastChange = "2017-05-19 14:54:14 +0000";
layers = (
{
layerId = "173B8943-1C9C-4036-959A-12BE1501493B";
paths = (
{
closed = 1;
nodes = (
"723 -23 OFFCURVE",
"831 4 OFFCURVE",
"922 61 CURVE SMOOTH",
"1105 173 OFFCURVE",
"1240 391 OFFCURVE",
"1287 659 CURVE SMOOTH",
"1334 927 OFFCURVE",
"1311 1113 OFFCURVE",
"1235 1274 CURVE",
"1431 1517 LINE",
"1252 1517 LINE",
"1140 1374 LINE",
"1053 1440 OFFCURVE",
"947 1474 OFFCURVE",
"823 1477 CURVE SMOOTH",
"694 1478 OFFCURVE",
"582 1448 OFFCURVE",
"487 1385 CURVE SMOOTH",
"297 1260 OFFCURVE",
"175 1040 OFFCURVE",
"135 796 CURVE SMOOTH",
"87 503 OFFCURVE",
"113 312 OFFCURVE",
"214 145 CURVE",
"22 -94 LINE",
"201 -95 LINE",
"320 56 LINE",
"401 7 OFFCURVE",
"494 -19 OFFCURVE",
"599 -21 CURVE SMOOTH"
);
},
{
closed = 1;
nodes = (
"351 576 OFFCURVE",
"359 649 OFFCURVE",
"372 741 CURVE SMOOTH",
"399 924 OFFCURVE",
"463 1093 OFFCURVE",
"583 1196 CURVE SMOOTH",
"703 1299 OFFCURVE",
"916 1294 OFFCURVE",
"1003 1187 CURVE",
"365 355 LINE",
"352 410 OFFCURVE",
"347 465 OFFCURVE",
"349 522 CURVE SMOOTH"
);
},
{
closed = 1;
nodes = (
"1067 845 OFFCURVE",
"1058 768 OFFCURVE",
"1043 677 CURVE SMOOTH",
"1013 496 OFFCURVE",
"942 337 OFFCURVE",
"827 249 CURVE SMOOTH",
"711 160 OFFCURVE",
"535 171 OFFCURVE",
"451 238 CURVE",
"1071 1049 LINE",
"1075 1002 OFFCURVE",
"1075 955 OFFCURVE",
"1072 908 CURVE SMOOTH"
);
}
);
width = 1371;
}
);
leftKerningGroup = C;
note = Oslash;
unicode = 00D8;
},
{
glyphname = Thorn;
lastChange = "2017-05-19 14:54:14 +0000";
layers = (
{
layerId = "173B8943-1C9C-4036-959A-12BE1501493B";
paths = (
{
closed = 1;
nodes = (
"859 299 OFFCURVE",
"1115 447 OFFCURVE",
"1140 746 CURVE SMOOTH",
"1163 1019 OFFCURVE",
"959 1171 OFFCURVE",
"702 1176 CURVE SMOOTH",
"480 1177 LINE",
"529 1456 LINE",
"292 1456 LINE",
"39 0 LINE",
"276 0 LINE",
"329 300 LINE",
"580 299 LINE SMOOTH"
);
},
{
closed = 1;
nodes = (
"838 976 OFFCURVE",
"922 888 OFFCURVE",
"903 745 CURVE SMOOTH",
"880 582 OFFCURVE",
"744 494 OFFCURVE",
"588 493 CURVE SMOOTH",
"362 495 LINE",
"447 982 LINE",
"697 981 LINE SMOOTH"
);
}
);
width = 1190;
}
);
note = Thorn;
unicode = 00DE;
},
{
glyphname = germandbls;
lastChange = "2017-05-19 14:54:14 +0000";
layers = (
{
layerId = "173B8943-1C9C-4036-959A-12BE1501493B";
paths = (
{
closed = 1;
nodes = (
"460 1168 OFFCURVE",
"481 1229 OFFCURVE",
"515 1286 CURVE SMOOTH",
"582 1400 OFFCURVE",
"742 1380 OFFCURVE",
"786 1315 CURVE SMOOTH",
"829 1250 OFFCURVE",
"813 1144 OFFCURVE",
"761 1065 CURVE SMOOTH",
"708 986 OFFCURVE",
"644 911 OFFCURVE",
"636 810 CURVE SMOOTH",
"628 707 OFFCURVE",
"687 633 OFFCURVE",
"754 564 CURVE SMOOTH",
"821 495 OFFCURVE",
"877 427 OFFCURVE",
"864 336 CURVE SMOOTH",
"847 227 OFFCURVE",
"752 174 OFFCURVE",
"648 174 CURVE SMOOTH",
"575 174 OFFCURVE",
"504 196 OFFCURVE",
"437 239 CURVE",
"369 46 LINE",
"443 3 OFFCURVE",
"538 -20 OFFCURVE",
"653 -21 CURVE SMOOTH",
"885 -25 OFFCURVE",
"1086 98 OFFCURVE",
"1099 346 CURVE SMOOTH",
"1103 442 OFFCURVE",
"1043 519 OFFCURVE",
"978 590 CURVE SMOOTH",
"945 625 OFFCURVE",
"918 661 OFFCURVE",
"896 698 CURVE SMOOTH",
"851 770 OFFCURVE",
"873 870 OFFCURVE",
"926 950 CURVE SMOOTH",
"979 1030 OFFCURVE",
"1037 1106 OFFCURVE",
"1045 1210 CURVE SMOOTH",
"1062 1430 OFFCURVE",
"909 1554 OFFCURVE",
"701 1559 CURVE SMOOTH",
"420 1564 OFFCURVE",
"252 1371 OFFCURVE",
"216 1106 CURVE SMOOTH",
"27 0 LINE",
"264 0 LINE",
"451 1104 LINE SMOOTH"
);
}
);
width = 1218;
}
);
note = germandbls;
unicode = 00DF;
},
{
glyphname = ae;
lastChange = "2017-05-19 14:54:14 +0000";
layers = (
{
layerId = "173B8943-1C9C-4036-959A-12BE1501493B";
paths = (
{
closed = 1;
nodes = (
"1360 214 OFFCURVE",
"1262 173 OFFCURVE",
"1149 176 CURVE SMOOTH",
"976 180 OFFCURVE",
"912 314 OFFCURVE",
"929 471 CURVE",
"1598 471 LINE",
"1619 612 LINE SMOOTH",
"1634 741 OFFCURVE",
"1612 854 OFFCURVE",
"1552 951 CURVE SMOOTH",
"1432 1144 OFFCURVE",
"1117 1151 OFFCURVE",
"912 971 CURVE",
"878 1020 OFFCURVE",
"833 1054 OFFCURVE",
"776 1073 CURVE SMOOTH",
"663 1110 OFFCURVE",
"535 1116 OFFCURVE",
"395 1071 CURVE SMOOTH",
"255 1026 OFFCURVE",
"147 929 OFFCURVE",
"134 770 CURVE",
"371 752 LINE",
"388 857 OFFCURVE",
"488 911 OFFCURVE",
"591 907 CURVE SMOOTH",
"703 904 OFFCURVE",
"739 815 OFFCURVE",
"726 715 CURVE",
"713 643 LINE",
"521 644 LINE SMOOTH",
"446 644 OFFCURVE",
"370 634 OFFCURVE",
"295 615 CURVE SMOOTH",
"144 575 OFFCURVE",
"30 481 OFFCURVE",
"19 304 CURVE SMOOTH",
"7 99 OFFCURVE",
"148 -17 OFFCURVE",
"345 -21 CURVE SMOOTH",
"514 -24 OFFCURVE",
"656 29 OFFCURVE",
"771 140 CURVE",
"851 25 OFFCURVE",
"991 -19 OFFCURVE",
"1127 -20 CURVE SMOOTH",
"1258 -21 OFFCURVE",
"1413 11 OFFCURVE",
"1516 98 CURVE",
"1459 266 LINE"
);
},
{
closed = 1;
nodes = (
"1373 904 OFFCURVE",
"1411 794 OFFCURVE",
"1391 674 CURVE SMOOTH",
"1385 642 LINE",
"948 642 LINE",
"995 774 OFFCURVE",
"1077 913 OFFCURVE",
"1236 908 CURVE SMOOTH"
);
},
{
closed = 1;
nodes = (
"315 165 OFFCURVE",
"245 208 OFFCURVE",
"258 300 CURVE SMOOTH",
"277 427 OFFCURVE",
"410 476 OFFCURVE",
"522 477 CURVE SMOOTH",
"690 476 LINE",
"650 265 LINE",
"559 196 OFFCURVE",
"476 163 OFFCURVE",
"400 164 CURVE SMOOTH"
);
}
);
width = 1677;
}
);
note = ae;
unicode = 00E6;
},
{
glyphname = eth;
lastChange = "2017-05-19 14:54:14 +0000";
layers = (
{
layerId = "173B8943-1C9C-4036-959A-12BE1501493B";
paths = (
{
closed = 1;
nodes = (
"595 -24 OFFCURVE",
"689 3 OFFCURVE",
"768 59 CURVE SMOOTH",
"927 170 OFFCURVE",
"1024 360 OFFCURVE",
"1052 555 CURVE SMOOTH",
"1064 642 LINE SMOOTH",
"1095 878 OFFCURVE",
"1051 1098 OFFCURVE",
"931 1302 CURVE",
"1095 1396 LINE",
"1034 1517 LINE",
"834 1396 LINE",
"736 1482 OFFCURVE",
"612 1543 OFFCURVE",
"462 1580 CURVE",
"371 1386 LINE",
"482 1355 OFFCURVE",
"568 1315 OFFCURVE",
"628 1265 CURVE",
"443 1157 LINE",
"506 1036 LINE",
"732 1173 LINE",
"795 1083 OFFCURVE",
"828 986 OFFCURVE",
"831 882 CURVE",
"686 1001 OFFCURVE",
"476 1001 OFFCURVE",
"330 906 CURVE SMOOTH",
"184 810 OFFCURVE",
"96 641 OFFCURVE",
"80 460 CURVE SMOOTH",
"56 201 OFFCURVE",
"220 -14 OFFCURVE",
"487 -21 CURVE SMOOTH"
);
},
{
closed = 1;
nodes = (
"326 546 OFFCURVE",
"357 623 OFFCURVE",
"410 690 CURVE SMOOTH",
"514 824 OFFCURVE",
"761 815 OFFCURVE",
"832 684 CURVE",
"826 645 LINE",
"811 541 LINE SMOOTH",
"803 485 OFFCURVE",
"787 429 OFFCURVE",
"764 372 CURVE SMOOTH",
"716 259 OFFCURVE",
"634 169 OFFCURVE",
"505 173 CURVE SMOOTH",
"353 178 OFFCURVE",
"301 328 OFFCURVE",
"316 460 CURVE SMOOTH"
);
}
);
width = 1155;
}
);
note = eth;
unicode = 00F0;
},
{
glyphname = divide;
lastChange = "2017-05-19 14:54:14 +0000";
layers = (
{
layerId = "173B8943-1C9C-4036-959A-12BE1501493B";
paths = (
{
closed = 1;
nodes = (
"508 1012 OFFCURVE",
"570 962 OFFCURVE",
"647 963 CURVE SMOOTH",
"724 964 OFFCURVE",
"784 1020 OFFCURVE",
"784 1099 CURVE SMOOTH",
"784 1179 OFFCURVE",
"724 1231 OFFCURVE",
"645 1230 CURVE SMOOTH",
"566 1229 OFFCURVE",
"507 1171 OFFCURVE",
"508 1091 CURVE SMOOTH"
);
},
{
closed = 1;
nodes = (
"62 583 LINE",
"1045 583 LINE",
"1083 795 LINE",
"100 795 LINE"
);
},
{
closed = 1;
nodes = (
"367 196 OFFCURVE",
"428 143 OFFCURVE",
"505 146 CURVE SMOOTH",
"584 147 OFFCURVE",
"643 204 OFFCURVE",
"642 283 CURVE",
"642 362 OFFCURVE",
"581 414 OFFCURVE",
"504 413 CURVE SMOOTH",
"425 412 OFFCURVE",
"366 355 OFFCURVE",
"366 275 CURVE SMOOTH"
);
}
);
width = 1135;
}
);
note = divide;
unicode = 00F7;
},
{
glyphname = oslash;
lastChange = "2017-05-19 14:54:14 +0000";
layers = (
{
layerId = "173B8943-1C9C-4036-959A-12BE1501493B";
paths = (
{
closed = 1;
nodes = (
"583 -23 OFFCURVE",
"677 1 OFFCURVE",
"758 52 CURVE SMOOTH",
"918 153 OFFCURVE",
"1018 331 OFFCURVE",
"1043 532 CURVE SMOOTH",
"1045 553 LINE SMOOTH",
"1062 713 OFFCURVE",
"1037 877 OFFCURVE",
"930 1001 CURVE",
"1075 1211 LINE",
"921 1212 LINE",
"824 1067 LINE",
"700 1114 OFFCURVE",
"514 1131 OFFCURVE",
"354 1030 CURVE SMOOTH",
"194 929 OFFCURVE",
"93 750 OFFCURVE",
"68 549 CURVE SMOOTH",
"66 528 LINE SMOOTH",
"49 365 OFFCURVE",
"76 197 OFFCURVE",
"189 74 CURVE",
"43 -137 LINE",
"197 -138 LINE",
"297 11 LINE",
"356 -10 OFFCURVE",
"416 -21 OFFCURVE",
"476 -22 CURVE SMOOTH"
);
},
{
closed = 1;
nodes = (
"291 613 OFFCURVE",
"369 916 OFFCURVE",
"625 911 CURVE SMOOTH",
"658 910 OFFCURVE",
"689 903 OFFCURVE",
"716 890 CURVE",
"311 275 LINE",
"297 316 OFFCURVE",
"290 358 OFFCURVE",
"291 401 CURVE SMOOTH"
);
},
{
closed = 1;
nodes = (
"819 597 OFFCURVE",
"805 475 OFFCURVE",
"756 363 CURVE SMOOTH",
"707 251 OFFCURVE",
"621 168 OFFCURVE",
"486 171 CURVE SMOOTH",
"459 172 OFFCURVE",
"432 177 OFFCURVE",
"405 187 CURVE",
"804 794 LINE",
"815 755 OFFCURVE",
"821 715 OFFCURVE",
"820 674 CURVE SMOOTH"
);
}
);
width = 1126;
}
);
note = oslash;
unicode = 00F8;
},
{
glyphname = thorn;
lastChange = "2017-05-19 14:54:14 +0000";
layers = (
{
layerId = "173B8943-1C9C-4036-959A-12BE1501493B";
paths = (
{
closed = 1;
nodes = (
"651 -23 OFFCURVE",
"736 4 OFFCURVE",
"804 59 CURVE SMOOTH",
"940 170 OFFCURVE",
"1015 355 OFFCURVE",
"1036 531 CURVE SMOOTH",
"1038 553 LINE SMOOTH",
"1055 716 OFFCURVE",
"1032 897 OFFCURVE",
"930 1012 CURVE SMOOTH",
"828 1127 OFFCURVE",
"581 1144 OFFCURVE",
"420 983 CURVE",
"526 1536 LINE",
"289 1536 LINE",
"-50 -416 LINE",
"188 -416 LINE",
"285 98 LINE",
"349 21 OFFCURVE",
"437 -18 OFFCURVE",
"550 -21 CURVE SMOOTH"
);
},
{
closed = 1;
nodes = (
"688 903 OFFCURVE",
"732 882 OFFCURVE",
"758 843 CURVE SMOOTH",
"810 764 OFFCURVE",
"811 660 OFFCURVE",
"798 533 CURVE SMOOTH",
"783 422 OFFCURVE",
"740 302 OFFCURVE",
"656 227 CURVE SMOOTH",
"572 152 OFFCURVE",
"376 138 OFFCURVE",
"311 298 CURVE",
"396 782 LINE",
"461 867 OFFCURVE",
"538 908 OFFCURVE",
"627 905 CURVE SMOOTH"
);
}
);
width = 1140;
}
);
note = thorn;
rightKerningGroup = b;
unicode = 00FE;
},
{
glyphname = dcroat;
lastChange = "2017-05-19 14:54:14 +0000";
layers = (
{
layerId = "173B8943-1C9C-4036-959A-12BE1501493B";
paths = (
{
closed = 1;
nodes = (
"1106 1224 LINE",
"1276 1224 LINE",
"1306 1395 LINE",
"1136 1395 LINE",
"1161 1536 LINE",
"923 1536 LINE",
"898 1395 LINE",
"655 1395 LINE",
"624 1224 LINE",
"869 1224 LINE",
"819 981 LINE",
"694 1137 OFFCURVE",
"447 1131 OFFCURVE",
"314 1031 CURVE SMOOTH",
"180 931 OFFCURVE",
"97 763 OFFCURVE",
"65 526 CURVE SMOOTH",
"49 370 OFFCURVE",
"78 187 OFFCURVE",
"181 71 CURVE SMOOTH",
"284 -46 OFFCURVE",
"530 -70 OFFCURVE",
"698 113 CURVE",
"681 0 LINE",
"894 0 LINE"
);
},
{
closed = 1;
nodes = (
"321 659 OFFCURVE",
"364 780 OFFCURVE",
"448 854 CURVE SMOOTH",
"532 928 OFFCURVE",
"728 943 OFFCURVE",
"792 776 CURVE",
"710 312 LINE",
"644 220 OFFCURVE",
"565 176 OFFCURVE",
"474 179 CURVE SMOOTH",
"413 181 OFFCURVE",
"370 202 OFFCURVE",
"345 241 CURVE SMOOTH",
"293 319 OFFCURVE",
"292 436 OFFCURVE",
"303 527 CURVE SMOOTH",
"305 548 LINE"
);
}
);
width = 1224;
}
);
note = dcroat;
unicode = 0111;
},
{
glyphname = Hbar;
lastChange = "2017-05-19 14:54:14 +0000";
layers = (
{
layerId = "173B8943-1C9C-4036-959A-12BE1501493B";
paths = (
{
closed = 1;
nodes = (
"1348 1037 LINE",
"1471 1037 LINE",
"1499 1198 LINE",
"1375 1198 LINE",
"1420 1456 LINE",
"1174 1456 LINE",
"1129 1198 LINE",
"499 1198 LINE",
"544 1456 LINE",
"297 1456 LINE",
"252 1198 LINE",
"133 1198 LINE",
"105 1037 LINE",
"225 1037 LINE",
"45 0 LINE",
"292 0 LINE",
"404 648 LINE",
"1034 648 LINE",
"922 0 LINE",
"1168 0 LINE"
);
},
{
closed = 1;
nodes = (
"1102 1037 LINE",
"1069 850 LINE",
"439 850 LINE",
"472 1037 LINE"
);
}
);
width = 1412;
}
);
note = Hbar;
unicode = 0126;
},
{
glyphname = dotlessi;
lastChange = "2017-05-19 14:54:14 +0000";
layers = (
{
layerId = "173B8943-1C9C-4036-959A-12BE1501493B";
paths = (
{
closed = 1;
nodes = (
"34 0 LINE",
"271 0 LINE",
"459 1082 LINE",
"222 1082 LINE"
);
}
);
width = 523;
}
);
note = dotlessi;
unicode = 0131;
},
{
glyphname = kgreenlandic;
lastChange = "2017-05-19 14:54:14 +0000";
layers = (
{
layerId = "173B8943-1C9C-4036-959A-12BE1501493B";
paths = (
{
closed = 1;
nodes = (
"661 547 LINE",
"1166 1082 LINE",
"855 1082 LINE",
"454 651 LINE",
"383 651 LINE",
"458 1082 LINE",
"221 1082 LINE",
"33 0 LINE",
"270 0 LINE",
"345 429 LINE",
"458 429 LINE",
"702 0 LINE",
"985 0 LINE"
);
}
);
width = 1141;
}
);
note = kgreenlandic;
unicode = 0138;
},
{
glyphname = Lslash;
lastChange = "2017-05-19 14:54:14 +0000";
layers = (
{
layerId = "173B8943-1C9C-4036-959A-12BE1501493B";
paths = (
{
closed = 1;
nodes = (
"426 721 LINE",
"666 792 LINE",
"693 947 LINE",
"452 877 LINE",
"553 1456 LINE",
"307 1456 LINE",
"193 800 LINE",
"59 760 LINE",
"32 605 LINE",
"166 644 LINE",
"54 0 LINE",
"942 0 LINE",
"977 202 LINE",
"335 202 LINE"
);
}
);
width = 1090;
}
);
note = Lslash;
unicode = 0141;
},
{
glyphname = lslash;
lastChange = "2017-05-19 14:54:14 +0000";
layers = (
{
layerId = "173B8943-1C9C-4036-959A-12BE1501493B";
paths = (
{
closed = 1;
nodes = (
"450 896 LINE",
"561 1536 LINE",
"324 1536 LINE",
"198 808 LINE",
"59 761 LINE",
"32 605 LINE",
"171 653 LINE",
"57 0 LINE",
"295 0 LINE",
"423 740 LINE",
"575 792 LINE",
"603 948 LINE"
);
}
);
width = 573;
}
);
note = lslash;
unicode = 0142;
},
{
glyphname = Eng;
lastChange = "2017-05-19 14:54:14 +0000";
layers = (
{
layerId = "173B8943-1C9C-4036-959A-12BE1501493B";
paths = (
{
closed = 1;
nodes = (
"464 1057 LINE",
"905 0 LINE",
"894 -58 LINE SMOOTH",
"877 -142 OFFCURVE",
"835 -237 OFFCURVE",
"734 -237 CURVE SMOOTH",
"710 -237 OFFCURVE",
"678 -232 OFFCURVE",
"638 -222 CURVE",
"603 -420 LINE",
"652 -433 OFFCURVE",
"697 -440 OFFCURVE",
"738 -440 CURVE SMOOTH",
"975 -443 OFFCURVE",
"1113 -282 OFFCURVE",
"1141 -57 CURVE",
"1399 1456 LINE",
"1152 1456 LINE",
"969 402 LINE",
"525 1456 LINE",
"287 1456 LINE",
"34 0 LINE",
"280 0 LINE"
);
}
);
width = 1385;
}
);
note = Eng;
unicode = 014A;
},
{
glyphname = eng;
lastChange = "2017-05-19 14:54:14 +0000";
layers = (
{
layerId = "173B8943-1C9C-4036-959A-12BE1501493B";
paths = (
{
closed = 1;
nodes = (
"1020 781 OFFCURVE",
"1006 879 OFFCURVE",
"966 967 CURVE SMOOTH",
"885 1143 OFFCURVE",
"578 1164 OFFCURVE",
"399 931 CURVE",
"422 1083 LINE",
"206 1082 LINE",
"18 0 LINE",
"255 0 LINE",
"396 801 LINE",
"465 872 OFFCURVE",
"543 907 OFFCURVE",
"629 904 CURVE SMOOTH",
"769 900 OFFCURVE",
"786 792 OFFCURVE",
"771 673 CURVE",
"651 -63 LINE SMOOTH",
"636 -151 OFFCURVE",
"595 -239 OFFCURVE",
"494 -239 CURVE SMOOTH",
"469 -239 OFFCURVE",
"437 -234 OFFCURVE",
"397 -224 CURVE",
"363 -420 LINE",
"412 -433 OFFCURVE",
"456 -439 OFFCURVE",
"496 -440 CURVE SMOOTH",
"732 -443 OFFCURVE",
"861 -284 OFFCURVE",
"890 -63 CURVE SMOOTH",
"1009 674 LINE"
);
}
);
width = 1126;
}
);
note = eng;
unicode = 014B;
},
{
glyphname = OE;
lastChange = "2017-05-19 14:54:14 +0000";
layers = (
{
layerId = "173B8943-1C9C-4036-959A-12BE1501493B";
paths = (
{
closed = 1;
nodes = (
"1114 651 LINE",
"1694 651 LINE",
"1729 850 LINE",
"1148 850 LINE",
"1218 1253 LINE",
"1890 1253 LINE",
"1926 1456 LINE",
"1076 1456 LINE",
"866 1476 LINE",
"796 1478 LINE SMOOTH",
"441 1479 OFFCURVE",
"193 1219 OFFCURVE",
"144 879 CURVE SMOOTH",
"96 576 LINE SMOOTH",
"82 470 OFFCURVE",
"92 372 OFFCURVE",
"126 283 CURVE SMOOTH",
"194 104 OFFCURVE",
"347 -15 OFFCURVE",
"570 -19 CURVE SMOOTH",
"638 -18 LINE",
"853 0 LINE",
"1679 0 LINE",
"1714 202 LINE",
"1036 202 LINE"
);
},
{
closed = 1;
nodes = (
"415 1103 OFFCURVE",
"548 1287 OFFCURVE",
"788 1286 CURVE SMOOTH",
"847 1285 OFFCURVE",
"911 1279 OFFCURVE",
"979 1269 CURVE",
"782 187 LINE",
"607 170 OFFCURVE",
"486 161 OFFCURVE",
"410 239 CURVE SMOOTH",
"333 317 OFFCURVE",
"316 446 OFFCURVE",
"332 575 CURVE SMOOTH",
"380 882 LINE SMOOTH"
);
}
);
width = 1913;
}
);
leftKerningGroup = C;
note = OE;
unicode = 0152;
},
{
glyphname = oe;
lastChange = "2017-05-19 14:54:14 +0000";
layers = (
{
layerId = "173B8943-1C9C-4036-959A-12BE1501493B";
paths = (
{
closed = 1;
nodes = (
"1448 203 OFFCURVE",
"1345 173 OFFCURVE",
"1247 176 CURVE SMOOTH",
"1083 181 OFFCURVE",
"1033 330 OFFCURVE",
"1048 471 CURVE",
"1704 471 LINE",
"1726 615 LINE SMOOTH",
"1742 745 OFFCURVE",
"1720 858 OFFCURVE",
"1659 954 CURVE SMOOTH",
"1537 1146 OFFCURVE",
"1211 1167 OFFCURVE",
"983 927 CURVE",
"946 987 OFFCURVE",
"897 1031 OFFCURVE",
"834 1059 CURVE SMOOTH",
"709 1115 OFFCURVE",
"517 1132 OFFCURVE",
"359 1029 CURVE SMOOTH",
"201 926 OFFCURVE",
"104 748 OFFCURVE",
"79 549 CURVE SMOOTH",
"77 527 LINE SMOOTH",
"57 343 OFFCURVE",
"108 168 OFFCURVE",
"234 62 CURVE SMOOTH",
"360 -44 OFFCURVE",
"651 -84 OFFCURVE",
"876 153 CURVE",
"951 34 OFFCURVE",
"1089 -18 OFFCURVE",
"1225 -21 CURVE SMOOTH",
"1361 -22 OFFCURVE",
"1515 11 OFFCURVE",
"1619 106 CURVE",
"1555 267 LINE"
);
},
{
closed = 1;
nodes = (
"1473 905 OFFCURVE",
"1518 796 OFFCURVE",
"1499 677 CURVE",
"1493 648 LINE",
"1070 649 LINE",
"1115 766 OFFCURVE",
"1192 913 OFFCURVE",
"1340 909 CURVE SMOOTH"
);
},
{
closed = 1;
nodes = (
"331 655 OFFCURVE",
"374 779 OFFCURVE",
"459 855 CURVE SMOOTH",
"543 930 OFFCURVE",
"701 925 OFFCURVE",
"757 847 CURVE SMOOTH",
"812 769 OFFCURVE",
"815 664 OFFCURVE",
"803 532 CURVE",
"788 421 OFFCURVE",
"743 299 OFFCURVE",
"658 225 CURVE SMOOTH",
"573 151 OFFCURVE",
"416 156 OFFCURVE",
"361 233 CURVE SMOOTH",
"306 310 OFFCURVE",
"304 412 OFFCURVE",
"316 544 CURVE"
);
}
);
width = 1795;
}
);
leftKerningGroup = c;
note = oe;
unicode = 0153;
},
{
glyphname = longs;
lastChange = "2017-05-19 14:54:14 +0000";
layers = (
{
layerId = "173B8943-1C9C-4036-959A-12BE1501493B";
paths = (
{
closed = 1;
nodes = (
"491 1301 OFFCURVE",
"557 1366 OFFCURVE",
"668 1365 CURVE SMOOTH",
"693 1365 OFFCURVE",
"723 1361 OFFCURVE",
"757 1352 CURVE",
"801 1536 LINE",
"732 1552 OFFCURVE",
"679 1560 OFFCURVE",
"643 1560 CURVE SMOOTH",
"407 1564 OFFCURVE",
"261 1411 OFFCURVE",
"232 1184 CURVE",
"30 0 LINE",
"267 0 LINE",
"468 1169 LINE SMOOTH"
);
}
);
width = 509;
}
);
note = longs;
unicode = 017F;
},
{
glyphname = uni0181;
lastChange = "2017-05-19 14:54:14 +0000";
layers = (
{
layerId = "173B8943-1C9C-4036-959A-12BE1501493B";
paths = (
{
closed = 1;
nodes = (
"119 1087 OFFCURVE",
"121 1044 OFFCURVE",
"128 1001 CURVE",
"316 1001 LINE",
"313 1038 LINE",
"314 1075 LINE",
"327 1188 OFFCURVE",
"392 1248 OFFCURVE",
"507 1256 CURVE",
"287 0 LINE",
"823 0 LINE SMOOTH",
"1100 0 OFFCURVE",
"1345 133 OFFCURVE",
"1366 433 CURVE SMOOTH",
"1375 569 OFFCURVE",
"1323 704 OFFCURVE",
"1187 753 CURVE",
"1326 814 OFFCURVE",
"1434 911 OFFCURVE",
"1446 1070 CURVE SMOOTH",
"1467 1349 OFFCURVE",
"1249 1454 OFFCURVE",
"1001 1455 CURVE SMOOTH",
"529 1457 LINE",
"529 1456 LINE",
"313 1459 OFFCURVE",
"141 1357 OFFCURVE",
"122 1128 CURVE SMOOTH"
);
},
{
closed = 1;
nodes = (
"1134 1248 OFFCURVE",
"1217 1197 OFFCURVE",
"1197 1056 CURVE SMOOTH",
"1177 908 OFFCURVE",
"1047 843 OFFCURVE",
"908 842 CURVE SMOOTH",
"680 844 LINE",
"751 1253 LINE",
"1005 1252 LINE SMOOTH"
);
},
{
closed = 1;
nodes = (
"1102 279 OFFCURVE",
"975 201 OFFCURVE",
"827 201 CURVE SMOOTH",
"568 202 LINE",
"647 657 LINE",
"943 656 LINE SMOOTH",
"1082 651 OFFCURVE",
"1142 577 OFFCURVE",
"1123 434 CURVE SMOOTH"
);
}
);
width = 1500;
}
);
note = uni0181;
unicode = 0181;
},
{
glyphname = uni0183;
lastChange = "2017-05-19 14:54:14 +0000";
layers = (
{
layerId = "173B8943-1C9C-4036-959A-12BE1501493B";
paths = (
{
closed = 1;
nodes = (
"271 119 LINE",
"395 -62 OFFCURVE",
"664 -52 OFFCURVE",
"800 59 CURVE SMOOTH",
"935 170 OFFCURVE",
"1009 355 OFFCURVE",
"1030 531 CURVE SMOOTH",
"1032 553 LINE SMOOTH",
"1049 716 OFFCURVE",
"1025 897 OFFCURVE",
"924 1012 CURVE SMOOTH",
"823 1127 OFFCURVE",
"572 1148 OFFCURVE",
"411 976 CURVE",
"489 1365 LINE",
"966 1365 LINE",
"996 1536 LINE",
"282 1536 LINE",
"16 0 LINE",
"233 0 LINE"
);
},
{
closed = 1;
nodes = (
"690 903 OFFCURVE",
"734 883 OFFCURVE",
"759 844 CURVE SMOOTH",
"809 766 OFFCURVE",
"807 645 OFFCURVE",
"796 553 CURVE SMOOTH",
"793 532 LINE SMOOTH",
"780 421 OFFCURVE",
"740 302 OFFCURVE",
"658 230 CURVE SMOOTH",
"576 157 OFFCURVE",
"369 138 OFFCURVE",
"308 319 CURVE",
"385 765 LINE",
"450 861 OFFCURVE",
"531 908 OFFCURVE",
"627 905 CURVE SMOOTH"
);
}
);
width = 1118;
}
);
note = uni0183;
rightKerningGroup = b;
unicode = 0183;
},
{
glyphname = uni0184;
lastChange = "2017-05-19 14:54:14 +0000";
layers = (
{
layerId = "173B8943-1C9C-4036-959A-12BE1501493B";
paths = (
{
closed = 1;
nodes = (
"1288 743 OFFCURVE",
"1082 893 OFFCURVE",
"819 898 CURVE SMOOTH",
"547 899 LINE",
"644 1456 LINE",
"388 1456 LINE",
"198 1276 LINE",
"179 1168 LINE",
"315 978 LINE",
"145 0 LINE",
"703 0 LINE SMOOTH",
"986 1 OFFCURVE",
"1240 159 OFFCURVE",
"1265 462 CURVE SMOOTH"
);
},
{
closed = 1;
nodes = (
"813 695 LINE SMOOTH",
"953 690 OFFCURVE",
"1038 608 OFFCURVE",
"1018 465 CURVE SMOOTH",
"997 298 OFFCURVE",
"864 201 OFFCURVE",
"701 200 CURVE SMOOTH",
"427 202 LINE",
"513 696 LINE"
);
}
);
width = 1358;
}
);
note = uni0184;
unicode = 0184;
},
{
glyphname = uni0185;
lastChange = "2017-05-19 14:54:14 +0000";
layers = (
{
layerId = "173B8943-1C9C-4036-959A-12BE1501493B";
paths = (
{
closed = 1;
nodes = (
"769 -23 OFFCURVE",
"854 3 OFFCURVE",
"922 58 CURVE SMOOTH",
"1047 159 OFFCURVE",
"1125 319 OFFCURVE",
"1155 537 CURVE SMOOTH",
"1157 553 LINE SMOOTH",
"1174 716 OFFCURVE",
"1150 897 OFFCURVE",
"1048 1012 CURVE SMOOTH",
"946 1127 OFFCURVE",
"696 1148 OFFCURVE",
"536 977 CURVE",
"643 1536 LINE",
"396 1536 LINE",
"206 1356 LINE",
"187 1248 LINE",
"323 1058 LINE",
"139 0 LINE",
"356 0 LINE",
"394 119 LINE",
"456 28 OFFCURVE",
"547 -18 OFFCURVE",
"668 -21 CURVE SMOOTH"
);
},
{
closed = 1;
nodes = (
"814 903 OFFCURVE",
"857 882 OFFCURVE",
"882 843 CURVE SMOOTH",
"931 764 OFFCURVE",
"930 645 OFFCURVE",
"919 553 CURVE SMOOTH",
"916 532 LINE SMOOTH",
"903 423 OFFCURVE",
"862 302 OFFCURVE",
"781 230 CURVE SMOOTH",
"700 157 OFFCURVE",
"493 138 OFFCURVE",
"432 318 CURVE",
"509 766 LINE",
"576 861 OFFCURVE",
"656 908 OFFCURVE",
"751 905 CURVE SMOOTH"
);
}
);
width = 1242;
}
);
note = uni0185;
rightKerningGroup = b;
unicode = 0185;
},
{
glyphname = uni0186;
lastChange = "2017-05-19 14:54:14 +0000";
layers = (
{
layerId = "173B8943-1C9C-4036-959A-12BE1501493B";
paths = (
{
closed = 1;
nodes = (
"55 335 OFFCURVE",
"98 216 OFFCURVE",
"178 123 CURVE SMOOTH",
"337 -62 OFFCURVE",
"679 -56 OFFCURVE",
"871 74 CURVE SMOOTH",
"1062 204 OFFCURVE",
"1176 430 OFFCURVE",
"1212 670 CURVE SMOOTH",
"1228 788 LINE SMOOTH",
"1243 899 OFFCURVE",
"1237 1007 OFFCURVE",
"1211 1112 CURVE SMOOTH",
"1159 1320 OFFCURVE",
"1017 1472 OFFCURVE",
"762 1476 CURVE SMOOTH",
"451 1483 OFFCURVE",
"197 1292 OFFCURVE",
"148 981 CURVE",
"392 983 LINE",
"439 1167 OFFCURVE",
"551 1280 OFFCURVE",
"750 1273 CURVE SMOOTH",
"921 1266 OFFCURVE",
"981 1144 OFFCURVE",
"988 996 CURVE SMOOTH",
"990 955 OFFCURVE",
"990 918 OFFCURVE",
"989 884 CURVE SMOOTH",
"985 815 OFFCURVE",
"964 597 OFFCURVE",
"900 442 CURVE SMOOTH",
"835 287 OFFCURVE",
"721 178 OFFCURVE",
"540 183 CURVE SMOOTH",
"353 190 OFFCURVE",
"298 313 OFFCURVE",
"294 482 CURVE",
"49 482 LINE"
);
}
);
width = 1297;
}
);
note = uni0186;
rightKerningGroup = D;
unicode = 0186;
},
{
glyphname = uni0187;
lastChange = "2017-05-19 14:54:14 +0000";
layers = (
{
layerId = "173B8943-1C9C-4036-959A-12BE1501493B";
paths = (
{
closed = 1;
nodes = (
"1555 1332 OFFCURVE",
"1579 1329 OFFCURVE",
"1606 1322 CURVE",
"1627 1524 LINE",
"1570 1536 OFFCURVE",
"1526 1542 OFFCURVE",
"1493 1542 CURVE SMOOTH",
"1351 1543 OFFCURVE",
"1243 1479 OFFCURVE",
"1168 1348 CURVE",
"1076 1443 OFFCURVE",
"942 1475 OFFCURVE",
"814 1476 CURVE SMOOTH",
"681 1478 OFFCURVE",
"567 1447 OFFCURVE",
"471 1382 CURVE SMOOTH",
"279 1253 OFFCURVE",
"164 1030 OFFCURVE",
"128 787 CURVE SMOOTH",
"111 669 LINE SMOOTH",
"97 558 OFFCURVE",
"103 450 OFFCURVE",
"129 346 CURVE SMOOTH",
"180 137 OFFCURVE",
"322 -15 OFFCURVE",
"577 -20 CURVE SMOOTH",
"888 -27 OFFCURVE",
"1143 163 OFFCURVE",
"1192 475 CURVE",
"947 473 LINE",
"902 289 OFFCURVE",
"789 176 OFFCURVE",
"590 183 CURVE SMOOTH",
"419 190 OFFCURVE",
"360 312 OFFCURVE",
"353 461 CURVE SMOOTH",
"351 502 OFFCURVE",
"351 539 OFFCURVE",
"353 574 CURVE SMOOTH",
"356 642 OFFCURVE",
"377 860 OFFCURVE",
"442 1015 CURVE SMOOTH",
"506 1170 OFFCURVE",
"620 1278 OFFCURVE",
"801 1273 CURVE SMOOTH",
"989 1266 OFFCURVE",
"1040 1143 OFFCURVE",
"1047 974 CURVE",
"1287 975 LINE",
"1319 1171 LINE SMOOTH",
"1340 1282 OFFCURVE",
"1412 1336 OFFCURVE",
"1534 1333 CURVE SMOOTH"
);
}
);
width = 1421;
}
);
leftKerningGroup = C;
note = uni0187;
unicode = 0187;
},
{
glyphname = uni0188;
lastChange = "2017-05-19 14:54:14 +0000";
layers = (
{
layerId = "173B8943-1C9C-4036-959A-12BE1501493B";
paths = (
{
closed = 1;
nodes = (
"1290 1163 LINE",
"1248 1173 OFFCURVE",
"1209 1179 OFFCURVE",
"1173 1180 CURVE SMOOTH",
"1052 1180 OFFCURVE",
"960 1122 OFFCURVE",
"897 1007 CURVE",
"827 1070 OFFCURVE",
"736 1102 OFFCURVE",
"624 1103 CURVE SMOOTH",
"304 1108 OFFCURVE",
"106 856 OFFCURVE",
"69 557 CURVE SMOOTH",
"65 520 LINE SMOOTH",
"56 427 OFFCURVE",
"63 340 OFFCURVE",
"88 259 CURVE SMOOTH",
"137 96 OFFCURVE",
"261 -16 OFFCURVE",
"466 -21 CURVE SMOOTH",
"690 -25 OFFCURVE",
"911 127 OFFCURVE",
"935 358 CURVE",
"712 357 LINE",
"685 248 OFFCURVE",
"592 171 OFFCURVE",
"476 174 CURVE SMOOTH",
"349 177 OFFCURVE",
"304 263 OFFCURVE",
"297 370 CURVE SMOOTH",
"290 475 OFFCURVE",
"304 613 OFFCURVE",
"349 723 CURVE SMOOTH",
"393 833 OFFCURVE",
"474 913 OFFCURVE",
"606 908 CURVE SMOOTH",
"729 903 OFFCURVE",
"781 806 OFFCURVE",
"782 694 CURVE",
"998 695 LINE",
"1025 858 LINE SMOOTH",
"1044 961 OFFCURVE",
"1107 1012 OFFCURVE",
"1213 1009 CURVE",
"1274 1000 LINE"
);
}
);
width = 1186;
}
);
leftKerningGroup = c;
note = uni0188;
unicode = 0188;
},
{
glyphname = uni018A;
lastChange = "2017-05-19 14:54:14 +0000";
layers = (
{
layerId = "173B8943-1C9C-4036-959A-12BE1501493B";
paths = (
{
closed = 1;
nodes = (
"119 1087 OFFCURVE",
"121 1044 OFFCURVE",
"129 1001 CURVE",
"316 1001 LINE",
"313 1038 LINE",
"315 1075 LINE",
"328 1188 OFFCURVE",
"393 1248 OFFCURVE",
"509 1256 CURVE",
"287 0 LINE",
"733 0 LINE SMOOTH",
"1118 9 OFFCURVE",
"1414 292 OFFCURVE",
"1463 707 CURVE SMOOTH",
"1470 768 LINE SMOOTH",
"1484 889 OFFCURVE",
"1474 1001 OFFCURVE",
"1439 1104 CURVE SMOOTH",
"1370 1311 OFFCURVE",
"1203 1450 OFFCURVE",
"942 1455 CURVE SMOOTH",
"530 1457 LINE",
"530 1456 LINE",
"314 1459 OFFCURVE",
"141 1357 OFFCURVE",
"122 1128 CURVE SMOOTH"
);
},
{
closed = 1;
nodes = (
"1027 1249 OFFCURVE",
"1096 1224 OFFCURVE",
"1141 1175 CURVE SMOOTH",
"1231 1078 OFFCURVE",
"1245 920 OFFCURVE",
"1225 767 CURVE SMOOTH",
"1214 685 LINE SMOOTH",
"1171 414 OFFCURVE",
"1007 200 OFFCURVE",
"715 201 CURVE SMOOTH",
"568 202 LINE",
"751 1253 LINE",
"936 1252 LINE SMOOTH"
);
}
);
width = 1545;
}
);
note = uni018A;
rightKerningGroup = D;
unicode = 018A;
},
{
glyphname = uni018B;
lastChange = "2017-05-19 14:54:14 +0000";
layers = (
{
layerId = "173B8943-1C9C-4036-959A-12BE1501493B";
paths = (
{
closed = 1;
nodes = (
"368 1456 LINE",
"332 1253 LINE",
"985 1253 LINE",
"923 899 LINE",
"622 900 LINE SMOOTH",
"337 900 OFFCURVE",
"76 752 OFFCURVE",
"51 447 CURVE SMOOTH",
"27 163 OFFCURVE",
"228 9 OFFCURVE",
"495 1 CURVE SMOOTH",
"1013 0 LINE",
"1266 1456 LINE"
);
},
{
closed = 1;
nodes = (
"357 210 OFFCURVE",
"279 305 OFFCURVE",
"298 449 CURVE SMOOTH",
"321 613 OFFCURVE",
"456 697 OFFCURVE",
"613 698 CURVE SMOOTH",
"888 696 LINE",
"802 202 LINE",
"501 203 LINE"
);
}
);
width = 1249;
}
);
note = uni018B;
rightKerningGroup = H;
unicode = 018B;
},
{
glyphname = uni018C;
lastChange = "2017-05-19 14:54:14 +0000";
layers = (
{
layerId = "173B8943-1C9C-4036-959A-12BE1501493B";
paths = (
{
closed = 1;
nodes = (
"818 981 LINE",
"693 1137 OFFCURVE",
"439 1134 OFFCURVE",
"302 1023 CURVE SMOOTH",
"165 911 OFFCURVE",
"90 725 OFFCURVE",
"67 548 CURVE",
"65 526 LINE SMOOTH",
"49 370 OFFCURVE",
"77 187 OFFCURVE",
"180 71 CURVE SMOOTH",
"283 -46 OFFCURVE",
"529 -70 OFFCURVE",
"697 113 CURVE",
"680 0 LINE",
"893 0 LINE",
"1160 1536 LINE",
"446 1536 LINE",
"416 1365 LINE",
"893 1365 LINE"
);
},
{
closed = 1;
nodes = (
"319 659 OFFCURVE",
"362 780 OFFCURVE",
"447 854 CURVE SMOOTH",
"531 928 OFFCURVE",
"727 943 OFFCURVE",
"791 776 CURVE",
"709 312 LINE",
"643 220 OFFCURVE",
"564 176 OFFCURVE",
"473 179 CURVE SMOOTH",
"412 181 OFFCURVE",
"369 202 OFFCURVE",
"344 241 CURVE SMOOTH",
"292 319 OFFCURVE",
"291 436 OFFCURVE",
"302 527 CURVE SMOOTH",
"304 548 LINE"
);
}
);
width = 1122;
}
);
note = uni018C;
unicode = 018C;
},
{
glyphname = uni018D;
lastChange = "2017-05-19 14:54:14 +0000";
layers = (
{
layerId = "173B8943-1C9C-4036-959A-12BE1501493B";
paths = (
{
closed = 1;
nodes = (
"724 -187 OFFCURVE",
"680 -136 OFFCURVE",
"634 -85 CURVE SMOOTH",
"587 -35 OFFCURVE",
"545 17 OFFCURVE",
"506 72 CURVE",
"553 75 LINE",
"813 103 OFFCURVE",
"1010 306 OFFCURVE",
"1039 565 CURVE SMOOTH",
"1041 587 LINE SMOOTH",
"1068 862 OFFCURVE",
"925 1094 OFFCURVE",
"630 1101 CURVE SMOOTH",
"317 1109 OFFCURVE",
"111 864 OFFCURVE",
"75 568 CURVE SMOOTH",
"73 546 LINE SMOOTH",
"53 339 OFFCURVE",
"133 168 OFFCURVE",
"400 -95 CURVE SMOOTH",
"429 -123 OFFCURVE",
"452 -152 OFFCURVE",
"469 -182 CURVE",
"54 -183 LINE",
"20 -376 LINE",
"747 -376 LINE",
"767 -240 LINE"
);
},
{
closed = 1;
nodes = (
"776 385 OFFCURVE",
"679 209 OFFCURVE",
"484 214 CURVE SMOOTH",
"465 215 OFFCURVE",
"442 218 OFFCURVE",
"416 223 CURVE",
"323 306 OFFCURVE",
"297 427 OFFCURVE",
"309 547 CURVE",
"312 567 LINE SMOOTH",
"323 650 OFFCURVE",
"352 728 OFFCURVE",
"400 802 CURVE SMOOTH",
"496 949 OFFCURVE",
"690 922 OFFCURVE",
"747 854 CURVE SMOOTH",
"803 786 OFFCURVE",
"812 677 OFFCURVE",
"801 577 CURVE SMOOTH",
"799 556 LINE"
);
}
);
width = 1126;
}
);
note = uni018D;
unicode = 018D;
},
{
glyphname = uni018E;
lastChange = "2017-05-19 14:54:14 +0000";
layers = (
{
layerId = "173B8943-1C9C-4036-959A-12BE1501493B";
paths = (
{
closed = 1;
nodes = (
"769 805 LINE",
"190 805 LINE",
"154 606 LINE",
"735 606 LINE",
"665 203 LINE",
"-6 203 LINE",
"-42 0 LINE",
"877 0 LINE",
"1129 1456 LINE",
"204 1456 LINE",
"169 1254 LINE",
"847 1254 LINE"
);
}
);
width = 1123;
}
);
note = uni018E;
rightKerningGroup = H;
unicode = 018E;
},
{
glyphname = uni018F;
lastChange = "2017-05-19 14:54:14 +0000";
layers = (
{
layerId = "173B8943-1C9C-4036-959A-12BE1501493B";
paths = (
{
closed = 1;
nodes = (
"714 -22 OFFCURVE",
"827 10 OFFCURVE",
"926 75 CURVE SMOOTH",
"1123 206 OFFCURVE",
"1250 431 OFFCURVE",
"1285 667 CURVE SMOOTH",
"1302 784 LINE SMOOTH",
"1318 911 OFFCURVE",
"1307 1026 OFFCURVE",
"1270 1130 CURVE SMOOTH",
"1195 1338 OFFCURVE",
"1019 1472 OFFCURVE",
"751 1475 CURVE SMOOTH",
"623 1476 OFFCURVE",
"440 1466 OFFCURVE",
"331 1390 CURVE",
"361 1191 LINE",
"498 1239 OFFCURVE",
"623 1262 OFFCURVE",
"734 1260 CURVE SMOOTH",
"1005 1255 OFFCURVE",
"1096 1041 OFFCURVE",
"1056 797 CURVE",
"112 798 LINE",
"90 656 LINE SMOOTH",
"73 536 OFFCURVE",
"80 425 OFFCURVE",
"109 324 CURVE SMOOTH",
"168 120 OFFCURVE",
"324 -16 OFFCURVE",
"585 -20 CURVE SMOOTH"
);
},
{
closed = 1;
nodes = (
"374 197 OFFCURVE",
"288 359 OFFCURVE",
"325 567 CURVE SMOOTH",
"331 601 LINE",
"1030 601 LINE",
"1009 534 OFFCURVE",
"980 468 OFFCURVE",
"943 405 CURVE SMOOTH",
"870 278 OFFCURVE",
"759 188 OFFCURVE",
"599 192 CURVE SMOOTH"
);
}
);
width = 1374;
}
);
note = uni018F;
rightKerningGroup = D;
unicode = 018F;
},
{
glyphname = uni0190;
lastChange = "2017-05-19 14:54:14 +0000";
layers = (
{
layerId = "173B8943-1C9C-4036-959A-12BE1501493B";
paths = (
{
closed = 1;
nodes = (
"498 847 OFFCURVE",
"412 912 OFFCURVE",
"431 1053 CURVE SMOOTH",
"452 1209 OFFCURVE",
"597 1276 OFFCURVE",
"741 1273 CURVE SMOOTH",
"868 1269 OFFCURVE",
"955 1199 OFFCURVE",
"951 1070 CURVE",
"1195 1069 LINE",
"1202 1326 OFFCURVE",
"997 1472 OFFCURVE",
"754 1477 CURVE SMOOTH",
"573 1481 OFFCURVE",
"393 1424 OFFCURVE",
"281 1297 CURVE SMOOTH",
"169 1170 OFFCURVE",
"116 888 OFFCURVE",
"351 752 CURVE",
"187 691 OFFCURVE",
"65 584 OFFCURVE",
"50 400 CURVE SMOOTH",
"35 201 OFFCURVE",
"133 81 OFFCURVE",
"285 24 CURVE SMOOTH",
"436 -33 OFFCURVE",
"623 -39 OFFCURVE",
"788 23 CURVE SMOOTH",
"953 85 OFFCURVE",
"1074 212 OFFCURVE",
"1091 405 CURVE",
"845 404 LINE",
"821 255 OFFCURVE",
"686 179 OFFCURVE",
"542 180 CURVE SMOOTH",
"402 183 OFFCURVE",
"281 243 OFFCURVE",
"300 400 CURVE SMOOTH",
"320 579 OFFCURVE",
"460 644 OFFCURVE",
"625 644 CURVE SMOOTH",
"777 643 LINE",
"813 842 LINE",
"633 843 LINE SMOOTH"
);
}
);
width = 1201;
}
);
note = uni0190;
unicode = 0190;
},
{
glyphname = uni0191;
lastChange = "2017-05-19 14:54:14 +0000";
layers = (
{
layerId = "173B8943-1C9C-4036-959A-12BE1501493B";
paths = (
{
closed = 1;
nodes = (
"373 1456 LINE",
"112 -63 LINE SMOOTH",
"104 -109 OFFCURVE",
"88 -149 OFFCURVE",
"65 -182 CURVE SMOOTH",
"18 -249 OFFCURVE",
"-44 -236 OFFCURVE",
"-136 -216 CURVE",
"-172 -421 LINE",
"-123 -434 OFFCURVE",
"-79 -440 OFFCURVE",
"-39 -440 CURVE SMOOTH",
"194 -443 OFFCURVE",
"331 -284 OFFCURVE",
"360 -63 CURVE",
"474 617 LINE",
"1042 617 LINE",
"1077 819 LINE",
"508 819 LINE",
"584 1253 LINE",
"1235 1253 LINE",
"1271 1456 LINE"
);
}
);
width = 1173;
}
);
note = uni0191;
unicode = 0191;
},
{
glyphname = florin;
lastChange = "2017-05-19 14:54:14 +0000";
layers = (
{
layerId = "173B8943-1C9C-4036-959A-12BE1501493B";
paths = (
{
closed = 1;
nodes = (
"518 1169 LINE SMOOTH",
"535 1297 OFFCURVE",
"598 1361 OFFCURVE",
"707 1361 CURVE SMOOTH",
"735 1361 OFFCURVE",
"767 1357 OFFCURVE",
"802 1349 CURVE",
"843 1536 LINE",
"776 1551 OFFCURVE",
"724 1559 OFFCURVE",
"687 1559 CURVE SMOOTH",
"451 1563 OFFCURVE",
"308 1412 OFFCURVE",
"281 1185 CURVE SMOOTH",
"269 1082 LINE",
"109 1082 LINE",
"81 903 LINE",
"241 903 LINE",
"91 -70 LINE SMOOTH",
"76 -163 OFFCURVE",
"38 -245 OFFCURVE",
"-59 -245 CURVE SMOOTH",
"-82 -245 OFFCURVE",
"-113 -240 OFFCURVE",
"-152 -230 CURVE",
"-183 -420 LINE",
"-135 -433 OFFCURVE",
"-91 -439 OFFCURVE",
"-51 -440 CURVE SMOOTH",
"178 -443 OFFCURVE",
"305 -286 OFFCURVE",
"330 -70 CURVE",
"478 903 LINE",
"672 903 LINE",
"700 1082 LINE",
"506 1082 LINE"
);
}
);
width = 699;
}
);
note = florin;
unicode = 0192;
},
{
glyphname = uni0193;
lastChange = "2017-05-19 14:54:14 +0000";
layers = (
{
layerId = "173B8943-1C9C-4036-959A-12BE1501493B";
paths = (
{
closed = 1;
nodes = (
"1347 1287 OFFCURVE",
"1419 1342 OFFCURVE",
"1541 1338 CURVE SMOOTH",
"1561 1337 OFFCURVE",
"1584 1333 OFFCURVE",
"1611 1327 CURVE",
"1632 1524 LINE",
"1583 1536 OFFCURVE",
"1538 1542 OFFCURVE",
"1497 1542 CURVE SMOOTH",
"1359 1543 OFFCURVE",
"1253 1481 OFFCURVE",
"1179 1355 CURVE",
"1084 1447 OFFCURVE",
"948 1475 OFFCURVE",
"820 1476 CURVE SMOOTH",
"683 1478 OFFCURVE",
"566 1447 OFFCURVE",
"470 1382 CURVE SMOOTH",
"278 1252 OFFCURVE",
"167 1024 OFFCURVE",
"131 775 CURVE SMOOTH",
"118 680 LINE SMOOTH",
"103 563 OFFCURVE",
"111 451 OFFCURVE",
"140 345 CURVE SMOOTH",
"198 133 OFFCURVE",
"351 -16 OFFCURVE",
"615 -20 CURVE SMOOTH",
"808 -23 OFFCURVE",
"1039 27 OFFCURVE",
"1163 190 CURVE",
"1252 747 LINE",
"717 747 LINE",
"683 556 LINE",
"974 556 LINE",
"920 270 LINE",
"772 149 OFFCURVE",
"519 159 OFFCURVE",
"439 267 CURVE SMOOTH",
"358 374 OFFCURVE",
"359 508 OFFCURVE",
"361 593 CURVE SMOOTH",
"363 678 OFFCURVE",
"386 871 OFFCURVE",
"451 1023 CURVE SMOOTH",
"516 1174 OFFCURVE",
"631 1280 OFFCURVE",
"812 1273 CURVE SMOOTH",
"979 1268 OFFCURVE",
"1050 1166 OFFCURVE",
"1063 1010 CURVE",
"1299 1011 LINE",
"1325 1172 LINE SMOOTH"
);
}
);
width = 1424;
}
);
leftKerningGroup = C;
note = uni0193;
unicode = 0193;
},
{
glyphname = uni0194;
lastChange = "2017-05-19 14:54:14 +0000";
layers = (
{
layerId = "173B8943-1C9C-4036-959A-12BE1501493B";
paths = (
{
closed = 1;
nodes = (
"816 -96 OFFCURVE",
"805 -17 OFFCURVE",
"776 64 CURVE SMOOTH",
"747 145 OFFCURVE",
"724 223 OFFCURVE",
"708 296 CURVE",
"1421 1456 LINE",
"1131 1456 LINE",
"636 596 LINE",
"444 1456 LINE",
"177 1456 LINE",
"476 307 LINE",
"447 262 OFFCURVE",
"413 211 OFFCURVE",
"373 156 CURVE SMOOTH",
"293 45 OFFCURVE",
"219 -75 OFFCURVE",
"211 -187 CURVE SMOOTH",
"199 -355 OFFCURVE",
"334 -437 OFFCURVE",
"487 -438 CURVE SMOOTH",
"655 -441 OFFCURVE",
"799 -349 OFFCURVE",
"811 -172 CURVE SMOOTH"
);
},
{
closed = 1;
nodes = (
"471 -145 OFFCURVE",
"482 -109 OFFCURVE",
"501 -74 CURVE SMOOTH",
"560 33 LINE",
"566 5 OFFCURVE",
"574 -28 OFFCURVE",
"583 -66 CURVE SMOOTH",
"592 -104 OFFCURVE",
"594 -139 OFFCURVE",
"588 -172 CURVE SMOOTH",
"585 -192 OFFCURVE",
"577 -210 OFFCURVE",
"564 -227 CURVE SMOOTH",
"538 -260 OFFCURVE",
"456 -273 OFFCURVE",
"467 -182 CURVE SMOOTH"
);
}
);
width = 1288;
}
);
note = uni0194;
unicode = 0194;
},
{
glyphname = uni0195;
lastChange = "2017-05-19 14:54:14 +0000";
layers = (
{
layerId = "173B8943-1C9C-4036-959A-12BE1501493B";
paths = (
{
closed = 1;
nodes = (
"597 1104 OFFCURVE",
"495 1057 OFFCURVE",
"406 962 CURVE",
"516 1536 LINE",
"279 1536 LINE",
"13 0 LINE",
"249 0 LINE",
"384 774 LINE",
"452 864 OFFCURVE",
"530 908 OFFCURVE",
"619 905 CURVE SMOOTH",
"754 901 OFFCURVE",
"776 807 OFFCURVE",
"761 691 CURVE SMOOTH",
"725 436 LINE SMOOTH",
"696 179 OFFCURVE",
"786 -13 OFFCURVE",
"1065 -20 CURVE SMOOTH",
"1358 -27 OFFCURVE",
"1494 163 OFFCURVE",
"1530 436 CURVE",
"1639 1082 LINE",
"1401 1082 LINE",
"1294 432 LINE SMOOTH",
"1283 367 OFFCURVE",
"1263 308 OFFCURVE",
"1232 254 CURVE SMOOTH",
"1171 145 OFFCURVE",
"1025 167 OFFCURVE",
"990 224 CURVE SMOOTH",
"954 281 OFFCURVE",
"955 368 OFFCURVE",
"963 433 CURVE SMOOTH",
"999 690 LINE SMOOTH",
"1024 906 OFFCURVE",
"956 1097 OFFCURVE",
"712 1101 CURVE SMOOTH"
);
}
);
width = 1673;
}
);
note = uni0195;
unicode = 0195;
},
{
glyphname = uni0198;
lastChange = "2017-05-19 14:54:14 +0000";
layers = (
{
layerId = "173B8943-1C9C-4036-959A-12BE1501493B";
paths = (
{
closed = 1;
nodes = (
"743 803 LINE",
"1118 1217 LINE SMOOTH",
"1170 1273 OFFCURVE",
"1234 1270 OFFCURVE",
"1297 1231 CURVE",
"1401 1404 LINE",
"1326 1453 OFFCURVE",
"1255 1478 OFFCURVE",
"1187 1479 CURVE SMOOTH",
"1034 1480 OFFCURVE",
"942 1354 OFFCURVE",
"851 1249 CURVE SMOOTH",
"418 771 LINE",
"538 1456 LINE",
"292 1456 LINE",
"39 0 LINE",
"285 0 LINE",
"359 427 LINE",
"565 624 LINE",
"877 0 LINE",
"1153 0 LINE"
);
}
);
width = 1252;
}
);
note = uni0198;
rightKerningGroup = K;
unicode = 0198;
},
{
glyphname = uni0199;
lastChange = "2017-05-19 14:54:14 +0000";
layers = (
{
layerId = "173B8943-1C9C-4036-959A-12BE1501493B";
paths = (
{
closed = 1;
nodes = (
"729 1543 LINE",
"681 1554 OFFCURVE",
"638 1559 OFFCURVE",
"600 1560 CURVE SMOOTH",
"395 1564 OFFCURVE",
"252 1442 OFFCURVE",
"225 1238 CURVE",
"16 0 LINE",
"253 0 LINE",
"313 344 LINE",
"448 464 LINE",
"677 0 LINE",
"934 0 LINE",
"617 620 LINE",
"1098 1081 LINE",
"794 1082 LINE",
"449 749 LINE",
"367 664 LINE",
"464 1232 LINE SMOOTH",
"482 1339 OFFCURVE",
"545 1392 OFFCURVE",
"653 1389 CURVE",
"713 1380 LINE"
);
}
);
width = 1037;
}
);
note = uni0199;
unicode = 0199;
},
{
glyphname = uni019B;
lastChange = "2017-05-19 14:54:14 +0000";
layers = (
{
layerId = "173B8943-1C9C-4036-959A-12BE1501493B";
paths = (
{
closed = 1;
nodes = (
"966 186 LINE SMOOTH",
"919 182 OFFCURVE",
"893 199 OFFCURVE",
"873 276 CURVE",
"685 1171 LINE",
"806 1212 LINE",
"840 1404 LINE",
"645 1336 LINE",
"640 1361 LINE",
"626 1418 OFFCURVE",
"599 1461 OFFCURVE",
"558 1488 CURVE SMOOTH",
"476 1543 OFFCURVE",
"366 1536 OFFCURVE",
"289 1515 CURVE",
"275 1333 LINE",
"330 1334 LINE",
"374 1331 OFFCURVE",
"403 1306 OFFCURVE",
"418 1258 CURVE",
"298 1217 LINE",
"262 1025 LINE",
"466 1096 LINE",
"474 1042 LINE",
"-89 0 LINE",
"179 0 LINE",
"543 712 LINE",
"647 195 LINE",
"680 67 OFFCURVE",
"745 -13 OFFCURVE",
"884 -16 CURVE SMOOTH",
"912 -16 OFFCURVE",
"940 -14 OFFCURVE",
"969 -9 CURVE",
"984 187 LINE"
);
}
);
width = 1096;
}
);
note = uni019B;
unicode = 019B;
},
{
glyphname = uni019C;
lastChange = "2017-05-19 14:54:14 +0000";
layers = (
{
layerId = "173B8943-1C9C-4036-959A-12BE1501493B";
paths = (
{
closed = 1;
nodes = (
"1801 1456 LINE",
"1563 1456 LINE",
"1369 334 LINE",
"1306 225 OFFCURVE",
"1220 174 OFFCURVE",
"1109 179 CURVE SMOOTH",
"1066 180 OFFCURVE",
"1036 196 OFFCURVE",
"1019 225 CURVE SMOOTH",
"985 283 OFFCURVE",
"987 369 OFFCURVE",
"994 433 CURVE",
"1167 1456 LINE",
"930 1456 LINE",
"753 436 LINE",
"742 345 LINE",
"618 114 OFFCURVE",
"364 135 OFFCURVE",
"357 327 CURVE SMOOTH",
"356 366 OFFCURVE",
"357 401 OFFCURVE",
"361 433 CURVE",
"534 1456 LINE",
"296 1456 LINE",
"124 436 LINE",
"115 362 OFFCURVE",
"117 290 OFFCURVE",
"128 221 CURVE SMOOTH",
"151 82 OFFCURVE",
"231 -19 OFFCURVE",
"406 -23 CURVE SMOOTH",
"551 -26 OFFCURVE",
"671 37 OFFCURVE",
"765 165 CURVE",
"800 37 OFFCURVE",
"913 -17 OFFCURVE",
"1040 -20 CURVE SMOOTH",
"1164 -22 OFFCURVE",
"1268 24 OFFCURVE",
"1351 117 CURVE",
"1332 0 LINE",
"1548 0 LINE"
);
}
);
width = 1799;
}
);
note = uni019C;
rightKerningGroup = H;
unicode = 019C;
},
{
glyphname = uni019D;
lastChange = "2017-05-19 14:54:14 +0000";
layers = (
{
layerId = "173B8943-1C9C-4036-959A-12BE1501493B";
paths = (
{
closed = 1;
nodes = (
"1495 1456 LINE",
"1250 1456 LINE",
"1068 410 LINE",
"611 1456 LINE",
"373 1456 LINE",
"112 -63 LINE SMOOTH",
"104 -109 OFFCURVE",
"88 -149 OFFCURVE",
"65 -182 CURVE SMOOTH",
"18 -249 OFFCURVE",
"-48 -236 OFFCURVE",
"-136 -216 CURVE",
"-172 -421 LINE",
"-123 -434 OFFCURVE",
"-79 -440 OFFCURVE",
"-39 -440 CURVE SMOOTH",
"196 -443 OFFCURVE",
"332 -282 OFFCURVE",
"360 -61 CURVE",
"548 1043 LINE",
"1003 0 LINE",
"1242 0 LINE"
);
}
);
width = 1492;
}
);
note = uni019D;
rightKerningGroup = H;
unicode = 019D;
},
{
glyphname = Ohorn;
lastChange = "2017-05-19 14:54:14 +0000";
layers = (
{
layerId = "173B8943-1C9C-4036-959A-12BE1501493B";
paths = (
{
closed = 1;
nodes = (
"718 -24 OFFCURVE",
"835 9 OFFCURVE",
"932 77 CURVE SMOOTH",
"1126 213 OFFCURVE",
"1240 447 OFFCURVE",
"1275 691 CURVE SMOOTH",
"1285 764 LINE SMOOTH",
"1304 901 OFFCURVE",
"1299 1037 OFFCURVE",
"1270 1172 CURVE",
"1471 1228 OFFCURVE",
"1553 1383 OFFCURVE",
"1572 1582 CURVE",
"1391 1582 LINE",
"1372 1451 OFFCURVE",
"1332 1335 OFFCURVE",
"1189 1307 CURVE",
"1142 1364 OFFCURVE",
"1085 1406 OFFCURVE",
"1018 1433 CURVE SMOOTH",
"884 1488 OFFCURVE",
"653 1515 OFFCURVE",
"457 1376 CURVE SMOOTH",
"260 1237 OFFCURVE",
"143 1002 OFFCURVE",
"112 754 CURVE SMOOTH",
"104 688 LINE SMOOTH",
"90 574 OFFCURVE",
"96 463 OFFCURVE",
"123 356 CURVE SMOOTH",
"176 141 OFFCURVE",
"320 -16 OFFCURVE",
"583 -21 CURVE SMOOTH"
);
},
{
closed = 1;
nodes = (
"1050 903 OFFCURVE",
"1052 847 OFFCURVE",
"1029 691 CURVE SMOOTH",
"1006 535 OFFCURVE",
"945 363 OFFCURVE",
"825 260 CURVE SMOOTH",
"705 156 OFFCURVE",
"484 164 OFFCURVE",
"409 276 CURVE SMOOTH",
"334 388 OFFCURVE",
"333 558 OFFCURVE",
"349 690 CURVE SMOOTH",
"360 766 LINE SMOOTH",
"371 844 OFFCURVE",
"394 922 OFFCURVE",
"427 1001 CURVE SMOOTH",
"493 1157 OFFCURVE",
"609 1275 OFFCURVE",
"794 1268 CURVE SMOOTH",
"969 1261 OFFCURVE",
"1034 1135 OFFCURVE",
"1045 983 CURVE SMOOTH"
);
}
);
width = 1375;
}
);
leftKerningGroup = C;
note = Ohorn;
unicode = 01A0;
},
{
glyphname = ohorn;
lastChange = "2017-05-19 14:54:14 +0000";
layers = (
{
layerId = "173B8943-1C9C-4036-959A-12BE1501493B";
paths = (
{
closed = 1;
nodes = (
"792 -28 OFFCURVE",
"999 216 OFFCURVE",
"1044 553 CURVE SMOOTH",
"1055 652 OFFCURVE",
"1051 748 OFFCURVE",
"1032 841 CURVE",
"1197 900 OFFCURVE",
"1257 1026 OFFCURVE",
"1273 1193 CURVE",
"1111 1193 LINE",
"1095 1089 OFFCURVE",
"1074 995 OFFCURVE",
"967 952 CURVE",
"926 1003 OFFCURVE",
"876 1040 OFFCURVE",
"817 1065 CURVE SMOOTH",
"700 1113 OFFCURVE",
"512 1132 OFFCURVE",
"352 1030 CURVE SMOOTH",
"191 928 OFFCURVE",
"91 749 OFFCURVE",
"66 549 CURVE SMOOTH",
"64 527 LINE SMOOTH",
"55 434 OFFCURVE",
"63 346 OFFCURVE",
"90 264 CURVE SMOOTH",
"143 99 OFFCURVE",
"272 -16 OFFCURVE",
"477 -20 CURVE SMOOTH"
);
},
{
closed = 1;
nodes = (
"319 656 OFFCURVE",
"365 779 OFFCURVE",
"453 855 CURVE SMOOTH",
"540 930 OFFCURVE",
"693 923 OFFCURVE",
"750 851 CURVE SMOOTH",
"807 778 OFFCURVE",
"818 660 OFFCURVE",
"806 553 CURVE SMOOTH",
"804 532 LINE",
"789 420 OFFCURVE",
"742 298 OFFCURVE",
"655 225 CURVE SMOOTH",
"567 152 OFFCURVE",
"414 158 OFFCURVE",
"358 229 CURVE SMOOTH",
"301 300 OFFCURVE",
"290 418 OFFCURVE",
"302 523 CURVE SMOOTH",
"304 544 LINE"
);
}
);
width = 1148;
}
);
leftKerningGroup = c;
note = ohorn;
unicode = 01A1;
},
{
glyphname = uni01A2;
lastChange = "2017-05-19 14:54:14 +0000";
layers = (
{
layerId = "173B8943-1C9C-4036-959A-12BE1501493B";
paths = (
{
closed = 1;
nodes = (
"804 -23 OFFCURVE",
"1028 27 OFFCURVE",
"1153 191 CURVE",
"1309 1126 LINE",
"1458 1184 LINE",
"1180 -416 LINE",
"1417 -416 LINE",
"1741 1456 LINE",
"1548 1456 LINE",
"1264 1339 LINE",
"1208 1392 OFFCURVE",
"1141 1428 OFFCURVE",
"1064 1447 CURVE SMOOTH",
"909 1484 OFFCURVE",
"683 1511 OFFCURVE",
"484 1382 CURVE SMOOTH",
"284 1253 OFFCURVE",
"163 1028 OFFCURVE",
"127 777 CURVE SMOOTH",
"114 680 LINE SMOOTH",
"99 562 OFFCURVE",
"106 450 OFFCURVE",
"135 345 CURVE SMOOTH",
"192 133 OFFCURVE",
"345 -16 OFFCURVE",
"609 -20 CURVE SMOOTH"
);
},
{
closed = 1;
nodes = (
"922 1275 OFFCURVE",
"1029 1262 OFFCURVE",
"1085 1185 CURVE",
"921 273 LINE",
"845 212 OFFCURVE",
"748 182 OFFCURVE",
"631 183 CURVE SMOOTH",
"450 187 OFFCURVE",
"375 306 OFFCURVE",
"360 458 CURVE SMOOTH",
"356 497 OFFCURVE",
"354 536 OFFCURVE",
"355 574 CURVE SMOOTH",
"355 649 OFFCURVE",
"372 850 OFFCURVE",
"444 1010 CURVE SMOOTH",
"516 1170 OFFCURVE",
"642 1280 OFFCURVE",
"834 1276 CURVE SMOOTH"
);
}
);
width = 1739;
}
);
leftKerningGroup = C;
note = uni01A2;
rightKerningGroup = H;
unicode = 01A2;
},
{
glyphname = uni01A3;
lastChange = "2017-05-19 14:54:14 +0000";
layers = (
{
layerId = "173B8943-1C9C-4036-959A-12BE1501493B";
paths = (
{
closed = 1;
nodes = (
"1092 -416 LINE",
"1352 1082 LINE",
"1165 1082 LINE",
"924 971 LINE",
"848 1058 OFFCURVE",
"736 1100 OFFCURVE",
"623 1103 CURVE SMOOTH",
"332 1108 OFFCURVE",
"115 895 OFFCURVE",
"68 551 CURVE SMOOTH",
"64 520 LINE SMOOTH",
"45 335 OFFCURVE",
"93 163 OFFCURVE",
"218 60 CURVE SMOOTH",
"342 -43 OFFCURVE",
"657 -88 OFFCURVE",
"856 163 CURVE",
"945 724 LINE",
"1062 779 LINE",
"854 -416 LINE"
);
},
{
closed = 1;
nodes = (
"349 179 OFFCURVE",
"305 266 OFFCURVE",
"298 373 CURVE SMOOTH",
"281 609 OFFCURVE",
"358 920 OFFCURVE",
"610 909 CURVE SMOOTH",
"659 908 OFFCURVE",
"700 891 OFFCURVE",
"732 859 CURVE",
"617 219 LINE",
"566 189 OFFCURVE",
"518 175 OFFCURVE",
"472 176 CURVE SMOOTH"
);
}
);
width = 1393;
}
);
note = uni01A3;
unicode = 01A3;
},
{
glyphname = uni01A4;
lastChange = "2017-05-19 14:54:14 +0000";
layers = (
{
layerId = "173B8943-1C9C-4036-959A-12BE1501493B";
paths = (
{
closed = 1;
nodes = (
"119 1086 OFFCURVE",
"121 1044 OFFCURVE",
"128 1001 CURVE",
"316 1001 LINE",
"313 1038 LINE",
"314 1076 LINE",
"329 1188 OFFCURVE",
"393 1248 OFFCURVE",
"507 1256 CURVE",
"287 0 LINE",
"533 0 LINE",
"627 541 LINE",
"936 540 LINE SMOOTH",
"1229 540 OFFCURVE",
"1486 687 OFFCURVE",
"1513 1000 CURVE SMOOTH",
"1537 1284 OFFCURVE",
"1333 1451 OFFCURVE",
"1064 1455 CURVE SMOOTH",
"529 1457 LINE",
"529 1456 LINE",
"313 1459 OFFCURVE",
"141 1356 OFFCURVE",
"122 1127 CURVE SMOOTH"
);
},
{
closed = 1;
nodes = (
"1208 1247 OFFCURVE",
"1285 1147 OFFCURVE",
"1266 1000 CURVE SMOOTH",
"1243 828 OFFCURVE",
"1112 743 OFFCURVE",
"945 742 CURVE SMOOTH",
"662 744 LINE",
"751 1253 LINE",
"1059 1252 LINE SMOOTH"
);
}
);
width = 1517;
}
);
note = uni01A4;
rightKerningGroup = P;
unicode = 01A4;
},
{
glyphname = uni01A5;
lastChange = "2017-05-19 14:54:14 +0000";
layers = (
{
layerId = "173B8943-1C9C-4036-959A-12BE1501493B";
paths = (
{
closed = 1;
nodes = (
"645 -23 OFFCURVE",
"730 4 OFFCURVE",
"798 59 CURVE SMOOTH",
"924 161 OFFCURVE",
"1002 323 OFFCURVE",
"1032 545 CURVE SMOOTH",
"1033 554 LINE SMOOTH",
"1050 715 OFFCURVE",
"1026 897 OFFCURVE",
"924 1012 CURVE SMOOTH",
"822 1127 OFFCURVE",
"577 1146 OFFCURVE",
"413 983 CURVE",
"435 1081 LINE SMOOTH",
"460 1182 OFFCURVE",
"523 1230 OFFCURVE",
"626 1226 CURVE",
"686 1218 LINE",
"702 1380 LINE",
"657 1390 OFFCURVE",
"613 1395 OFFCURVE",
"572 1396 CURVE SMOOTH",
"368 1399 OFFCURVE",
"230 1283 OFFCURVE",
"197 1082 CURVE",
"197 1082 LINE",
"-56 -416 LINE",
"181 -416 LINE",
"278 99 LINE",
"343 22 OFFCURVE",
"432 -18 OFFCURVE",
"544 -21 CURVE SMOOTH"
);
},
{
closed = 1;
nodes = (
"682 904 OFFCURVE",
"726 883 OFFCURVE",
"752 844 CURVE SMOOTH",
"804 764 OFFCURVE",
"804 644 OFFCURVE",
"795 553 CURVE",
"771 389 OFFCURVE",
"723 287 OFFCURVE",
"642 221 CURVE SMOOTH",
"561 155 OFFCURVE",
"369 137 OFFCURVE",
"305 300 CURVE",
"389 781 LINE",
"456 867 OFFCURVE",
"533 908 OFFCURVE",
"621 905 CURVE SMOOTH"
);
}
);
width = 1118;
}
);
note = uni01A5;
unicode = 01A5;
},
{
glyphname = uni01A6;
lastChange = "2017-05-19 14:54:14 +0000";
layers = (
{
layerId = "173B8943-1C9C-4036-959A-12BE1501493B";
paths = (
{
closed = 1;
nodes = (
"662 561 LINE",
"967 -356 LINE",
"1230 -358 LINE",
"1230 -341 LINE",
"895 617 LINE",
"1080 689 OFFCURVE",
"1205 822 OFFCURVE",
"1222 1025 CURVE SMOOTH",
"1246 1314 OFFCURVE",
"1042 1450 OFFCURVE",
"774 1455 CURVE SMOOTH",
"537 1456 LINE",
"556 1560 LINE",
"310 1560 LINE",
"39 0 LINE",
"285 0 LINE",
"383 561 LINE"
);
},
{
closed = 1;
nodes = (
"916 1247 OFFCURVE",
"994 1163 OFFCURVE",
"974 1014 CURVE SMOOTH",
"953 849 OFFCURVE",
"815 763 OFFCURVE",
"656 762 CURVE SMOOTH",
"417 764 LINE",
"502 1253 LINE",
"768 1252 LINE SMOOTH"
);
}
);
width = 1370;
}
);
note = uni01A6;
unicode = 01A6;
},
{
glyphname = uni01A7;
lastChange = "2017-05-19 14:54:14 +0000";
layers = (
{
layerId = "173B8943-1C9C-4036-959A-12BE1501493B";
paths = (
{
closed = 1;
nodes = (
"288 426 OFFCURVE",
"312 472 OFFCURVE",
"353 505 CURVE SMOOTH",
"417 558 OFFCURVE",
"485 585 OFFCURVE",
"639 630 CURVE SMOOTH",
"716 652 OFFCURVE",
"793 681 OFFCURVE",
"872 716 CURVE SMOOTH",
"1028 786 OFFCURVE",
"1153 896 OFFCURVE",
"1166 1081 CURVE SMOOTH",
"1178 1254 OFFCURVE",
"1082 1371 OFFCURVE",
"940 1430 CURVE SMOOTH",
"798 1489 OFFCURVE",
"623 1496 OFFCURVE",
"457 1428 CURVE SMOOTH",
"291 1359 OFFCURVE",
"170 1223 OFFCURVE",
"155 1030 CURVE",
"399 1031 LINE",
"423 1194 OFFCURVE",
"546 1281 OFFCURVE",
"707 1277 CURVE SMOOTH",
"827 1274 OFFCURVE",
"939 1218 OFFCURVE",
"919 1082 CURVE SMOOTH",
"908 1014 OFFCURVE",
"875 968 OFFCURVE",
"792 921 CURVE SMOOTH",
"751 898 OFFCURVE",
"675 870 OFFCURVE",
"565 839 CURVE SMOOTH",
"455 808 OFFCURVE",
"362 772 OFFCURVE",
"287 731 CURVE SMOOTH",
"136 649 OFFCURVE",
"46 539 OFFCURVE",
"34 370 CURVE SMOOTH",
"21 193 OFFCURVE",
"118 79 OFFCURVE",
"260 24 CURVE SMOOTH",
"402 -32 OFFCURVE",
"581 -40 OFFCURVE",
"762 29 CURVE SMOOTH",
"942 97 OFFCURVE",
"1077 236 OFFCURVE",
"1094 440 CURVE",
"848 439 LINE",
"820 258 OFFCURVE",
"671 174 OFFCURVE",
"496 179 CURVE SMOOTH",
"376 182 OFFCURVE",
"264 232 OFFCURVE",
"281 369 CURVE SMOOTH"
);
}
);
width = 1200;
}
);
note = uni01A7;
unicode = 01A7;
},
{
glyphname = uni01A8;
lastChange = "2017-05-19 14:54:14 +0000";
layers = (
{
layerId = "173B8943-1C9C-4036-959A-12BE1501493B";
paths = (
{
closed = 1;
nodes = (
"284 403 OFFCURVE",
"415 430 OFFCURVE",
"532 455 CURVE SMOOTH",
"590 467 OFFCURVE",
"651 485 OFFCURVE",
"714 508 CURVE SMOOTH",
"841 554 OFFCURVE",
"941 635 OFFCURVE",
"949 782 CURVE SMOOTH",
"958 990 OFFCURVE",
"765 1099 OFFCURVE",
"580 1102 CURVE SMOOTH",
"363 1107 OFFCURVE",
"142 993 OFFCURVE",
"125 757 CURVE",
"362 759 LINE",
"381 863 OFFCURVE",
"468 924 OFFCURVE",
"573 923 CURVE SMOOTH",
"652 922 OFFCURVE",
"732 882 OFFCURVE",
"717 791 CURVE SMOOTH",
"701 683 OFFCURVE",
"586 667 OFFCURVE",
"464 640 CURVE SMOOTH",
"403 626 OFFCURVE",
"339 607 OFFCURVE",
"274 584 CURVE SMOOTH",
"142 537 OFFCURVE",
"41 455 OFFCURVE",
"34 300 CURVE SMOOTH",
"27 155 OFFCURVE",
"114 62 OFFCURVE",
"235 16 CURVE SMOOTH",
"356 -30 OFFCURVE",
"496 -36 OFFCURVE",
"640 18 CURVE SMOOTH",
"783 72 OFFCURVE",
"892 180 OFFCURVE",
"903 343 CURVE",
"673 341 LINE",
"644 221 OFFCURVE",
"549 156 OFFCURVE",
"426 159 CURVE SMOOTH",
"347 162 OFFCURVE",
"254 191 OFFCURVE",
"266 287 CURVE",
"267 292 LINE"
);
}
);
width = 1026;
}
);
note = uni01A8;
unicode = 01A8;
},
{
glyphname = uni01AA;
lastChange = "2017-05-19 14:54:14 +0000";
layers = (
{
layerId = "173B8943-1C9C-4036-959A-12BE1501493B";
paths = (
{
closed = 1;
nodes = (
"766 -213 OFFCURVE",
"741 -216 OFFCURVE",
"726 -215 CURVE",
"629 -212 OFFCURVE",
"626 -124 OFFCURVE",
"635 -45 CURVE",
"843 1197 LINE",
"862 1388 OFFCURVE",
"727 1562 OFFCURVE",
"530 1567 CURVE SMOOTH",
"319 1572 OFFCURVE",
"143 1394 OFFCURVE",
"131 1189 CURVE SMOOTH",
"119 1004 OFFCURVE",
"249 834 OFFCURVE",
"441 831 CURVE SMOOTH",
"478 831 OFFCURVE",
"517 838 OFFCURVE",
"558 853 CURVE",
"400 -44 LINE",
"380 -236 OFFCURVE",
"449 -412 OFFCURVE",
"664 -416 CURVE SMOOTH",
"702 -417 OFFCURVE",
"741 -412 OFFCURVE",
"782 -402 CURVE",
"801 -208 LINE"
);
},
{
closed = 1;
nodes = (
"375 1041 OFFCURVE",
"334 1110 OFFCURVE",
"343 1191 CURVE SMOOTH",
"354 1283 OFFCURVE",
"420 1359 OFFCURVE",
"516 1358 CURVE SMOOTH",
"603 1357 OFFCURVE",
"640 1286 OFFCURVE",
"632 1206 CURVE SMOOTH",
"621 1117 OFFCURVE",
"557 1040 OFFCURVE",
"462 1040 CURVE SMOOTH"
);
}
);
width = 982;
}
);
note = uni01AA;
unicode = 01AA;
},
{
glyphname = uni01AB;
lastChange = "2017-05-19 14:54:14 +0000";
layers = (
{
layerId = "173B8943-1C9C-4036-959A-12BE1501493B";
paths = (
{
closed = 1;
nodes = (
"374 187 OFFCURVE",
"359 229 OFFCURVE",
"367 297 CURVE",
"470 903 LINE",
"655 903 LINE",
"686 1082 LINE",
"501 1082 LINE",
"547 1345 LINE",
"310 1345 LINE",
"264 1082 LINE",
"91 1082 LINE",
"59 903 LINE",
"233 903 LINE",
"132 284 LINE",
"117 124 OFFCURVE",
"176 -6 OFFCURVE",
"348 -18 CURVE",
"340 -59 LINE SMOOTH",
"317 -164 OFFCURVE",
"253 -215 OFFCURVE",
"147 -212 CURVE",
"86 -203 LINE",
"70 -366 LINE",
"117 -377 OFFCURVE",
"156 -383 OFFCURVE",
"188 -383 CURVE SMOOTH",
"385 -384 OFFCURVE",
"479 -241 OFFCURVE",
"500 -60 CURVE SMOOTH",
"531 193 LINE",
"500 187 OFFCURVE",
"471 184 OFFCURVE",
"446 184 CURVE"
);
}
);
width = 662;
}
);
note = uni01AB;
unicode = 01AB;
},
{
glyphname = uni01AC;
lastChange = "2017-05-19 14:54:14 +0000";
layers = (
{
layerId = "173B8943-1C9C-4036-959A-12BE1501493B";
paths = (
{
closed = 1;
nodes = (
"115 1088 OFFCURVE",
"117 1046 OFFCURVE",
"124 1001 CURVE",
"312 1001 LINE",
"311 1038 LINE",
"312 1076 LINE",
"327 1193 OFFCURVE",
"396 1253 OFFCURVE",
"518 1255 CURVE SMOOTH",
"706 1253 LINE",
"489 0 LINE",
"734 0 LINE",
"952 1253 LINE",
"1391 1253 LINE",
"1427 1456 LINE",
"526 1458 LINE SMOOTH",
"310 1458 OFFCURVE",
"135 1355 OFFCURVE",
"118 1127 CURVE SMOOTH"
);
}
);
width = 1319;
}
);
note = uni01AC;
unicode = 01AC;
},
{
glyphname = uni01AD;
lastChange = "2017-05-19 14:54:14 +0000";
layers = (
{
layerId = "173B8943-1C9C-4036-959A-12BE1501493B";
paths = (
{
closed = 1;
nodes = (
"801 1553 LINE",
"756 1564 OFFCURVE",
"713 1569 OFFCURVE",
"672 1569 CURVE SMOOTH",
"467 1573 OFFCURVE",
"322 1453 OFFCURVE",
"297 1248 CURVE SMOOTH",
"274 1082 LINE",
"102 1082 LINE",
"70 903 LINE",
"243 903 LINE",
"145 304 LINE",
"137 221 OFFCURVE",
"150 147 OFFCURVE",
"184 82 CURVE SMOOTH",
"252 -49 OFFCURVE",
"433 -28 OFFCURVE",
"524 3 CURVE",
"541 193 LINE",
"508 186 OFFCURVE",
"479 184 OFFCURVE",
"456 185 CURVE SMOOTH",
"379 188 OFFCURVE",
"374 252 OFFCURVE",
"382 317 CURVE",
"480 903 LINE",
"665 903 LINE",
"697 1082 LINE",
"511 1082 LINE",
"538 1248 LINE SMOOTH",
"557 1353 OFFCURVE",
"620 1403 OFFCURVE",
"725 1400 CURVE",
"786 1391 LINE"
);
}
);
width = 693;
}
);
note = uni01AD;
unicode = 01AD;
},
{
glyphname = uni01AE;
lastChange = "2017-05-19 14:54:14 +0000";
layers = (
{
layerId = "173B8943-1C9C-4036-959A-12BE1501493B";
paths = (
{
closed = 1;
nodes = (
"368 -63 LINE",
"347 -267 OFFCURVE",
"445 -432 OFFCURVE",
"662 -436 CURVE SMOOTH",
"701 -437 OFFCURVE",
"739 -432 OFFCURVE",
"777 -422 CURVE",
"783 -218 LINE",
"735 -226 OFFCURVE",
"702 -229 OFFCURVE",
"685 -228 CURVE SMOOTH",
"600 -224 OFFCURVE",
"604 -128 OFFCURVE",
"612 -64 CURVE",
"838 1253 LINE",
"1277 1253 LINE",
"1313 1456 LINE",
"191 1456 LINE",
"155 1253 LINE",
"592 1253 LINE"
);
}
);
width = 1207;
}
);
leftKerningGroup = T;
note = uni01AE;
rightKerningGroup = T;
unicode = 01AE;
},
{
glyphname = Uhorn;
lastChange = "2017-05-19 14:54:14 +0000";
layers = (
{
layerId = "173B8943-1C9C-4036-959A-12BE1501493B";
paths = (
{
closed = 1;
nodes = (
"1551 1102 OFFCURVE",
"1680 1265 OFFCURVE",
"1705 1537 CURVE",
"1532 1537 LINE",
"1511 1376 OFFCURVE",
"1460 1255 OFFCURVE",
"1284 1234 CURVE",
"1326 1456 LINE",
"1079 1456 LINE",
"912 477 LINE SMOOTH",
"883 297 OFFCURVE",
"765 174 OFFCURVE",
"574 181 CURVE SMOOTH",
"393 186 OFFCURVE",
"329 314 OFFCURVE",
"349 482 CURVE",
"514 1456 LINE",
"269 1456 LINE",
"104 483 LINE",
"69 180 OFFCURVE",
"261 -15 OFFCURVE",
"558 -20 CURVE SMOOTH",
"874 -27 OFFCURVE",
"1116 168 OFFCURVE",
"1160 483 CURVE",
"1268 1086 LINE"
);
}
);
width = 1402;
}
);
note = Uhorn;
unicode = 01AF;
},
{
glyphname = uhorn;
lastChange = "2017-05-19 14:54:14 +0000";
layers = (
{
layerId = "173B8943-1C9C-4036-959A-12BE1501493B";
paths = (
{
closed = 1;
nodes = (
"1030 819 LINE",
"1257 835 OFFCURVE",
"1356 951 OFFCURVE",
"1376 1172 CURVE",
"1220 1172 LINE",
"1201 1047 OFFCURVE",
"1175 964 OFFCURVE",
"1039 943 CURVE",
"1069 1082 LINE",
"832 1082 LINE",
"696 303 LINE",
"633 217 OFFCURVE",
"549 176 OFFCURVE",
"444 179 CURVE SMOOTH",
"328 184 OFFCURVE",
"308 280 OFFCURVE",
"319 380 CURVE",
"436 1082 LINE",
"199 1082 LINE",
"82 383 LINE",
"71 277 OFFCURVE",
"88 184 OFFCURVE",
"132 104 CURVE SMOOTH",
"219 -57 OFFCURVE",
"518 -68 OFFCURVE",
"681 107 CURVE",
"660 0 LINE",
"882 0 LINE"
);
}
);
width = 1228;
}
);
leftKerningGroup = u;
note = uhorn;
unicode = 01B0;
},
{
glyphname = uni01B1;
lastChange = "2017-05-19 14:54:14 +0000";
layers = (
{
layerId = "173B8943-1C9C-4036-959A-12BE1501493B";
paths = (
{
closed = 1;
nodes = (
"973 728 OFFCURVE",
"954 540 OFFCURVE",
"898 407 CURVE SMOOTH",
"842 274 OFFCURVE",
"744 177 OFFCURVE",
"587 182 CURVE SMOOTH",
"439 189 OFFCURVE",
"383 293 OFFCURVE",
"374 422 CURVE SMOOTH",
"371 457 OFFCURVE",
"370 491 OFFCURVE",
"371 522 CURVE SMOOTH",
"371 585 OFFCURVE",
"393 765 OFFCURVE",
"438 920 CURVE SMOOTH",
"482 1075 OFFCURVE",
"567 1207 OFFCURVE",
"722 1248 CURVE",
"754 1456 LINE",
"270 1456 LINE",
"234 1253 LINE",
"445 1257 LINE",
"266 1118 OFFCURVE",
"159 934 OFFCURVE",
"125 704 CURVE SMOOTH",
"111 606 LINE SMOOTH",
"86 397 OFFCURVE",
"146 194 OFFCURVE",
"291 73 CURVE SMOOTH",
"436 -48 OFFCURVE",
"708 -55 OFFCURVE",
"890 62 CURVE SMOOTH",
"1072 179 OFFCURVE",
"1185 385 OFFCURVE",
"1217 606 CURVE SMOOTH",
"1230 705 LINE SMOOTH",
"1254 889 OFFCURVE",
"1212 1071 OFFCURVE",
"1105 1251 CURVE",
"1315 1253 LINE",
"1352 1456 LINE",
"860 1456 LINE",
"828 1247 LINE",
"963 1202 OFFCURVE",
"992 1053 OFFCURVE",
"984 900 CURVE SMOOTH"
);
}
);
width = 1322;
}
);
note = uni01B1;
unicode = 01B1;
},
{
glyphname = uni01B2;
lastChange = "2017-05-19 14:54:14 +0000";
layers = (
{
layerId = "173B8943-1C9C-4036-959A-12BE1501493B";
paths = (
{
closed = 1;
nodes = (
"869 -26 OFFCURVE",
"1107 164 OFFCURVE",
"1158 464 CURVE SMOOTH",
"1260 1102 LINE",
"1280 1301 OFFCURVE",
"1184 1470 OFFCURVE",
"971 1474 CURVE SMOOTH",
"933 1475 OFFCURVE",
"893 1470 OFFCURVE",
"851 1460 CURVE",
"832 1260 LINE",
"861 1265 OFFCURVE",
"887 1267 OFFCURVE",
"908 1267 CURVE",
"1011 1263 OFFCURVE",
"1026 1195 OFFCURVE",
"1015 1103 CURVE",
"912 477 LINE SMOOTH",
"883 297 OFFCURVE",
"765 174 OFFCURVE",
"574 181 CURVE SMOOTH",
"393 186 OFFCURVE",
"329 314 OFFCURVE",
"350 482 CURVE",
"515 1456 LINE",
"269 1456 LINE",
"104 483 LINE",
"69 180 OFFCURVE",
"261 -14 OFFCURVE",
"560 -21 CURVE SMOOTH"
);
}
);
width = 1300;
}
);
note = uni01B2;
unicode = 01B2;
},
{
glyphname = uni01B3;
lastChange = "2017-05-19 14:54:14 +0000";
layers = (
{
layerId = "173B8943-1C9C-4036-959A-12BE1501493B";
paths = (
{
closed = 1;
nodes = (
"1058 1022 OFFCURVE",
"1079 1057 OFFCURVE",
"1105 1102 CURVE SMOOTH",
"1130 1147 OFFCURVE",
"1158 1185 OFFCURVE",
"1188 1216 CURVE SMOOTH",
"1248 1277 OFFCURVE",
"1321 1268 OFFCURVE",
"1382 1231 CURVE",
"1486 1404 LINE",
"1411 1452 OFFCURVE",
"1335 1477 OFFCURVE",
"1257 1478 CURVE SMOOTH",
"1114 1481 OFFCURVE",
"1019 1389 OFFCURVE",
"943 1268 CURVE SMOOTH",
"845 1107 LINE",
"628 766 LINE",
"424 1456 LINE",
"162 1456 LINE",
"473 550 LINE",
"377 0 LINE",
"625 0 LINE",
"716 522 LINE",
"1042 999 LINE SMOOTH"
);
}
);
width = 1328;
}
);
note = uni01B3;
unicode = 01B3;
},
{
glyphname = uni01B4;
lastChange = "2017-05-19 14:54:14 +0000";
layers = (
{
layerId = "173B8943-1C9C-4036-959A-12BE1501493B";
paths = (
{
closed = 1;
nodes = (
"999 1047 LINE SMOOTH",
"1040 1132 OFFCURVE",
"1092 1173 OFFCURVE",
"1153 1171 CURVE SMOOTH",
"1182 1170 OFFCURVE",
"1217 1158 OFFCURVE",
"1256 1135 CURVE",
"1324 1282 LINE",
"1180 1389 OFFCURVE",
"1028 1384 OFFCURVE",
"940 1313 CURVE SMOOTH",
"852 1242 OFFCURVE",
"799 1125 OFFCURVE",
"752 1017 CURVE SMOOTH",
"436 340 LINE",
"434 400 LINE",
"346 1082 LINE",
"99 1082 LINE",
"280 19 LINE",
"225 -90 LINE SMOOTH",
"173 -189 OFFCURVE",
"103 -243 OFFCURVE",
"-13 -238 CURVE",
"-55 -233 LINE",
"-75 -421 LINE",
"-22 -434 OFFCURVE",
"19 -440 OFFCURVE",
"48 -441 CURVE SMOOTH",
"228 -444 OFFCURVE",
"342 -317 OFFCURVE",
"411 -165 CURVE SMOOTH",
"951 943 LINE"
);
}
);
width = 1183;
}
);
note = uni01B4;
unicode = 01B4;
},
{
glyphname = uni01B5;
lastChange = "2017-05-19 14:54:14 +0000";
layers = (
{
layerId = "173B8943-1C9C-4036-959A-12BE1501493B";
paths = (
{
closed = 1;
nodes = (
"550 824 LINE",
"162 824 LINE",
"132 654 LINE",
"407 654 LINE",
"3 176 LINE",
"-28 0 LINE",
"1025 0 LINE",
"1061 202 LINE",
"314 202 LINE",
"694 654 LINE",
"1073 654 LINE",
"1103 824 LINE",
"837 824 LINE",
"1224 1284 LINE",
"1254 1456 LINE",
"230 1456 LINE",
"195 1253 LINE",
"913 1253 LINE"
);
}
);
width = 1197;
}
);
note = uni01B5;
unicode = 01B5;
},
{
glyphname = uni01B6;
lastChange = "2017-05-19 14:54:14 +0000";
layers = (
{
layerId = "173B8943-1C9C-4036-959A-12BE1501493B";
paths = (
{
closed = 1;
nodes = (
"430 634 LINE",
"141 634 LINE",
"111 464 LINE",
"277 464 LINE",
"10 171 LINE",
"-19 0 LINE",
"834 0 LINE",
"868 195 LINE",
"319 195 LINE",
"563 464 LINE",
"843 464 LINE",
"873 634 LINE",
"716 634 LINE",
"973 917 LINE",
"1001 1082 LINE",
"179 1082 LINE",
"145 886 LINE",
"659 886 LINE"
);
}
);
width = 1013;
}
);
leftKerningGroup = z;
note = uni01B6;
rightKerningGroup = z;
unicode = 01B6;
},
{
glyphname = uni01B7;
lastChange = "2017-05-19 14:54:14 +0000";
layers = (
{
layerId = "173B8943-1C9C-4036-959A-12BE1501493B";
paths = (
{
closed = 1;
nodes = (
"401 757 LINE",
"371 584 LINE",
"622 583 LINE SMOOTH",
"863 576 OFFCURVE",
"899 397 OFFCURVE",
"875 186 CURVE SMOOTH",
"848 -46 OFFCURVE",
"729 -230 OFFCURVE",
"476 -223 CURVE SMOOTH",
"285 -218 OFFCURVE",
"228 -106 OFFCURVE",
"220 71 CURVE",
"-25 71 LINE",
"-13 -224 OFFCURVE",
"159 -415 OFFCURVE",
"462 -422 CURVE SMOOTH",
"837 -430 OFFCURVE",
"1084 -179 OFFCURVE",
"1120 186 CURVE SMOOTH",
"1151 490 OFFCURVE",
"1023 752 OFFCURVE",
"694 773 CURVE",
"1230 1289 LINE",
"1259 1456 LINE",
"241 1456 LINE",
"205 1253 LINE",
"913 1253 LINE"
);
}
);
width = 1291;
}
);
note = uni01B7;
unicode = 01B7;
},
{
glyphname = uni01B8;
lastChange = "2017-05-19 14:54:14 +0000";
layers = (
{
layerId = "173B8943-1C9C-4036-959A-12BE1501493B";
paths = (
{
closed = 1;
nodes = (
"1311 1253 LINE",
"1347 1456 LINE",
"330 1456 LINE",
"305 1311 LINE",
"656 779 LINE",
"295 754 OFFCURVE",
"62 536 OFFCURVE",
"23 172 CURVE SMOOTH",
"-12 -169 OFFCURVE",
"149 -418 OFFCURVE",
"508 -423 CURVE SMOOTH",
"816 -427 OFFCURVE",
"1070 -238 OFFCURVE",
"1122 70 CURVE",
"876 69 LINE",
"829 -118 OFFCURVE",
"721 -230 OFFCURVE",
"520 -223 CURVE SMOOTH",
"283 -216 OFFCURVE",
"248 -32 OFFCURVE",
"271 171 CURVE SMOOTH",
"300 422 OFFCURVE",
"426 586 OFFCURVE",
"690 585 CURVE SMOOTH",
"916 584 LINE",
"943 735 LINE",
"587 1253 LINE"
);
}
);
width = 1291;
}
);
note = uni01B8;
unicode = 01B8;
},
{
glyphname = uni01B9;
lastChange = "2017-05-19 14:54:14 +0000";
layers = (
{
layerId = "173B8943-1C9C-4036-959A-12BE1501493B";
paths = (
{
closed = 1;
nodes = (
"1088 1082 LINE",
"205 1082 LINE",
"179 938 LINE",
"464 485 LINE",
"200 450 OFFCURVE",
"4 305 OFFCURVE",
"-17 26 CURVE SMOOTH",
"-38 -245 OFFCURVE",
"173 -391 OFFCURVE",
"424 -396 CURVE SMOOTH",
"689 -401 OFFCURVE",
"923 -246 OFFCURVE",
"947 29 CURVE",
"711 28 LINE",
"688 -108 OFFCURVE",
"577 -205 OFFCURVE",
"437 -202 CURVE SMOOTH",
"301 -199 OFFCURVE",
"207 -115 OFFCURVE",
"223 24 CURVE SMOOTH",
"246 223 OFFCURVE",
"381 315 OFFCURVE",
"573 315 CURVE SMOOTH",
"698 314 LINE",
"727 474 LINE",
"450 886 LINE",
"1053 886 LINE"
);
}
);
width = 1130;
}
);
note = uni01B9;
unicode = 01B9;
},
{
glyphname = uni01BA;
lastChange = "2017-05-19 14:54:14 +0000";
layers = (
{
layerId = "173B8943-1C9C-4036-959A-12BE1501493B";
paths = (
{
closed = 1;
nodes = (
"606 265 OFFCURVE",
"493 243 OFFCURVE",
"373 219 CURVE SMOOTH",
"313 206 OFFCURVE",
"250 189 OFFCURVE",
"184 166 CURVE SMOOTH",
"52 120 OFFCURVE",
"-50 36 OFFCURVE",
"-57 -116 CURVE SMOOTH",
"-64 -263 OFFCURVE",
"23 -354 OFFCURVE",
"144 -401 CURVE SMOOTH",
"265 -448 OFFCURVE",
"404 -454 OFFCURVE",
"548 -399 CURVE SMOOTH",
"692 -344 OFFCURVE",
"801 -235 OFFCURVE",
"812 -74 CURVE",
"582 -76 LINE",
"553 -196 OFFCURVE",
"458 -261 OFFCURVE",
"335 -258 CURVE SMOOTH",
"255 -255 OFFCURVE",
"163 -226 OFFCURVE",
"176 -129 CURVE SMOOTH",
"189 -25 OFFCURVE",
"259 -8 OFFCURVE",
"463 40 CURVE SMOOTH",
"564 63 OFFCURVE",
"642 90 OFFCURVE",
"697 121 CURVE SMOOTH",
"805 182 OFFCURVE",
"853 255 OFFCURVE",
"858 367 CURVE SMOOTH",
"863 500 OFFCURVE",
"776 601 OFFCURVE",
"655 642 CURVE",
"1022 929 LINE",
"1048 1082 LINE",
"200 1082 LINE",
"165 887 LINE",
"650 885 LINE",
"304 640 LINE",
"277 484 LINE",
"488 483 LINE",
"557 480 OFFCURVE",
"642 462 OFFCURVE",
"629 374 CURVE",
"627 364 LINE SMOOTH"
);
}
);
width = 1054;
}
);
note = uni01BA;
unicode = 01BA;
},
{
glyphname = uni01BB;
lastChange = "2017-05-19 14:54:14 +0000";
layers = (
{
layerId = "173B8943-1C9C-4036-959A-12BE1501493B";
paths = (
{
closed = 1;
nodes = (
"752 576 LINE",
"827 647 LINE",
"1088 647 LINE",
"1118 818 LINE",
"960 815 LINE",
"1032 909 OFFCURVE",
"1072 999 OFFCURVE",
"1080 1084 CURVE SMOOTH",
"1105 1331 OFFCURVE",
"926 1472 OFFCURVE",
"691 1477 CURVE SMOOTH",
"412 1481 OFFCURVE",
"180 1295 OFFCURVE",
"157 1012 CURVE",
"392 1014 LINE",
"413 1165 OFFCURVE",
"510 1288 OFFCURVE",
"674 1283 CURVE SMOOTH",
"802 1279 OFFCURVE",
"854 1176 OFFCURVE",
"838 1059 CURVE SMOOTH",
"825 964 OFFCURVE",
"763 886 OFFCURVE",
"702 817 CURVE",
"307 818 LINE",
"277 647 LINE",
"531 647 LINE",
"32 179 LINE",
"1 0 LINE",
"953 0 LINE",
"988 195 LINE",
"338 197 LINE"
);
}
);
width = 1156;
}
);
note = uni01BB;
unicode = 01BB;
},
{
glyphname = uni01BC;
lastChange = "2017-05-19 14:54:14 +0000";
layers = (
{
layerId = "173B8943-1C9C-4036-959A-12BE1501493B";
paths = (
{
closed = 1;
nodes = (
"225 726 LINE",
"420 676 LINE",
"484 729 OFFCURVE",
"548 762 OFFCURVE",
"635 759 CURVE SMOOTH",
"794 756 OFFCURVE",
"843 621 OFFCURVE",
"827 482 CURVE SMOOTH",
"810 327 OFFCURVE",
"719 171 OFFCURVE",
"546 175 CURVE SMOOTH",
"414 179 OFFCURVE",
"358 272 OFFCURVE",
"351 395 CURVE",
"123 395 LINE",
"126 274 OFFCURVE",
"164 175 OFFCURVE",
"238 98 CURVE SMOOTH",
"386 -55 OFFCURVE",
"707 -73 OFFCURVE",
"900 116 CURVE SMOOTH",
"1093 305 OFFCURVE",
"1111 609 OFFCURVE",
"997 806 CURVE SMOOTH",
"883 1002 OFFCURVE",
"616 976 OFFCURVE",
"484 897 CURVE",
"594 1247 LINE",
"1154 1247 LINE",
"1191 1456 LINE",
"209 1456 LINE",
"172 1247 LINE",
"371 1247 LINE"
);
}
);
width = 1163;
}
);
note = uni01BC;
unicode = 01BC;
},
{
glyphname = uni01BD;
lastChange = "2017-05-19 14:54:14 +0000";
layers = (
{
layerId = "173B8943-1C9C-4036-959A-12BE1501493B";
paths = (
{
closed = 1;
nodes = (
"135 480 LINE",
"354 468 LINE",
"404 523 OFFCURVE",
"468 550 OFFCURVE",
"546 549 CURVE SMOOTH",
"653 548 OFFCURVE",
"714 479 OFFCURVE",
"702 371 CURVE SMOOTH",
"687 247 OFFCURVE",
"591 179 OFFCURVE",
"470 180 CURVE SMOOTH",
"371 181 OFFCURVE",
"295 226 OFFCURVE",
"295 330 CURVE",
"61 313 LINE",
"61 203 OFFCURVE",
"102 121 OFFCURVE",
"184 67 CURVE SMOOTH",
"348 -41 OFFCURVE",
"594 -52 OFFCURVE",
"783 73 CURVE SMOOTH",
"972 198 OFFCURVE",
"978 489 OFFCURVE",
"860 625 CURVE SMOOTH",
"742 761 OFFCURVE",
"525 741 OFFCURVE",
"401 668 CURVE",
"477 883 LINE",
"966 883 LINE",
"1002 1082 LINE",
"127 1082 LINE",
"92 883 LINE",
"252 883 LINE"
);
}
);
width = 1040;
}
);
note = uni01BD;
unicode = 01BD;
},
{
glyphname = uni01BE;
lastChange = "2017-05-19 14:54:14 +0000";
layers = (
{
layerId = "173B8943-1C9C-4036-959A-12BE1501493B";
paths = (
{
closed = 1;
nodes = (
"894 435 OFFCURVE",
"826 501 OFFCURVE",
"751 562 CURVE SMOOTH",
"676 622 OFFCURVE",
"613 687 OFFCURVE",
"628 799 CURVE SMOOTH",
"645 903 LINE",
"830 903 LINE",
"862 1082 LINE",
"675 1082 LINE",
"721 1345 LINE",
"485 1345 LINE",
"439 1082 LINE",
"265 1082 LINE",
"234 903 LINE",
"409 903 LINE",
"395 798 LINE",
"386 681 OFFCURVE",
"453 597 OFFCURVE",
"530 525 CURVE SMOOTH",
"606 453 OFFCURVE",
"673 387 OFFCURVE",
"658 302 CURVE SMOOTH",
"641 199 OFFCURVE",
"530 163 OFFCURVE",
"438 164 CURVE SMOOTH",
"315 165 OFFCURVE",
"254 225 OFFCURVE",
"254 343 CURVE",
"24 343 LINE",
"23 228 OFFCURVE",
"63 139 OFFCURVE",
"144 76 CURVE SMOOTH",
"307 -49 OFFCURVE",
"498 -35 OFFCURVE",
"637 13 CURVE SMOOTH",
"776 60 OFFCURVE",
"882 159 OFFCURVE",
"889 316 CURVE SMOOTH"
);
}
);
width = 1026;
}
);
note = uni01BE;
unicode = 01BE;
},
{
glyphname = uni01BF;
lastChange = "2017-05-19 14:54:14 +0000";
layers = (
{
layerId = "173B8943-1C9C-4036-959A-12BE1501493B";
paths = (
{
closed = 1;
nodes = (
"1050 716 OFFCURVE",
"1026 897 OFFCURVE",
"924 1012 CURVE SMOOTH",
"822 1127 OFFCURVE",
"569 1149 OFFCURVE",
"402 972 CURVE",
"419 1083 LINE",
"204 1082 LINE",
"-56 -416 LINE",
"181 -416 LINE",
"230 -165 LINE",
"355 -132 OFFCURVE",
"476 -89 OFFCURVE",
"592 -35 CURVE SMOOTH",
"823 73 OFFCURVE",
"995 246 OFFCURVE",
"1031 531 CURVE",
"1033 553 LINE SMOOTH"
);
},
{
closed = 1;
nodes = (
"682 903 OFFCURVE",
"726 882 OFFCURVE",
"752 843 CURVE SMOOTH",
"804 764 OFFCURVE",
"809 642 OFFCURVE",
"790 525 CURVE SMOOTH",
"746 242 OFFCURVE",
"509 99 OFFCURVE",
"250 24 CURVE",
"389 780 LINE",
"454 866 OFFCURVE",
"532 908 OFFCURVE",
"621 905 CURVE SMOOTH"
);
}
);
width = 1118;
}
);
note = uni01BF;
unicode = 01BF;
},
{
glyphname = uni01C0;
lastChange = "2017-05-19 14:54:14 +0000";
layers = (
{
layerId = "173B8943-1C9C-4036-959A-12BE1501493B";
paths = (
{
closed = 1;
nodes = (
"57 0 LINE",
"221 0 LINE",
"474 1456 LINE",
"310 1456 LINE"
);
}
);
width = 486;
}
);
note = uni01C0;
unicode = 01C0;
},
{
glyphname = uni01C5;
lastChange = "2017-05-19 14:54:14 +0000";
layers = (
{
layerId = "173B8943-1C9C-4036-959A-12BE1501493B";
paths = (
{
closed = 1;
nodes = (
"1519 1501 LINE",
"1746 1252 LINE",
"1899 1252 LINE",
"2193 1502 LINE",
"2193 1524 LINE",
"1984 1521 LINE",
"1825 1380 LINE",
"1715 1522 LINE",
"1520 1524 LINE"
);
},
{
closed = 1;
nodes = (
"867 5 OFFCURVE",
"1164 287 OFFCURVE",
"1215 707 CURVE SMOOTH",
"1222 766 LINE SMOOTH",
"1235 887 OFFCURVE",
"1225 1000 OFFCURVE",
"1190 1104 CURVE SMOOTH",
"1121 1311 OFFCURVE",
"956 1450 OFFCURVE",
"693 1455 CURVE SMOOTH",
"291 1456 LINE",
"39 0 LINE",
"476 0 LINE SMOOTH"
);
},
{
closed = 1;
nodes = (
"779 1249 OFFCURVE",
"848 1224 OFFCURVE",
"893 1175 CURVE SMOOTH",
"983 1078 OFFCURVE",
"998 920 OFFCURVE",
"978 767 CURVE SMOOTH",
"968 698 LINE SMOOTH",
"928 419 OFFCURVE",
"762 200 OFFCURVE",
"467 201 CURVE SMOOTH",
"320 202 LINE",
"502 1253 LINE",
"687 1252 LINE SMOOTH"
);
},
{
closed = 1;
nodes = (
"1198 171 LINE",
"1168 0 LINE",
"2021 0 LINE",
"2056 195 LINE",
"1506 195 LINE",
"2160 917 LINE",
"2189 1082 LINE",
"1366 1082 LINE",
"1331 886 LINE",
"1846 886 LINE"
);
}
);
width = 2194;
}
);
note = uni01C5;
rightKerningGroup = z;
unicode = 01C5;
},
{
glyphname = uni01C6;
lastChange = "2017-05-19 14:54:14 +0000";
layers = (
{
layerId = "173B8943-1C9C-4036-959A-12BE1501493B";
paths = (
{
closed = 1;
nodes = (
"1165 1560 LINE",
"927 1560 LINE",
"819 981 LINE",
"692 1137 OFFCURVE",
"441 1134 OFFCURVE",
"303 1023 CURVE SMOOTH",
"165 911 OFFCURVE",
"90 725 OFFCURVE",
"67 548 CURVE",
"65 526 LINE SMOOTH",
"48 369 OFFCURVE",
"77 187 OFFCURVE",
"181 71 CURVE SMOOTH",
"284 -45 OFFCURVE",
"534 -71 OFFCURVE",
"703 118 CURVE",
"691 0 LINE",
"894 0 LINE"
);
},
{
closed = 1;
nodes = (
"1335 1501 LINE",
"1563 1252 LINE",
"1716 1252 LINE",
"2010 1502 LINE",
"2010 1524 LINE",
"1801 1521 LINE",
"1641 1380 LINE",
"1532 1522 LINE",
"1336 1524 LINE"
);
},
{
closed = 1;
nodes = (
"1014 171 LINE",
"985 0 LINE",
"1838 0 LINE",
"1872 195 LINE",
"1323 195 LINE",
"1977 917 LINE",
"2005 1082 LINE",
"1182 1082 LINE",
"1148 886 LINE",
"1663 886 LINE"
);
},
{
closed = 1;
nodes = (
"321 654 OFFCURVE",
"356 749 OFFCURVE",
"409 814 CURVE SMOOTH",
"514 942 OFFCURVE",
"729 944 OFFCURVE",
"792 776 CURVE",
"710 312 LINE",
"644 220 OFFCURVE",
"565 176 OFFCURVE",
"474 179 CURVE SMOOTH",
"414 181 OFFCURVE",
"371 202 OFFCURVE",
"346 241 CURVE SMOOTH",
"294 319 OFFCURVE",
"292 436 OFFCURVE",
"303 527 CURVE SMOOTH"
);
}
);
width = 2010;
}
);
leftKerningGroup = c;
note = uni01C6;
rightKerningGroup = z;
unicode = 01C6;
},
{
glyphname = uni01E4;
lastChange = "2017-05-19 14:54:14 +0000";
layers = (
{
layerId = "173B8943-1C9C-4036-959A-12BE1501493B";
paths = (
{
closed = 1;
nodes = (
"1328 326 LINE",
"1356 484 LINE",
"1207 484 LINE",
"1253 747 LINE",
"717 747 LINE",
"683 556 LINE",
"978 558 LINE",
"957 482 LINE",
"706 484 LINE",
"677 326 LINE",
"939 328 LINE",
"923 269 LINE",
"843 209 OFFCURVE",
"746 180 OFFCURVE",
"633 183 CURVE SMOOTH",
"454 187 OFFCURVE",
"382 309 OFFCURVE",
"366 461 CURVE SMOOTH",
"351 598 OFFCURVE",
"367 803 OFFCURVE",
"436 984 CURVE SMOOTH",
"504 1165 OFFCURVE",
"621 1280 OFFCURVE",
"812 1273 CURVE SMOOTH",
"977 1268 OFFCURVE",
"1050 1166 OFFCURVE",
"1062 1010 CURVE",
"1302 1009 LINE",
"1291 1154 OFFCURVE",
"1245 1267 OFFCURVE",
"1164 1349 CURVE SMOOTH",
"1000 1513 OFFCURVE",
"661 1513 OFFCURVE",
"469 1382 CURVE SMOOTH",
"277 1251 OFFCURVE",
"166 1023 OFFCURVE",
"131 775 CURVE SMOOTH",
"118 680 LINE SMOOTH",
"103 563 OFFCURVE",
"111 451 OFFCURVE",
"140 345 CURVE SMOOTH",
"199 133 OFFCURVE",
"352 -16 OFFCURVE",
"615 -20 CURVE SMOOTH",
"808 -23 OFFCURVE",
"1038 28 OFFCURVE",
"1162 189 CURVE",
"1180 326 LINE"
);
}
);
width = 1376;
}
);
note = uni01E4;
unicode = 01E4;
},
{
glyphname = uni01E5;
lastChange = "2017-05-19 14:54:14 +0000";
layers = (
{
layerId = "173B8943-1C9C-4036-959A-12BE1501493B";
paths = (
{
closed = 1;
nodes = (
"903 -52 LINE",
"1099 1082 LINE",
"882 1083 LINE",
"847 973 LINE",
"728 1140 OFFCURVE",
"456 1134 OFFCURVE",
"312 1017 CURVE SMOOTH",
"185 914 OFFCURVE",
"107 755 OFFCURVE",
"78 542 CURVE SMOOTH",
"76 526 LINE SMOOTH",
"60 367 OFFCURVE",
"91 186 OFFCURVE",
"196 71 CURVE SMOOTH",
"300 -45 OFFCURVE",
"541 -64 OFFCURVE",
"702 99 CURVE",
"666 -53 LINE",
"-77 -52 LINE",
"-100 -179 LINE",
"630 -177 LINE",
"491 -374 OFFCURVE",
"229 -358 OFFCURVE",
"100 -202 CURVE",
"-17 -341 LINE",
"78 -454 OFFCURVE",
"216 -510 OFFCURVE",
"363 -513 CURVE SMOOTH",
"602 -518 OFFCURVE",
"788 -399 OFFCURVE",
"879 -179 CURVE",
"981 -179 LINE",
"1003 -52 LINE"
);
},
{
closed = 1;
nodes = (
"332 653 OFFCURVE",
"368 748 OFFCURVE",
"423 813 CURVE SMOOTH",
"531 942 OFFCURVE",
"743 941 OFFCURVE",
"810 782 CURVE",
"726 305 LINE",
"659 218 OFFCURVE",
"581 176 OFFCURVE",
"491 179 CURVE SMOOTH",
"430 181 OFFCURVE",
"387 201 OFFCURVE",
"361 240 CURVE SMOOTH",
"308 317 OFFCURVE",
"305 435 OFFCURVE",
"314 527 CURVE"
);
}
);
width = 1126;
}
);
leftKerningGroup = c;
note = uni01E5;
unicode = 01E5;
},
{
glyphname = uni01EF;
lastChange = "2017-05-19 14:54:14 +0000";
layers = (
{
layerId = "173B8943-1C9C-4036-959A-12BE1501493B";
paths = (
{
closed = 1;
nodes = (
"377 1501 LINE",
"605 1252 LINE",
"758 1252 LINE",
"1050 1502 LINE",
"1051 1524 LINE",
"843 1521 LINE",
"682 1380 LINE",
"573 1522 LINE",
"378 1524 LINE"
);
},
{
closed = 1;
nodes = (
"674 308 OFFCURVE",
"752 217 OFFCURVE",
"729 40 CURVE SMOOTH",
"709 -112 OFFCURVE",
"571 -203 OFFCURVE",
"423 -199 CURVE SMOOTH",
"290 -195 OFFCURVE",
"219 -98 OFFCURVE",
"224 29 CURVE",
"-12 30 LINE",
"-17 -99 OFFCURVE",
"21 -202 OFFCURVE",
"100 -277 CURVE SMOOTH",
"259 -429 OFFCURVE",
"504 -414 OFFCURVE",
"668 -349 CURVE SMOOTH",
"831 -284 OFFCURVE",
"947 -152 OFFCURVE",
"963 43 CURVE SMOOTH",
"980 270 OFFCURVE",
"865 445 OFFCURVE",
"634 478 CURVE",
"1076 916 LINE",
"1104 1082 LINE",
"221 1082 LINE",
"186 886 LINE",
"772 886 LINE",
"376 496 LINE",
"344 314 LINE",
"497 313 LINE SMOOTH"
);
}
);
width = 1155;
}
);
note = uni01EF;
unicode = 01EF;
},
{
glyphname = uni01F6;
lastChange = "2017-05-19 14:54:14 +0000";
layers = (
{
layerId = "173B8943-1C9C-4036-959A-12BE1501493B";
paths = (
{
closed = 1;
nodes = (
"432 850 LINE",
"538 1456 LINE",
"292 1456 LINE",
"39 0 LINE",
"285 0 LINE",
"398 648 LINE",
"1027 648 LINE",
"1002 483 LINE SMOOTH",
"967 188 OFFCURVE",
"1132 -17 OFFCURVE",
"1432 -22 CURVE SMOOTH",
"1748 -27 OFFCURVE",
"1963 178 OFFCURVE",
"2006 483 CURVE SMOOTH",
"2107 1081 LINE",
"1861 1081 LINE",
"1759 477 LINE SMOOTH",
"1731 302 OFFCURVE",
"1635 175 OFFCURVE",
"1446 182 CURVE SMOOTH",
"1266 187 OFFCURVE",
"1231 321 OFFCURVE",
"1250 480 CURVE",
"1414 1456 LINE",
"1167 1456 LINE",
"1062 850 LINE"
);
}
);
width = 2142;
}
);
note = uni01F6;
unicode = 01F6;
},
{
glyphname = uni01F7;
lastChange = "2017-05-19 14:54:14 +0000";
layers = (
{
layerId = "173B8943-1C9C-4036-959A-12BE1501493B";
paths = (
{
closed = 1;
nodes = (
"1280 1027 OFFCURVE",
"1250 1173 OFFCURVE",
"1170 1293 CURVE SMOOTH",
"1009 1532 OFFCURVE",
"676 1494 OFFCURVE",
"519 1422 CURVE",
"526 1457 LINE",
"291 1456 LINE",
"-33 -416 LINE",
"213 -416 LINE",
"264 -155 LINE",
"420 -118 OFFCURVE",
"569 -56 OFFCURVE",
"711 31 CURVE SMOOTH",
"994 206 OFFCURVE",
"1205 470 OFFCURVE",
"1253 803 CURVE SMOOTH",
"1259 855 LINE SMOOTH"
);
},
{
closed = 1;
nodes = (
"844 1272 OFFCURVE",
"904 1251 OFFCURVE",
"943 1211 CURVE SMOOTH",
"1020 1130 OFFCURVE",
"1030 996 OFFCURVE",
"1013 859 CURVE SMOOTH",
"1005 805 LINE SMOOTH",
"985 680 OFFCURVE",
"940 569 OFFCURVE",
"870 470 CURVE SMOOTH",
"729 272 OFFCURVE",
"515 128 OFFCURVE",
"287 51 CURVE",
"488 1160 LINE",
"569 1238 OFFCURVE",
"660 1276 OFFCURVE",
"761 1274 CURVE SMOOTH"
);
}
);
width = 1318;
}
);
note = uni01F7;
unicode = 01F7;
},
{
glyphname = uni021C;
lastChange = "2017-05-19 14:54:14 +0000";
layers = (
{
layerId = "173B8943-1C9C-4036-959A-12BE1501493B";
paths = (
{
closed = 1;
nodes = (
"1065 468 OFFCURVE",
"1037 597 OFFCURVE",
"937 682 CURVE",
"1054 783 OFFCURVE",
"1143 909 OFFCURVE",
"1158 1069 CURVE SMOOTH",
"1174 1257 OFFCURVE",
"1080 1374 OFFCURVE",
"935 1431 CURVE SMOOTH",
"790 1488 OFFCURVE",
"615 1493 OFFCURVE",
"455 1433 CURVE SMOOTH",
"295 1372 OFFCURVE",
"176 1250 OFFCURVE",
"163 1067 CURVE",
"408 1069 LINE",
"420 1136 OFFCURVE",
"453 1188 OFFCURVE",
"508 1224 CURVE SMOOTH",
"617 1295 OFFCURVE",
"771 1291 OFFCURVE",
"859 1219 CURVE SMOOTH",
"946 1146 OFFCURVE",
"919 950 OFFCURVE",
"813 829 CURVE SMOOTH",
"707 708 OFFCURVE",
"551 632 OFFCURVE",
"358 569 CURVE SMOOTH",
"147 502 LINE",
"128 314 LINE",
"375 370 OFFCURVE",
"592 452 OFFCURVE",
"780 561 CURVE",
"832 504 OFFCURVE",
"820 403 OFFCURVE",
"809 338 CURVE SMOOTH",
"789 213 OFFCURVE",
"737 112 OFFCURVE",
"654 37 CURVE SMOOTH",
"486 -114 OFFCURVE",
"237 -188 OFFCURVE",
"20 -235 CURVE",
"-2 -438 LINE",
"218 -401 OFFCURVE",
"465 -336 OFFCURVE",
"673 -217 CURVE SMOOTH",
"880 -98 OFFCURVE",
"1029 78 OFFCURVE",
"1054 341 CURVE SMOOTH"
);
}
);
width = 1194;
}
);
note = uni021C;
unicode = 021C;
},
{
glyphname = uni021D;
lastChange = "2017-05-19 14:54:14 +0000";
layers = (
{
layerId = "173B8943-1C9C-4036-959A-12BE1501493B";
paths = (
{
closed = 1;
nodes = (
"851 317 OFFCURVE",
"820 412 OFFCURVE",
"747 481 CURVE",
"856 577 OFFCURVE",
"914 681 OFFCURVE",
"922 794 CURVE SMOOTH",
"927 868 OFFCURVE",
"912 927 OFFCURVE",
"876 972 CURVE SMOOTH",
"804 1061 OFFCURVE",
"677 1099 OFFCURVE",
"549 1102 CURVE SMOOTH",
"342 1105 OFFCURVE",
"121 1002 OFFCURVE",
"104 775 CURVE",
"341 776 LINE",
"362 871 OFFCURVE",
"453 918 OFFCURVE",
"546 917 CURVE SMOOTH",
"635 914 OFFCURVE",
"693 868 OFFCURVE",
"681 776 CURVE SMOOTH",
"670 689 OFFCURVE",
"632 620 OFFCURVE",
"569 567 CURVE SMOOTH",
"442 462 OFFCURVE",
"259 405 OFFCURVE",
"119 364 CURVE",
"101 185 LINE",
"299 229 OFFCURVE",
"465 290 OFFCURVE",
"600 369 CURVE",
"609 343 OFFCURVE",
"614 316 OFFCURVE",
"615 288 CURVE",
"615 131 OFFCURVE",
"559 3 OFFCURVE",
"400 -99 CURVE SMOOTH",
"321 -150 OFFCURVE",
"191 -201 OFFCURVE",
"12 -251 CURVE",
"-7 -438 LINE",
"174 -409 OFFCURVE",
"374 -357 OFFCURVE",
"539 -261 CURVE SMOOTH",
"704 -165 OFFCURVE",
"821 -20 OFFCURVE",
"840 195 CURVE SMOOTH"
);
}
);
width = 1003;
}
);
note = uni021D;
unicode = 021D;
},
{
glyphname = uni0220;
lastChange = "2017-05-19 14:54:14 +0000";
layers = (
{
layerId = "173B8943-1C9C-4036-959A-12BE1501493B";
paths = (
{
closed = 1;
nodes = (
"1256 1140 OFFCURVE",
"1222 1253 OFFCURVE",
"1140 1341 CURVE SMOOTH",
"975 1516 OFFCURVE",
"708 1502 OFFCURVE",
"507 1397 CURVE",
"518 1459 LINE",
"292 1456 LINE",
"39 0 LINE",
"276 0 LINE",
"489 1201 LINE",
"596 1254 OFFCURVE",
"696 1279 OFFCURVE",
"789 1276 CURVE SMOOTH",
"957 1272 OFFCURVE",
"1023 1165 OFFCURVE",
"1003 1004 CURVE",
"760 -416 LINE",
"999 -416 LINE",
"1241 1003 LINE"
);
}
);
width = 1297;
}
);
note = uni0220;
unicode = 0220;
},
{
glyphname = uni0221;
lastChange = "2017-05-19 14:54:14 +0000";
layers = (
{
layerId = "173B8943-1C9C-4036-959A-12BE1501493B";
paths = (
{
closed = 1;
nodes = (
"694 1138 OFFCURVE",
"443 1134 OFFCURVE",
"304 1023 CURVE SMOOTH",
"165 912 OFFCURVE",
"89 727 OFFCURVE",
"69 548 CURVE SMOOTH",
"66 526 LINE SMOOTH",
"50 370 OFFCURVE",
"78 187 OFFCURVE",
"181 71 CURVE SMOOTH",
"284 -45 OFFCURVE",
"524 -64 OFFCURVE",
"684 100 CURVE",
"655 -22 LINE",
"379 -245 LINE",
"482 -403 LINE",
"654 -258 LINE",
"687 -387 OFFCURVE",
"815 -434 OFFCURVE",
"939 -437 CURVE SMOOTH",
"1111 -440 OFFCURVE",
"1277 -343 OFFCURVE",
"1284 -156 CURVE SMOOTH",
"1291 8 OFFCURVE",
"1173 103 OFFCURVE",
"1016 104 CURVE SMOOTH",
"981 104 OFFCURVE",
"944 99 OFFCURVE",
"903 90 CURVE",
"1161 1536 LINE",
"923 1536 LINE",
"819 981 LINE"
);
},
{
closed = 1;
nodes = (
"323 679 OFFCURVE",
"367 785 OFFCURVE",
"451 856 CURVE SMOOTH",
"534 927 OFFCURVE",
"728 943 OFFCURVE",
"792 776 CURVE",
"710 312 LINE",
"644 220 OFFCURVE",
"565 176 OFFCURVE",
"474 179 CURVE SMOOTH",
"413 181 OFFCURVE",
"370 202 OFFCURVE",
"345 241 CURVE SMOOTH",
"293 319 OFFCURVE",
"293 436 OFFCURVE",
"302 527 CURVE"
);
},
{
closed = 1;
nodes = (
"926 -81 OFFCURVE",
"959 -73 OFFCURVE",
"984 -74 CURVE SMOOTH",
"1036 -75 OFFCURVE",
"1073 -107 OFFCURVE",
"1065 -160 CURVE SMOOTH",
"1057 -216 OFFCURVE",
"1008 -259 OFFCURVE",
"952 -260 CURVE SMOOTH",
"885 -260 OFFCURVE",
"865 -211 OFFCURVE",
"873 -152 CURVE",
"884 -96 LINE"
);
}
);
width = 1445;
}
);
leftKerningGroup = c;
note = uni0221;
unicode = 0221;
},
{
glyphname = uni0222;
lastChange = "2017-05-19 14:54:14 +0000";
layers = (
{
layerId = "173B8943-1C9C-4036-959A-12BE1501493B";
paths = (
{
closed = 1;
nodes = (
"1178 586 OFFCURVE",
"1143 709 OFFCURVE",
"1047 801 CURVE",
"1180 868 OFFCURVE",
"1273 965 OFFCURVE",
"1282 1121 CURVE SMOOTH",
"1297 1342 OFFCURVE",
"1145 1461 OFFCURVE",
"937 1476 CURVE",
"918 1282 LINE",
"1006 1257 OFFCURVE",
"1053 1217 OFFCURVE",
"1038 1120 CURVE SMOOTH",
"1015 953 OFFCURVE",
"848 921 OFFCURVE",
"707 921 CURVE SMOOTH",
"516 926 OFFCURVE",
"417 961 OFFCURVE",
"436 1104 CURVE SMOOTH",
"451 1211 OFFCURVE",
"524 1257 OFFCURVE",
"621 1284 CURVE",
"642 1478 LINE",
"525 1473 OFFCURVE",
"422 1442 OFFCURVE",
"333 1384 CURVE SMOOTH",
"156 1267 OFFCURVE",
"130 947 OFFCURVE",
"317 812 CURVE",
"167 721 OFFCURVE",
"86 596 OFFCURVE",
"73 437 CURVE SMOOTH",
"48 140 OFFCURVE",
"268 -13 OFFCURVE",
"543 -21 CURVE SMOOTH",
"911 -21 OFFCURVE",
"1142 162 OFFCURVE",
"1166 455 CURVE SMOOTH"
);
},
{
closed = 1;
nodes = (
"842 705 OFFCURVE",
"940 620 OFFCURVE",
"920 455 CURVE SMOOTH",
"896 270 OFFCURVE",
"748 184 OFFCURVE",
"572 185 CURVE",
"550 186 LINE SMOOTH",
"395 194 OFFCURVE",
"299 274 OFFCURVE",
"319 437 CURVE SMOOTH",
"340 620 OFFCURVE",
"485 715 OFFCURVE",
"661 714 CURVE",
"685 713 LINE SMOOTH"
);
}
);
width = 1294;
}
);
note = uni0222;
unicode = 0222;
},
{
glyphname = uni0223;
lastChange = "2017-05-19 14:54:14 +0000";
layers = (
{
layerId = "173B8943-1C9C-4036-959A-12BE1501493B";
paths = (
{
closed = 1;
nodes = (
"1153 598 OFFCURVE",
"1112 713 OFFCURVE",
"1018 799 CURVE",
"1169 878 OFFCURVE",
"1251 996 OFFCURVE",
"1262 1153 CURVE SMOOTH",
"1279 1373 OFFCURVE",
"1155 1538 OFFCURVE",
"932 1557 CURVE",
"912 1371 LINE",
"1003 1330 OFFCURVE",
"1041 1257 OFFCURVE",
"1027 1150 CURVE SMOOTH",
"1003 967 OFFCURVE",
"851 905 OFFCURVE",
"683 906 CURVE SMOOTH",
"651 907 LINE SMOOTH",
"576 909 OFFCURVE",
"516 927 OFFCURVE",
"470 961 CURVE SMOOTH",
"377 1028 OFFCURVE",
"377 1276 OFFCURVE",
"616 1373 CURVE",
"636 1559 LINE",
"384 1548 OFFCURVE",
"197 1396 OFFCURVE",
"178 1136 CURVE SMOOTH",
"167 1009 OFFCURVE",
"203 890 OFFCURVE",
"304 809 CURVE",
"153 723 OFFCURVE",
"70 598 OFFCURVE",
"56 435 CURVE SMOOTH",
"31 139 OFFCURVE",
"248 -13 OFFCURVE",
"523 -21 CURVE SMOOTH",
"547 -21 LINE SMOOTH",
"846 -22 OFFCURVE",
"1114 134 OFFCURVE",
"1141 453 CURVE SMOOTH"
);
},
{
closed = 1;
nodes = (
"821 704 OFFCURVE",
"924 618 OFFCURVE",
"903 453 CURVE SMOOTH",
"880 266 OFFCURVE",
"729 172 OFFCURVE",
"550 173 CURVE",
"528 174 LINE SMOOTH",
"371 182 OFFCURVE",
"272 271 OFFCURVE",
"292 435 CURVE SMOOTH",
"315 618 OFFCURVE",
"465 714 OFFCURVE",
"641 713 CURVE",
"664 712 LINE SMOOTH"
);
}
);
width = 1250;
}
);
note = uni0223;
unicode = 0223;
},
{
glyphname = uni0224;
lastChange = "2017-05-19 14:54:14 +0000";
layers = (
{
layerId = "173B8943-1C9C-4036-959A-12BE1501493B";
paths = (
{
closed = 1;
nodes = (
"3 176 LINE",
"-28 0 LINE",
"760 0 LINE",
"814 -4 OFFCURVE",
"848 -23 OFFCURVE",
"862 -57 CURVE SMOOTH",
"889 -125 OFFCURVE",
"876 -183 OFFCURVE",
"856 -258 CURVE",
"1056 -258 LINE",
"1071 -208 OFFCURVE",
"1081 -163 OFFCURVE",
"1084 -124 CURVE SMOOTH",
"1100 84 OFFCURVE",
"966 196 OFFCURVE",
"767 201 CURVE SMOOTH",
"314 202 LINE",
"1224 1284 LINE",
"1254 1456 LINE",
"230 1456 LINE",
"195 1253 LINE",
"913 1253 LINE"
);
}
);
width = 1245;
}
);
note = uni0224;
unicode = 0224;
},
{
glyphname = uni0225;
lastChange = "2017-05-19 14:54:14 +0000";
layers = (
{
layerId = "173B8943-1C9C-4036-959A-12BE1501493B";
paths = (
{
closed = 1;
nodes = (
"173 1082 LINE",
"138 886 LINE",
"653 886 LINE",
"4 171 LINE",
"-26 0 LINE",
"575 0 LINE",
"670 -6 OFFCURVE",
"712 -59 OFFCURVE",
"699 -160 CURVE",
"698 -173 OFFCURVE",
"692 -199 OFFCURVE",
"682 -237 CURVE",
"874 -238 LINE",
"890 -189 OFFCURVE",
"899 -145 OFFCURVE",
"902 -104 CURVE SMOOTH",
"918 104 OFFCURVE",
"768 189 OFFCURVE",
"579 193 CURVE SMOOTH",
"312 196 LINE",
"966 917 LINE",
"995 1082 LINE"
);
}
);
width = 1068;
}
);
note = uni0225;
unicode = 0225;
},
{
glyphname = uni0234;
lastChange = "2017-05-19 14:54:14 +0000";
layers = (
{
layerId = "173B8943-1C9C-4036-959A-12BE1501493B";
paths = (
{
closed = 1;
nodes = (
"-128 -244 LINE",
"-25 -403 LINE",
"147 -258 LINE",
"182 -389 OFFCURVE",
"308 -435 OFFCURVE",
"432 -438 CURVE SMOOTH",
"605 -441 OFFCURVE",
"770 -344 OFFCURVE",
"777 -156 CURVE SMOOTH",
"784 8 OFFCURVE",
"668 103 OFFCURVE",
"509 104 CURVE SMOOTH",
"472 105 OFFCURVE",
"434 100 OFFCURVE",
"395 90 CURVE",
"653 1536 LINE",
"416 1536 LINE",
"146 -23 LINE"
);
},
{
closed = 1;
nodes = (
"420 -80 OFFCURVE",
"454 -72 OFFCURVE",
"477 -73 CURVE SMOOTH",
"529 -76 OFFCURVE",
"567 -105 OFFCURVE",
"559 -160 CURVE SMOOTH",
"551 -216 OFFCURVE",
"502 -260 OFFCURVE",
"445 -260 CURVE SMOOTH",
"380 -260 OFFCURVE",
"358 -211 OFFCURVE",
"366 -152 CURVE",
"377 -96 LINE"
);
}
);
width = 939;
}
);
note = uni0234;
unicode = 0234;
},
{
glyphname = uni0235;
lastChange = "2017-05-19 14:54:14 +0000";
layers = (
{
layerId = "173B8943-1C9C-4036-959A-12BE1501493B";
paths = (
{
closed = 1;
nodes = (
"597 1104 OFFCURVE",
"490 1056 OFFCURVE",
"399 957 CURVE",
"423 1083 LINE",
"200 1082 LINE",
"13 0 LINE",
"250 0 LINE",
"385 773 LINE",
"454 862 OFFCURVE",
"533 906 OFFCURVE",
"621 904 CURVE SMOOTH",
"748 901 OFFCURVE",
"776 818 OFFCURVE",
"763 703 CURVE",
"642 -22 LINE",
"367 -245 LINE",
"470 -403 LINE",
"642 -258 LINE",
"677 -387 OFFCURVE",
"804 -436 OFFCURVE",
"929 -437 CURVE SMOOTH",
"1101 -440 OFFCURVE",
"1265 -341 OFFCURVE",
"1272 -156 CURVE SMOOTH",
"1279 8 OFFCURVE",
"1162 103 OFFCURVE",
"1005 104 CURVE SMOOTH",
"968 105 OFFCURVE",
"930 100 OFFCURVE",
"891 90 CURVE",
"1000 700 LINE",
"1021 909 OFFCURVE",
"955 1098 OFFCURVE",
"719 1103 CURVE SMOOTH"
);
},
{
closed = 1;
nodes = (
"915 -81 OFFCURVE",
"949 -73 OFFCURVE",
"973 -74 CURVE SMOOTH",
"1024 -77 OFFCURVE",
"1062 -106 OFFCURVE",
"1054 -161 CURVE SMOOTH",
"1046 -217 OFFCURVE",
"997 -260 OFFCURVE",
"941 -260 CURVE SMOOTH",
"874 -260 OFFCURVE",
"853 -212 OFFCURVE",
"861 -152 CURVE",
"872 -96 LINE"
);
}
);
width = 1435;
}
);
leftKerningGroup = m;
note = uni0235;
unicode = 0235;
},
{
glyphname = uni0236;
lastChange = "2017-05-19 14:54:14 +0000";
layers = (
{
layerId = "173B8943-1C9C-4036-959A-12BE1501493B";
paths = (
{
closed = 1;
nodes = (
"857 423 OFFCURVE",
"740 520 OFFCURVE",
"583 521 CURVE SMOOTH",
"547 521 OFFCURVE",
"509 516 OFFCURVE",
"468 506 CURVE",
"545 903 LINE",
"730 903 LINE",
"761 1082 LINE",
"575 1082 LINE",
"621 1345 LINE",
"384 1345 LINE",
"338 1082 LINE",
"166 1082 LINE",
"134 903 LINE",
"307 903 LINE",
"219 394 LINE",
"-55 172 LINE",
"48 14 LINE",
"220 159 LINE",
"255 28 OFFCURVE",
"381 -20 OFFCURVE",
"505 -21 CURVE SMOOTH",
"678 -24 OFFCURVE",
"843 73 OFFCURVE",
"850 260 CURVE SMOOTH"
);
},
{
closed = 1;
nodes = (
"492 336 OFFCURVE",
"526 344 OFFCURVE",
"551 343 CURVE SMOOTH",
"602 340 OFFCURVE",
"640 311 OFFCURVE",
"632 256 CURVE SMOOTH",
"624 200 OFFCURVE",
"575 157 OFFCURVE",
"519 156 CURVE SMOOTH",
"452 156 OFFCURVE",
"431 205 OFFCURVE",
"439 264 CURVE",
"450 321 LINE"
);
}
);
width = 939;
}
);
note = uni0236;
unicode = 0236;
},
{
glyphname = uni0237;
lastChange = "2017-05-19 14:54:14 +0000";
layers = (
{
layerId = "173B8943-1C9C-4036-959A-12BE1501493B";
paths = (
{
closed = 1;
nodes = (
"26 -160 OFFCURVE",
"-17 -246 OFFCURVE",
"-114 -246 CURVE SMOOTH",
"-143 -246 OFFCURVE",
"-176 -241 OFFCURVE",
"-211 -230 CURVE",
"-245 -420 LINE",
"-196 -433 OFFCURVE",
"-152 -439 OFFCURVE",
"-111 -440 CURVE SMOOTH",
"122 -441 OFFCURVE",
"254 -283 OFFCURVE",
"282 -62 CURVE",
"477 1082 LINE",
"239 1082 LINE",
"42 -69 LINE SMOOTH"
);
}
);
width = 534;
}
);
note = uni0237;
unicode = 0237;
},
{
glyphname = uni0238;
lastChange = "2017-05-19 14:54:14 +0000";
layers = (
{
layerId = "173B8943-1C9C-4036-959A-12BE1501493B";
paths = (
{
closed = 1;
nodes = (
"1705 715 OFFCURVE",
"1682 897 OFFCURVE",
"1580 1012 CURVE SMOOTH",
"1478 1127 OFFCURVE",
"1228 1148 OFFCURVE",
"1067 977 CURVE",
"1174 1536 LINE",
"937 1536 LINE",
"833 982 LINE",
"706 1138 OFFCURVE",
"456 1134 OFFCURVE",
"319 1023 CURVE SMOOTH",
"189 919 OFFCURVE",
"109 753 OFFCURVE",
"80 526 CURVE SMOOTH",
"65 370 OFFCURVE",
"94 187 OFFCURVE",
"196 71 CURVE SMOOTH",
"298 -46 OFFCURVE",
"544 -69 OFFCURVE",
"711 112 CURVE",
"695 0 LINE",
"909 0 LINE",
"934 106 LINE",
"1059 -58 OFFCURVE",
"1320 -52 OFFCURVE",
"1456 59 CURVE SMOOTH",
"1591 170 OFFCURVE",
"1663 355 OFFCURVE",
"1686 532 CURVE",
"1688 554 LINE SMOOTH"
);
},
{
closed = 1;
nodes = (
"338 679 OFFCURVE",
"382 785 OFFCURVE",
"465 856 CURVE SMOOTH",
"548 927 OFFCURVE",
"741 942 OFFCURVE",
"806 777 CURVE",
"723 310 LINE",
"657 219 OFFCURVE",
"579 176 OFFCURVE",
"488 179 CURVE SMOOTH",
"427 181 OFFCURVE",
"384 202 OFFCURVE",
"359 241 CURVE SMOOTH",
"307 319 OFFCURVE",
"306 436 OFFCURVE",
"317 527 CURVE SMOOTH"
);
},
{
closed = 1;
nodes = (
"1345 903 OFFCURVE",
"1389 882 OFFCURVE",
"1414 843 CURVE SMOOTH",
"1464 764 OFFCURVE",
"1461 645 OFFCURVE",
"1450 553 CURVE SMOOTH",
"1448 532 LINE",
"1433 421 OFFCURVE",
"1394 302 OFFCURVE",
"1313 230 CURVE SMOOTH",
"1232 157 OFFCURVE",
"1026 138 OFFCURVE",
"963 319 CURVE",
"1041 765 LINE",
"1106 861 OFFCURVE",
"1187 908 OFFCURVE",
"1283 905 CURVE SMOOTH"
);
}
);
width = 1791;
}
);
note = uni0238;
rightKerningGroup = b;
unicode = 0238;
},
{
glyphname = uni0239;
lastChange = "2017-05-19 14:54:14 +0000";
layers = (
{
layerId = "173B8943-1C9C-4036-959A-12BE1501493B";
paths = (
{
closed = 1;
nodes = (
"1280 -23 OFFCURVE",
"1361 1 OFFCURVE",
"1427 51 CURVE SMOOTH",
"1558 150 OFFCURVE",
"1640 317 OFFCURVE",
"1672 554 CURVE SMOOTH",
"1689 715 OFFCURVE",
"1665 897 OFFCURVE",
"1563 1013 CURVE SMOOTH",
"1461 1128 OFFCURVE",
"1209 1149 OFFCURVE",
"1042 972 CURVE",
"1059 1083 LINE",
"865 1082 LINE",
"828 974 LINE",
"703 1141 OFFCURVE",
"442 1133 OFFCURVE",
"303 1024 CURVE SMOOTH",
"164 915 OFFCURVE",
"90 730 OFFCURVE",
"67 549 CURVE",
"65 527 LINE SMOOTH",
"49 368 OFFCURVE",
"77 186 OFFCURVE",
"181 70 CURVE SMOOTH",
"284 -46 OFFCURVE",
"521 -62 OFFCURVE",
"681 94 CURVE",
"583 -416 LINE",
"820 -416 LINE",
"917 99 LINE",
"982 22 OFFCURVE",
"1071 -18 OFFCURVE",
"1184 -21 CURVE SMOOTH"
);
},
{
closed = 1;
nodes = (
"319 658 OFFCURVE",
"364 782 OFFCURVE",
"449 856 CURVE SMOOTH",
"533 930 OFFCURVE",
"724 942 OFFCURVE",
"792 790 CURVE",
"706 297 LINE",
"638 212 OFFCURVE",
"561 172 OFFCURVE",
"474 175 CURVE SMOOTH",
"413 176 OFFCURVE",
"369 197 OFFCURVE",
"344 237 CURVE SMOOTH",
"292 317 OFFCURVE",
"291 437 OFFCURVE",
"302 528 CURVE SMOOTH",
"304 549 LINE"
);
},
{
closed = 1;
nodes = (
"1322 903 OFFCURVE",
"1365 882 OFFCURVE",
"1391 843 CURVE SMOOTH",
"1443 763 OFFCURVE",
"1445 644 OFFCURVE",
"1434 553 CURVE SMOOTH",
"1413 400 OFFCURVE",
"1366 291 OFFCURVE",
"1285 223 CURVE SMOOTH",
"1204 154 OFFCURVE",
"1008 136 OFFCURVE",
"943 300 CURVE",
"1028 780 LINE",
"1093 866 OFFCURVE",
"1171 907 OFFCURVE",
"1261 904 CURVE SMOOTH"
);
}
);
width = 1759;
}
);
note = uni0239;
rightKerningGroup = b;
unicode = 0239;
},
{
glyphname = uni023A;
lastChange = "2017-05-19 14:54:14 +0000";
layers = (
{
layerId = "173B8943-1C9C-4036-959A-12BE1501493B";
paths = (
{
closed = 1;
nodes = (
"35 0 LINE",
"175 0 LINE",
"340 317 LINE",
"365 341 LINE",
"895 340 LINE",
"951 0 LINE",
"1199 0 LINE",
"1003 1002 LINE",
"1516 1532 LINE",
"1318 1532 LINE",
"970 1173 LINE",
"916 1456 LINE",
"694 1456 LINE",
"-1 168 LINE",
"-319 -160 LINE",
"-120 -160 LINE"
);
},
{
closed = 1;
nodes = (
"540 725 LINE",
"762 1147 LINE",
"788 984 LINE"
);
},
{
closed = 1;
nodes = (
"861 543 LINE",
"560 543 LINE",
"818 809 LINE"
);
}
);
width = 1322;
}
);
note = uni023A;
unicode = 023A;
},
{
glyphname = uni023B;
lastChange = "2017-05-19 14:54:14 +0000";
layers = (
{
layerId = "173B8943-1C9C-4036-959A-12BE1501493B";
paths = (
{
closed = 1;
nodes = (
"887 -25 OFFCURVE",
"1144 162 OFFCURVE",
"1193 475 CURVE",
"948 473 LINE",
"901 286 OFFCURVE",
"788 177 OFFCURVE",
"588 181 CURVE SMOOTH",
"554 182 OFFCURVE",
"522 187 OFFCURVE",
"493 197 CURVE",
"1017 1180 LINE",
"1045 1121 OFFCURVE",
"1049 1063 OFFCURVE",
"1049 975 CURVE",
"1292 974 LINE",
"1285 1133 OFFCURVE",
"1245 1288 OFFCURVE",
"1120 1395 CURVE",
"1218 1566 LINE",
"1057 1567 LINE",
"992 1453 LINE",
"934 1469 OFFCURVE",
"875 1477 OFFCURVE",
"816 1477 CURVE SMOOTH",
"683 1478 OFFCURVE",
"568 1447 OFFCURVE",
"472 1383 CURVE SMOOTH",
"280 1254 OFFCURVE",
"165 1030 OFFCURVE",
"129 787 CURVE SMOOTH",
"112 669 LINE SMOOTH",
"84 456 OFFCURVE",
"112 221 OFFCURVE",
"277 69 CURVE",
"167 -124 LINE",
"328 -125 LINE",
"403 6 LINE",
"461 -11 OFFCURVE",
"519 -20 OFFCURVE",
"578 -21 CURVE SMOOTH"
);
},
{
closed = 1;
nodes = (
"345 519 OFFCURVE",
"348 564 OFFCURVE",
"353 607 CURVE SMOOTH",
"362 693 OFFCURVE",
"385 888 OFFCURVE",
"451 1033 CURVE SMOOTH",
"517 1178 OFFCURVE",
"629 1279 OFFCURVE",
"805 1276 CURVE SMOOTH",
"839 1275 OFFCURVE",
"871 1271 OFFCURVE",
"902 1263 CURVE",
"381 285 LINE",
"354 343 OFFCURVE",
"342 406 OFFCURVE",
"344 474 CURVE SMOOTH"
);
}
);
width = 1297;
}
);
note = uni023B;
unicode = 023B;
},
{
glyphname = uni023C;
lastChange = "2017-05-19 14:54:14 +0000";
layers = (
{
layerId = "173B8943-1C9C-4036-959A-12BE1501493B";
paths = (
{
closed = 1;
nodes = (
"688 -25 OFFCURVE",
"911 125 OFFCURVE",
"935 358 CURVE",
"712 357 LINE",
"684 245 OFFCURVE",
"588 171 OFFCURVE",
"471 172 CURVE SMOOTH",
"446 172 OFFCURVE",
"420 176 OFFCURVE",
"395 184 CURVE",
"757 840 LINE",
"777 801 OFFCURVE",
"786 752 OFFCURVE",
"783 695 CURVE",
"1002 694 LINE",
"1005 829 OFFCURVE",
"966 958 OFFCURVE",
"855 1043 CURVE",
"1086 1456 LINE",
"925 1456 LINE",
"726 1093 LINE",
"684 1100 OFFCURVE",
"650 1103 OFFCURVE",
"625 1103 CURVE SMOOTH",
"305 1110 OFFCURVE",
"105 857 OFFCURVE",
"69 557 CURVE SMOOTH",
"65 521 LINE SMOOTH",
"48 360 OFFCURVE",
"68 191 OFFCURVE",
"183 68 CURVE",
"-86 -416 LINE",
"75 -416 LINE",
"304 3 LINE",
"359 -13 OFFCURVE",
"412 -21 OFFCURVE",
"463 -22 CURVE SMOOTH"
);
},
{
closed = 1;
nodes = (
"332 737 OFFCURVE",
"414 912 OFFCURVE",
"613 911 CURVE",
"637 909 LINE",
"294 290 LINE",
"286 328 OFFCURVE",
"283 367 OFFCURVE",
"286 406 CURVE SMOOTH",
"297 522 LINE",
"303 558 LINE SMOOTH"
);
}
);
width = 1041;
}
);
note = uni023C;
unicode = 023C;
},
{
glyphname = uni023E;
lastChange = "2017-05-19 14:54:14 +0000";
layers = (
{
layerId = "173B8943-1C9C-4036-959A-12BE1501493B";
paths = (
{
closed = 1;
nodes = (
"469 540 LINE",
"22 -125 LINE",
"192 -125 LINE",
"411 199 LINE",
"375 0 LINE",
"622 0 LINE",
"742 693 LINE",
"1118 1253 LINE",
"1278 1253 LINE",
"1309 1455 LINE",
"1246 1453 LINE",
"1328 1568 LINE",
"1160 1567 LINE",
"1085 1456 LINE",
"192 1456 LINE",
"156 1253 LINE",
"593 1253 LINE"
);
},
{
closed = 1;
nodes = (
"800 1033 LINE",
"840 1253 LINE",
"949 1253 LINE"
);
}
);
width = 1207;
}
);
note = uni023E;
unicode = 023E;
},
{
glyphname = uni023F;
lastChange = "2017-05-19 14:54:14 +0000";
layers = (
{
layerId = "173B8943-1C9C-4036-959A-12BE1501493B";
paths = (
{
closed = 1;
nodes = (
"636 197 OFFCURVE",
"527 163 OFFCURVE",
"435 164 CURVE SMOOTH",
"324 164 OFFCURVE",
"246 220 OFFCURVE",
"200 331 CURVE",
"11 243 LINE",
"168 -182 LINE",
"193 -243 OFFCURVE",
"228 -300 OFFCURVE",
"271 -354 CURVE SMOOTH",
"358 -462 OFFCURVE",
"529 -475 OFFCURVE",
"681 -326 CURVE",
"610 -184 LINE",
"494 -272 OFFCURVE",
"395 -294 OFFCURVE",
"342 -102 CURVE SMOOTH",
"317 -13 LINE",
"369 -19 OFFCURVE",
"404 -22 OFFCURVE",
"423 -22 CURVE SMOOTH",
"492 -23 OFFCURVE",
"562 -11 OFFCURVE",
"632 12 CURVE SMOOTH",
"772 59 OFFCURVE",
"880 157 OFFCURVE",
"888 316 CURVE SMOOTH",
"897 513 OFFCURVE",
"723 593 OFFCURVE",
"558 634 CURVE SMOOTH",
"470 658 LINE SMOOTH",
"317 702 OFFCURVE",
"357 838 OFFCURVE",
"441 885 CURVE SMOOTH",
"524 932 OFFCURVE",
"734 969 OFFCURVE",
"727 758 CURVE",
"963 757 LINE",
"964 868 OFFCURVE",
"927 953 OFFCURVE",
"851 1012 CURVE SMOOTH",
"698 1128 OFFCURVE",
"511 1117 OFFCURVE",
"378 1067 CURVE SMOOTH",
"245 1017 OFFCURVE",
"144 915 OFFCURVE",
"137 766 CURVE SMOOTH",
"130 611 OFFCURVE",
"235 516 OFFCURVE",
"476 453 CURVE SMOOTH",
"553 433 OFFCURVE",
"674 406 OFFCURVE",
"655 301 CURVE SMOOTH"
);
}
);
width = 1022;
}
);
leftKerningGroup = s;
note = uni023F;
unicode = 023F;
},
{
glyphname = uni0240;
lastChange = "2017-05-19 14:54:14 +0000";
layers = (
{
layerId = "173B8943-1C9C-4036-959A-12BE1501493B";
paths = (
{
closed = 1;
nodes = (
"4 171 LINE",
"-26 0 LINE",
"273 0 LINE",
"406 -9 OFFCURVE",
"465 -112 OFFCURVE",
"517 -224 CURVE SMOOTH",
"542 -280 OFFCURVE",
"574 -329 OFFCURVE",
"611 -371 CURVE SMOOTH",
"685 -456 OFFCURVE",
"860 -472 OFFCURVE",
"1015 -327 CURVE",
"944 -184 LINE",
"886 -227 OFFCURVE",
"837 -249 OFFCURVE",
"797 -249 CURVE SMOOTH",
"708 -248 OFFCURVE",
"662 -145 OFFCURVE",
"611 -30 CURVE SMOOTH",
"559 85 OFFCURVE",
"490 188 OFFCURVE",
"354 191 CURVE SMOOTH",
"300 191 LINE",
"966 917 LINE",
"995 1082 LINE",
"173 1082 LINE",
"138 886 LINE",
"653 886 LINE"
);
}
);
width = 1084;
}
);
leftKerningGroup = z;
note = uni0240;
unicode = 0240;
},
{
glyphname = uni0241;
lastChange = "2017-05-19 14:54:14 +0000";
layers = (
{
layerId = "173B8943-1C9C-4036-959A-12BE1501493B";
paths = (
{
closed = 1;
nodes = (
"579 285 LINE",
"839 346 OFFCURVE",
"982 557 OFFCURVE",
"1019 812 CURVE SMOOTH",
"1035 933 LINE SMOOTH",
"1046 1027 OFFCURVE",
"1039 1115 OFFCURVE",
"1012 1197 CURVE SMOOTH",
"958 1360 OFFCURVE",
"828 1472 OFFCURVE",
"624 1477 CURVE SMOOTH",
"369 1482 OFFCURVE",
"166 1309 OFFCURVE",
"138 1054 CURVE",
"371 1056 LINE",
"384 1117 OFFCURVE",
"411 1168 OFFCURVE",
"452 1209 CURVE SMOOTH",
"534 1292 OFFCURVE",
"691 1284 OFFCURVE",
"744 1212 CURVE SMOOTH",
"797 1140 OFFCURVE",
"794 1056 OFFCURVE",
"793 1002 CURVE SMOOTH",
"792 975 OFFCURVE",
"786 915 OFFCURVE",
"773 822 CURVE SMOOTH",
"747 637 OFFCURVE",
"662 476 OFFCURVE",
"461 476 CURVE SMOOTH",
"361 478 LINE",
"277 0 LINE",
"523 0 LINE"
);
}
);
width = 1062;
}
);
note = uni0241;
unicode = 0241;
},
{
glyphname = uni0242;
lastChange = "2017-05-19 14:54:14 +0000";
layers = (
{
layerId = "173B8943-1C9C-4036-959A-12BE1501493B";
paths = (
{
closed = 1;
nodes = (
"574 330 LINE",
"774 363 OFFCURVE",
"904 488 OFFCURVE",
"920 693 CURVE SMOOTH",
"939 941 OFFCURVE",
"795 1098 OFFCURVE",
"547 1103 CURVE SMOOTH",
"302 1107 OFFCURVE",
"116 937 OFFCURVE",
"96 694 CURVE",
"331 696 LINE",
"347 803 OFFCURVE",
"409 911 OFFCURVE",
"532 910 CURVE SMOOTH",
"660 907 OFFCURVE",
"694 807 OFFCURVE",
"682 695 CURVE SMOOTH",
"666 559 OFFCURVE",
"587 464 OFFCURVE",
"444 463 CURVE SMOOTH",
"354 465 LINE",
"274 0 LINE",
"511 0 LINE"
);
}
);
width = 980;
}
);
note = uni0242;
unicode = 0242;
},
{
glyphname = uni0244;
lastChange = "2017-05-19 14:54:14 +0000";
layers = (
{
layerId = "173B8943-1C9C-4036-959A-12BE1501493B";
paths = (
{
closed = 1;
nodes = (
"1004 -27 OFFCURVE",
"1247 171 OFFCURVE",
"1291 483 CURVE SMOOTH",
"1319 664 LINE",
"1534 664 LINE",
"1564 835 LINE",
"1349 835 LINE",
"1457 1456 LINE",
"1210 1456 LINE",
"1102 835 LINE",
"538 835 LINE",
"646 1456 LINE",
"400 1456 LINE",
"292 835 LINE",
"73 835 LINE",
"43 664 LINE",
"263 664 LINE",
"235 483 LINE",
"199 180 OFFCURVE",
"392 -17 OFFCURVE",
"691 -22 CURVE SMOOTH"
);
},
{
closed = 1;
nodes = (
"1073 664 LINE",
"1043 477 LINE SMOOTH",
"1014 297 OFFCURVE",
"895 175 OFFCURVE",
"704 182 CURVE SMOOTH",
"523 187 OFFCURVE",
"460 314 OFFCURVE",
"481 482 CURVE SMOOTH",
"509 664 LINE"
);
}
);
width = 1555;
}
);
note = uni0244;
unicode = 0244;
},
{
glyphname = uni0245;
lastChange = "2017-05-19 14:54:14 +0000";
layers = (
{
layerId = "173B8943-1C9C-4036-959A-12BE1501493B";
paths = (
{
closed = 1;
nodes = (
"738 1136 LINE",
"899 0 LINE",
"1160 0 LINE",
"904 1456 LINE",
"666 1456 LINE",
"-93 0 LINE",
"186 0 LINE"
);
}
);
width = 1286;
}
);
leftKerningGroup = A;
note = uni0245;
rightKerningGroup = A;
unicode = 0245;
},
{
glyphname = uni0246;
lastChange = "2017-05-19 14:54:14 +0000";
layers = (
{
layerId = "173B8943-1C9C-4036-959A-12BE1501493B";
paths = (
{
closed = 1;
nodes = (
"238 -125 LINE",
"398 -125 LINE",
"454 0 LINE",
"964 0 LINE",
"999 202 LINE",
"543 202 LINE",
"742 651 LINE",
"978 651 LINE",
"1013 850 LINE",
"830 850 LINE",
"1008 1253 LINE",
"1174 1253 LINE",
"1210 1456 LINE",
"1098 1456 LINE",
"1148 1567 LINE",
"989 1567 LINE",
"939 1456 LINE",
"291 1456 LINE",
"39 0 LINE",
"294 0 LINE"
);
},
{
closed = 1;
nodes = (
"850 1253 LINE",
"670 850 LINE",
"432 850 LINE",
"502 1253 LINE"
);
},
{
closed = 1;
nodes = (
"583 651 LINE",
"382 200 LINE",
"314 200 LINE",
"398 651 LINE"
);
}
);
width = 1123;
}
);
note = uni0246;
unicode = 0246;
},
{
glyphname = uni0247;
lastChange = "2017-05-19 14:54:14 +0000";
layers = (
{
layerId = "173B8943-1C9C-4036-959A-12BE1501493B";
paths = (
{
closed = 1;
nodes = (
"655 -23 OFFCURVE",
"821 42 OFFCURVE",
"917 182 CURVE",
"798 308 LINE",
"711 216 OFFCURVE",
"614 171 OFFCURVE",
"509 172 CURVE SMOOTH",
"474 173 OFFCURVE",
"442 179 OFFCURVE",
"411 190 CURVE",
"562 464 LINE",
"981 465 LINE",
"997 568 LINE SMOOTH",
"1018 733 OFFCURVE",
"1000 924 OFFCURVE",
"865 1039 CURVE",
"1098 1456 LINE",
"936 1456 LINE",
"734 1091 LINE",
"694 1099 OFFCURVE",
"658 1103 OFFCURVE",
"626 1103 CURVE SMOOTH",
"520 1105 OFFCURVE",
"428 1080 OFFCURVE",
"349 1027 CURVE SMOOTH",
"191 921 OFFCURVE",
"94 738 OFFCURVE",
"71 542 CURVE SMOOTH",
"67 500 LINE SMOOTH",
"51 344 OFFCURVE",
"81 187 OFFCURVE",
"196 72 CURVE",
"-75 -416 LINE",
"87 -416 LINE",
"318 7 LINE",
"377 -12 OFFCURVE",
"435 -21 OFFCURVE",
"491 -22 CURVE SMOOTH"
);
},
{
closed = 1;
nodes = (
"496 643 LINE",
"310 642 LINE",
"358 782 OFFCURVE",
"447 911 OFFCURVE",
"610 911 CURVE",
"647 908 LINE"
);
},
{
closed = 1;
nodes = (
"659 642 LINE",
"767 840 LINE",
"798 785 OFFCURVE",
"799 724 OFFCURVE",
"784 664 CURVE SMOOTH",
"778 642 LINE"
);
},
{
closed = 1;
nodes = (
"301 285 LINE",
"277 345 OFFCURVE",
"276 402 OFFCURVE",
"287 465 CURVE",
"400 466 LINE"
);
}
);
width = 1066;
}
);
note = uni0247;
unicode = 0247;
},
{
glyphname = uni024A;
lastChange = "2017-05-19 14:54:14 +0000";
layers = (
{
layerId = "173B8943-1C9C-4036-959A-12BE1501493B";
paths = (
{
closed = 1;
nodes = (
"977 1495 OFFCURVE",
"686 1511 OFFCURVE",
"486 1382 CURVE SMOOTH",
"286 1253 OFFCURVE",
"162 1028 OFFCURVE",
"126 777 CURVE SMOOTH",
"113 680 LINE SMOOTH",
"82 445 OFFCURVE",
"140 220 OFFCURVE",
"297 86 CURVE SMOOTH",
"454 -48 OFFCURVE",
"727 -34 OFFCURVE",
"888 22 CURVE",
"872 -64 LINE",
"845 -261 OFFCURVE",
"946 -431 OFFCURVE",
"1157 -435 CURVE SMOOTH",
"1196 -436 OFFCURVE",
"1236 -431 OFFCURVE",
"1277 -421 CURVE",
"1296 -221 LINE",
"1267 -226 OFFCURVE",
"1242 -228 OFFCURVE",
"1221 -228 CURVE",
"1122 -224 OFFCURVE",
"1107 -153 OFFCURVE",
"1116 -66 CURVE",
"1374 1456 LINE",
"1178 1456 LINE",
"1161 1415 LINE"
);
},
{
closed = 1;
nodes = (
"924 1269 OFFCURVE",
"1028 1256 OFFCURVE",
"1083 1179 CURVE",
"921 279 LINE",
"770 156 OFFCURVE",
"516 166 OFFCURVE",
"433 270 CURVE SMOOTH",
"349 373 OFFCURVE",
"350 503 OFFCURVE",
"354 592 CURVE SMOOTH",
"357 681 OFFCURVE",
"378 871 OFFCURVE",
"451 1020 CURVE SMOOTH",
"523 1169 OFFCURVE",
"647 1274 OFFCURVE",
"836 1270 CURVE SMOOTH"
);
}
);
width = 1455;
}
);
leftKerningGroup = C;
note = uni024A;
unicode = 024A;
},
{
glyphname = uni024B;
lastChange = "2017-05-19 14:54:14 +0000";
layers = (
{
layerId = "173B8943-1C9C-4036-959A-12BE1501493B";
paths = (
{
closed = 1;
nodes = (
"704 1141 OFFCURVE",
"442 1133 OFFCURVE",
"304 1024 CURVE SMOOTH",
"166 915 OFFCURVE",
"91 730 OFFCURVE",
"68 549 CURVE SMOOTH",
"66 528 LINE SMOOTH",
"49 368 OFFCURVE",
"77 186 OFFCURVE",
"181 70 CURVE SMOOTH",
"284 -46 OFFCURVE",
"521 -62 OFFCURVE",
"682 94 CURVE",
"642 -117 LINE",
"623 -305 OFFCURVE",
"741 -432 OFFCURVE",
"928 -435 CURVE SMOOTH",
"965 -436 OFFCURVE",
"1003 -432 OFFCURVE",
"1042 -425 CURVE",
"1056 -260 LINE",
"990 -265 LINE",
"904 -262 OFFCURVE",
"866 -214 OFFCURVE",
"876 -119 CURVE",
"1081 1082 LINE",
"866 1083 LINE",
"829 974 LINE"
);
},
{
closed = 1;
nodes = (
"321 658 OFFCURVE",
"365 781 OFFCURVE",
"450 856 CURVE SMOOTH",
"535 931 OFFCURVE",
"725 943 OFFCURVE",
"793 790 CURVE",
"707 297 LINE",
"640 212 OFFCURVE",
"563 172 OFFCURVE",
"475 175 CURVE SMOOTH",
"414 177 OFFCURVE",
"371 198 OFFCURVE",
"346 238 CURVE SMOOTH",
"294 317 OFFCURVE",
"292 437 OFFCURVE",
"303 528 CURVE SMOOTH",
"305 549 LINE"
);
}
);
width = 1204;
}
);
leftKerningGroup = c;
note = uni024B;
unicode = 024B;
},
